<svg xmlns="http://www.w3.org/2000/svg" version="1.1" xmlns:xlink="http://www.w3.org/1999/xlink" width="1000" height="1000"><g clip-path="url(#SvgjsClipPath1078)"><rect width="1000" height="1000" fill="#003a53"></rect><g transform="matrix(1,0,0,1,0,0)"><svg xmlns="http://www.w3.org/2000/svg" version="1.1" xmlns:xlink="http://www.w3.org/1999/xlink" width="1000" height="1000"><svg xmlns="http://www.w3.org/2000/svg" version="1.1" xmlns:xlink="http://www.w3.org/1999/xlink" width="1000" height="1000"><g clip-path="url(#SvgjsClipPath1025)"><rect width="1000" height="1000" fill="#003a53"></rect><g transform="matrix(1.1666666666666667,0,0,1.1666666666666667,150,150)"><svg xmlns="http://www.w3.org/2000/svg" version="1.1" xmlns:xlink="http://www.w3.org/1999/xlink" width="600" height="600"><svg xmlns="http://www.w3.org/2000/svg" version="1.1" xmlns:xlink="http://www.w3.org/1999/xlink" xmlns:svgjs="http://svgjs.dev/svgjs" width="600" height="600"><svg id="SvgjsSvg1103" xmlns="http://www.w3.org/2000/svg" version="1.1" viewBox="0 0 600 600">
  <!-- Generator: Adobe Illustrator 29.3.1, SVG Export Plug-In . SVG Version: 2.1.0 Build 151)  -->
  <defs>
    <style>
      .st0 {
        fill: #003a53;
      }

      .st1 {
        fill: #fff;
      }
    </style>
  <clipPath id="SvgjsClipPath1025"><rect width="1000" height="1000" x="0" y="0" rx="500" ry="500"></rect></clipPath><clipPath id="SvgjsClipPath1078"><rect width="1000" height="1000" x="0" y="0" rx="500" ry="500"></rect></clipPath></defs>
  <rect class="st0" x="0" y="0" width="600" height="600" rx="300" ry="300"></rect>
  <g>
    <path class="st1" d="M417.6,130.4c-15.4,10.5-55.6,55.2-55.6,55.2-8.1,8.5-12,7.7-12,7.7-4.9.4-6.3-5.5-6.3-5.5-.6-2.4-1.2-4.5-1.8-6.7h0c-6.5-25.4-11-40.4-15.8-51.7,0,0,7.5-.4,11.4-1,3.9-.4,3.4.8,3.9,2.6,0,0,1,3.2,2.4,3.2s1.6-1.2,1.6-1.2c.8-3.6.8-17.7-5.9-18.7s-14.8,0-14.8,0c-2.6-2.6-4.3-4.7-7.9-5.9-4.3-2-16-1.2-16-1.2,0,0-4.7,0-9.9.8-4.7.8-8.5,4.3-11.8,10.3-13,23.3-22.5,60.3-24.1,66.9,0,0-1.8,7.7-5.5,7.3,0,0-3.2,1.6-11-6.7,0,0-40-45-55.6-55.2-14.2-9.5-62.7-18.3-71.6,64.5-8.7,79.9,26.6,171.4,51.9,286.8,0,0,29.8-18.9,35.5-56.2l2.6,4.1c2.2,3.2,8.9,3.9,13.6-2.6l11.8-16.2c4.7-6.5.8-12.2,0-13.2l-2.6-3.9c-.4-.6,0-1.6.4-2.2l17.7-13c.6-.4,1.6-.4,2.2.2l3,3.6c.8,1,4.9,6.5,12.6,4.1l18.9-6.1c7.7-2.6,7.9-9.3,7.9-10.7l.4-4.7c0-.8.8-1.4,1.6-1.4h22.3c.8,0,1.6.6,1.6,1.4l.4,4.7c0,1.4,0,8.3,7.9,10.7l18.9,6.1c7.7,2.6,11.8-3,12.6-4.1l3-3.6c.6-.6,1.4-.8,2.2-.2l17.7,13c.6.4.8,1.4.4,2.2l-2.6,3.9c-.8,1.2-4.7,6.7,0,13.2l11.8,16.2c4.7,6.5,11.4,5.7,13.6,2.6l2.6-4.1c5.7,37.3,35.5,56.2,35.5,56.2,25.4-115.6,60.5-206.9,51.9-286.8-8.9-82.8-57.6-74-71.6-64.5h.6,0ZM235.8,197.6c6.5,6.3,10.7,6.1,12.4,5.9,1.2,0,2.8-.4,3.8-1.4-1.6,8.3-2.8,21.5-2.8,21.5,0,.6-1.2,3.9-3.4,5.7s-6.9,6.9-17.4,3.4c-12.8-4.3-16-12.4-15.8-18.3,0-3.2,1.2-7.9,1.8-10.3,1.8-7.1,4.3-16.2,7.5-21.1,1.2,1.4,13.8,14.6,13.8,14.6h0ZM191.8,151.9c9.3,8.5,15.8,15.2,22.9,23.3-1.8,3.6-7.1,15.2-9.1,24.3-.8,3.6-2.6,13-9.3,15.2-3.4,1-8.3.6-12.4-1.8-9.5-5.7-12.8-13.4-12.8-18.9s2.2-10.5,2.2-10.7c4.3-15.2,14.8-28.2,18.5-31h0v-.4h0ZM151.4,136.3c10.8-4.3,21.3-.8,26.6,3.4,2,1.6,5.1,3.6,6.5,5.3-5.9,4.5-15.2,14-22.1,36.1-.6,2.2-2.4,7.7-9.7,4.5,0,0-12.8-4.5-22.7,2.4-4.1,3-6.5,5.9-8.9,10.1,1.4-33.3,17-56.2,30.2-61.7h0ZM169.7,462.7c-9.5-43.8-23.9-99.6-24.1-100.2-18.1-67.5-21.7-98.4-21.7-98.6s-2.6-15.4-2.8-27.8c-.4-20.7,3.4-35.7,19.3-40.2,2.6-.6,8.5-2,15.8,3.8,0,0-1.2,6.7-1.6,10.8-.4,5.7-1,10.1-.8,15.4,1.2,66.1,16.2,112.6,25.8,149.7,4.1,15.6,7.7,27.6,8.3,35.3,2.2,25.8-13.8,46.5-18.5,51.7h0l.2.2h0ZM215.9,387c-3.6,2.6-3,8.1-1.6,10.3l4.9,7.7-12.4,17c-16.4-46.5-41-128.4-41.4-189.1v-8.9c.4-7.3.4-10.7,1.2-15.2,1.6,8.1,12.8,21.7,33.5,16.8v5.9c0,7.1,0,21.5,1,29.8,5.1,51.9,15,92.9,24.3,118.9l-9.7,6.9h.2ZM251,370.4c-1.6-2-6.7-4.3-10.3-1.6l-5.9,4.3c-19.7-60.1-24.5-114.2-24.3-142.2,2,9.7,23.5,20.7,37.9,8.1-.8,10.8-2.2,64.1,8.3,138.4-1.4-1.8-5.7-6.9-5.7-6.9h0v-.2h0ZM260.3,301c-1.2-15-3.4-82,4.9-108.1,2.4,8.5,16.4,15.6,29,7.7v100.4c-2.2-6.3-23.3-12.6-33.9,0h0ZM294.6,354.2h-9.9c-4.3,0-7.1,5.1-7.3,7.5,0,0-.4,6.7-.6,9.1l-10.7,3.4c-5.1-39.8-4.5-51.5-4.5-51.5,0-13,7.9-17.2,16-17,5.9,0,16.8,2.2,16.8,19.7v29h.2v-.2h0ZM300.3,182.2c0-.6-.6-1-1.2-1s-1,.4-1.2,1c0,.4-2.2,8.7-12,10.5-4.5.8-8.3,0-11.2-2.4-4.1-3.6-5.3-9.3-5.1-13.2,0-1.4,0-3.8,1-6.5,3.6-16.2,14.4-53.4,24.6-53.4h0c10.1-1,21.5-.6,22.5,1.8.8,1.8,1.4,4.3.8,5.1h-.6c-1,0-10.1,0-12.2,2.4-.4.6-.6,1.2-.6,1.8,0,1.6,1.8,2,3.8,2.6,2.8.8,6.9,2.2,9.7,7.3,3.6,6.7,8.7,22.1,11,32.5,0,0,.8,3,1,6.5,0,4.1-1,10.1-5.1,13.6-3,2.6-8.9,3.4-13.2,2.4-9.9-2-11.8-10.5-12-10.8h.2ZM334,374.1l-10.5-3.4-.6-9.1c0-2.4-3-7.3-7.3-7.3h-9.9v-29c0-17.6,10.8-19.7,16.8-19.7s16,3.9,16,17c0,0,0,11.4-4.7,51.5h.2ZM340.3,301c-10.7-12.6-31.8-6.5-33.9,0v-100.4c12.6,8.1,26.6.8,29-7.7,8.3,26.2,5.9,93.1,4.9,108.1h0ZM422.4,139.6c5.3-4.1,15.8-7.7,26.6-3.4,13.2,5.3,28.8,28.2,30.2,61.7-2.4-4.1-4.7-7.1-8.9-10.1-9.9-6.9-22.7-2.4-22.7-2.4-7.3,3-9.1-2.4-9.7-4.5-6.7-22.1-16.2-31.4-22.1-36.1,1.4-1.8,4.5-3.9,6.5-5.3h0ZM408.8,151.9c3.8,3,14.2,15.8,18.5,31,0,.4,2.2,6.5,2.2,10.7s-3.4,13.2-12.8,18.9c-4.1,2.4-9.1,3-12.4,1.8-6.7-2.2-8.5-11.6-9.3-15.2-2-9.1-7.1-20.7-9.1-24.3,7.1-8.1,13.6-14.8,22.9-23.3h0v.4h0ZM352.4,203.7c1.8,0,5.9.4,12.4-5.9,0,0,12.6-13.2,13.8-14.6,3.2,4.9,5.9,14.2,7.5,21.1.6,2.4,1.8,7.1,1.8,10.3,0,5.9-3,14-15.8,18.3-10.5,3.6-15.2-1.6-17.4-3.4-2.4-1.8-3.4-5.1-3.4-5.7s-1.2-13.2-2.8-21.5c1.2,1,2.6,1.2,3.8,1.4h0ZM359.7,368.6c-3.6-2.6-8.7-.2-10.3,1.6,0,0-4.3,5.1-5.7,6.9,10.5-74.4,9.3-127.6,8.3-138.4,14.2,12.4,35.9,1.6,37.9-8.1,0,28-4.5,82.2-24.3,142.2l-5.9-4.3h0v.2h0ZM393.8,421.9l-12.4-17,4.9-7.7c1.4-2.2,2-7.7-1.6-10.3l-9.5-7.3c9.1-26.4,19.3-68.4,24.3-118.7.8-8.1,1-22.7,1-29.8s0-3.9,0-5.9c20.7,4.9,31.9-8.7,33.5-16.8.6,4.3.8,7.9,1.2,15.2v8.9c-.2,60.9-25.2,144.8-41.4,189.1h0v.2h0ZM476.6,264.1s-3.6,31.2-21.7,98.6c0,.4-14.6,56.2-24.1,100.2-4.7-5.3-20.7-25.8-18.5-51.7.6-7.9,4.3-19.7,8.3-35.3,9.7-37.1,24.6-83.6,25.8-149.7,0-5.5-.4-9.7-.8-15.4-.4-4.1-1.6-10.8-1.6-10.8,7.3-5.7,13.2-4.3,15.8-3.8,16,4.5,19.7,19.7,19.3,40.2-.2,12.4-2.8,27.6-2.8,27.8h0l.2-.2h0Z"></path>
    <path class="st1" d="M300.3,394.4c-21.7,0-41.8,8.3-56.4,23.1-14.8,15-22.9,35.5-22.9,57.8s0,.8,0,1.2h11.2v-1.2c0-39.4,29.4-69,68.2-69s68.2,29.6,68.2,69,0,.8,0,1.2h11.2v-1.2c0-22.3-8.1-42.8-22.9-57.8-14.8-15-34.7-23.1-56.4-23.1h-.4Z"></path>
    <path class="st1" d="M300.3,428.4c-12.6,0-24.3,4.7-32.9,13.4-8.7,8.7-13.4,20.7-13.4,33.5s0,.8,0,1.2h12.4v-2c0-19.1,14.6-33.5,33.7-33.5s33.9,14.4,33.9,33.5,0,1.2,0,2h12.4v-1.2c0-13-4.7-24.8-13.4-33.5-8.5-8.7-20.3-13.4-32.9-13.4h.2Z"></path>
  </g>
</svg><style>@media (prefers-color-scheme: light) { :root { filter: none; } }
@media (prefers-color-scheme: dark) { :root { filter: none; } }
</style></svg></svg></g></g></svg></svg></g></g></svg>