<svg width="150" height="150" viewBox="0 0 150 150" fill="none" xmlns="http://www.w3.org/2000/svg">
<g clip-path="url(#clip0_2132_1182)">
<path d="M149.924 24.9873H124.937V49.9746H149.924V24.9873Z" fill="#FFF700"/>
<path d="M149.924 49.9746H124.937V74.9619H149.924V49.9746Z" fill="#FFF700"/>
<path d="M149.924 74.9619H124.937V99.9492H149.924V74.9619Z" fill="#FFF700"/>
<path d="M149.924 99.9492H124.937V124.936H149.924V99.9492Z" fill="#FFF700"/>
<path d="M124.936 0H99.9492V24.9873H124.936V0Z" fill="#FFF700"/>
<path d="M124.936 74.9619H99.9492V99.9492H124.936V74.9619Z" fill="#FFA200"/>
<path d="M124.936 99.9492H99.9492V124.936H124.936V99.9492Z" fill="#FFF700"/>
<path d="M124.936 124.936H99.9492V149.924H124.936V124.936Z" fill="#FFF700"/>
<path d="M99.9491 0H74.9619V24.9873H99.9491V0Z" fill="#FFF700"/>
<path d="M99.9491 74.9619H74.9619V99.9492H99.9491V74.9619Z" fill="black"/>
<path d="M99.9491 99.9492H74.9619V124.936H99.9491V99.9492Z" fill="#FFA200"/>
<path d="M99.9491 124.936H74.9619V149.924H99.9491V124.936Z" fill="#FFF700"/>
<path d="M74.9621 0H49.9748V24.9873H74.9621V0Z" fill="#FFF700"/>
<path d="M74.9621 24.9873H49.9748V49.9746H74.9621V24.9873Z" fill="#FFA200"/>
<path d="M74.9621 49.9746H49.9748V74.9619H74.9621V49.9746Z" fill="black"/>
<path d="M74.9621 74.9619H49.9748V99.9492H74.9621V74.9619Z" fill="black"/>
<path d="M74.9621 99.9492H49.9748V124.936H74.9621V99.9492Z" fill="#FFA200"/>
<path d="M74.9621 124.936H49.9748V149.924H74.9621V124.936Z" fill="#FFF700"/>
<path d="M49.9748 0H24.9875V24.9873H49.9748V0Z" fill="#FFF700"/>
<path d="M49.9748 24.9873H24.9875V49.9746H49.9748V24.9873Z" fill="#FFF700"/>
<path d="M49.9748 49.9746H24.9875V74.9619H49.9748V49.9746Z" fill="#FFA200"/>
<path d="M49.9748 74.9619H24.9875V99.9492H49.9748V74.9619Z" fill="#FFA200"/>
<path d="M49.9748 99.9492H24.9875V124.936H49.9748V99.9492Z" fill="#FFF700"/>
<path d="M49.9748 124.936H24.9875V149.924H49.9748V124.936Z" fill="#FFF700"/>
<path d="M24.9873 24.9873H0V49.9746H24.9873V24.9873Z" fill="#FFF700"/>
<path d="M24.9873 49.9746H0V74.9619H24.9873V49.9746Z" fill="#FFF700"/>
<path d="M24.9873 74.9619H0V99.9492H24.9873V74.9619Z" fill="#FFF700"/>
<path d="M24.9873 99.9492H0V124.936H24.9873V99.9492Z" fill="#FFF700"/>
<path d="M124.928 24.9836H74.9609V74.9511H124.928V24.9836Z" fill="#F6F6F6"/>
</g>
<defs>
<clipPath id="clip0_2132_1182">
<rect width="150" height="150" fill="white"/>
</clipPath>
</defs>
</svg>
