<?xml version="1.0" encoding="utf-8"?>
<!-- Generator: Adobe Illustrator 24.0.1, SVG Export Plug-In . SVG Version: 6.00 Build 0)  -->
<!DOCTYPE svg PUBLIC "-//W3C//DTD SVG 1.1//EN" "http://www.w3.org/Graphics/SVG/1.1/DTD/svg11.dtd" [
	<!ENTITY ns_extend "http://ns.adobe.com/Extensibility/1.0/">
	<!ENTITY ns_ai "http://ns.adobe.com/AdobeIllustrator/10.0/">
	<!ENTITY ns_graphs "http://ns.adobe.com/Graphs/1.0/">
	<!ENTITY ns_vars "http://ns.adobe.com/Variables/1.0/">
	<!ENTITY ns_imrep "http://ns.adobe.com/ImageReplacement/1.0/">
	<!ENTITY ns_sfw "http://ns.adobe.com/SaveForWeb/1.0/">
	<!ENTITY ns_custom "http://ns.adobe.com/GenericCustomNamespace/1.0/">
	<!ENTITY ns_adobe_xpath "http://ns.adobe.com/XPath/1.0/">
]>
<svg version="1.1" id="Livello_1" xmlns:x="&ns_extend;" xmlns:i="&ns_ai;" xmlns:graph="&ns_graphs;"
	 xmlns="http://www.w3.org/2000/svg" xmlns:xlink="http://www.w3.org/1999/xlink" x="0px" y="0px" viewBox="0 0 165.1699 30.416"
	 style="enable-background:new 0 0 165.1699 30.416;" xml:space="preserve">
<metadata>
	<sfw  xmlns="&ns_sfw;">
		<slices></slices>
		<sliceSourceBounds  bottomLeftOrigin="true" height="30.416" width="165.1699" x="600.2571" y="-398.9975"></sliceSourceBounds>
	</sfw>
</metadata>
<g>
	<g>
		<path style="fill:#00FF9E;" d="M5.7637,8.3721v12.999c0,0.6729,0.042,0.7568,0.4629,1.4307l4.417,7.1094v0.084H0v-0.084
			l4.375-7.1094c0.4209-0.6738,0.4629-0.7578,0.4629-1.4307V7.6143c0-0.6729,0-0.7988-0.2949-1.3037L1.1777,0.5049v-0.084h11.1904
			l8.4131,17.0801l7.0254-17.0801h9.7607v0.084L35.2539,4.165C34.959,4.5859,34.917,4.7119,34.917,5.3848v20.4033
			c0,0.5889,0.042,0.7158,0.3369,1.0938l2.3135,3.0293v0.084H22.8438v-0.084l2.3135-3.0293
			c0.2939-0.3779,0.3369-0.5049,0.3369-1.0938V10.6855c0-0.6309,0.041-1.5566,0.084-2.3975L16.4492,30.416h-0.084L6.4365,9.7598
			L5.7637,8.3721z"/>
		<path style="fill:#00FF9E;" d="M38.3691,29.9111l2.3135-3.0293c0.2939-0.3779,0.3369-0.5049,0.3369-1.0938V4.6279
			c0-0.5889-0.043-0.7148-0.3369-1.0938l-2.3135-3.0293v-0.084h14.7227v0.084l-2.3125,3.0293
			c-0.2949,0.3789-0.3359,0.5049-0.3359,1.0938v21.1602c0,0.5889,0.041,0.7158,0.3359,1.0938l2.3125,3.0293v0.084H38.3691V29.9111z"
			/>
		<path style="fill:#00FF9E;" d="M56.543,4.6279c0-0.5889-0.043-0.7148-0.3379-1.0938l-2.3125-3.0293v-0.084h14.7227v0.084
			l-2.3125,3.0293c-0.2949,0.3789-0.3359,0.5049-0.3359,1.0938v23.7266c0,0.7148,0.084,0.7568,0.7148,0.7568h2.4395
			c0.6309,0,0.7988-0.126,1.1348-0.6309l6.8574-10.2646h0.084v11.7793H53.8926v-0.084l2.3125-3.0293
			c0.2949-0.3779,0.3379-0.5049,0.3379-1.0938V4.6279z"/>
		<path style="fill:#00FF9E;" d="M83.1328,21.5811c-0.2109,0.6738-0.2109,0.7998,0.209,1.5146l3.8281,6.8154v0.084H76.9473v-0.084
			l4.418-6.8154c0.5469-0.8408,0.6309-1.0518,0.8828-1.8926l5.1328-16.1963c0.252-0.7998,0.252-0.8838-0.2109-1.4307l-2.5645-3.0713
			v-0.084h11.8633l7.3184,24.2734c0.2109,0.6729,0.4629,1.2197,0.7578,1.8096l1.7246,3.4072v0.084H92.6816v-0.084l1.4727-3.1553
			c0.2109-0.4629,0.252-0.6309,0.084-1.1357l-1.7676-5.9316h-8.75L83.1328,21.5811z M83.9727,18.8047h8.2051l-3.998-13.3359
			L83.9727,18.8047z"/>
		<path style="fill:#00FF9E;" d="M117.041,0.4209l13.9238,20.8662V9.0869c0-0.6729-0.041-0.7568-0.4629-1.4297l-4.459-7.1523v-0.084
			h10.6855v0.084l-4.375,7.1523c-0.4199,0.6729-0.4629,0.7568-0.4629,1.4297v20.9082h-6.3945L111.4883,9.0869v12.2422
			c0,0.6729,0.041,0.7568,0.4629,1.4307l4.459,7.1514v0.084h-10.6855v-0.084l4.375-7.1514
			c0.4199-0.6738,0.4629-0.7578,0.4629-1.4307V8.498c0-0.6729,0-0.7988-0.2949-1.3037l-4.5859-6.6895v-0.084H117.041z"/>
		<path style="fill:#00FF9E;" d="M165.1699,15.2295c0,10.3906-5.7637,15.1865-14.9766,15.1865s-14.9766-4.7959-14.9766-15.1865
			C135.2168,4.8379,140.9805,0,150.1934,0S165.1699,4.8379,165.1699,15.2295z M154.4414,15.1875
			c0-10.3076-1.1777-14.3457-4.248-14.3457s-4.248,4.0381-4.248,14.3457c0,10.3066,1.1777,14.3867,4.248,14.3867
			S154.4414,25.4941,154.4414,15.1875z"/>
	</g>
</g>
</svg>
