<?xml version="1.0" encoding="utf-8"?>
<!-- Generator: Adobe Illustrator 24.0.1, SVG Export Plug-In . SVG Version: 6.00 Build 0)  -->
<!DOCTYPE svg PUBLIC "-//W3C//DTD SVG 1.1//EN" "http://www.w3.org/Graphics/SVG/1.1/DTD/svg11.dtd" [
	<!ENTITY ns_extend "http://ns.adobe.com/Extensibility/1.0/">
	<!ENTITY ns_ai "http://ns.adobe.com/AdobeIllustrator/10.0/">
	<!ENTITY ns_graphs "http://ns.adobe.com/Graphs/1.0/">
	<!ENTITY ns_vars "http://ns.adobe.com/Variables/1.0/">
	<!ENTITY ns_imrep "http://ns.adobe.com/ImageReplacement/1.0/">
	<!ENTITY ns_sfw "http://ns.adobe.com/SaveForWeb/1.0/">
	<!ENTITY ns_custom "http://ns.adobe.com/GenericCustomNamespace/1.0/">
	<!ENTITY ns_adobe_xpath "http://ns.adobe.com/XPath/1.0/">
]>
<svg version="1.1" id="Livello_1" xmlns:x="&ns_extend;" xmlns:i="&ns_ai;" xmlns:graph="&ns_graphs;"
	 xmlns="http://www.w3.org/2000/svg" xmlns:xlink="http://www.w3.org/1999/xlink" x="0px" y="0px" viewBox="0 0 83.4688 28.564"
	 style="enable-background:new 0 0 83.4688 28.564;" xml:space="preserve">
<metadata>
	<sfw  xmlns="&ns_sfw;">
		<slices></slices>
		<sliceSourceBounds  bottomLeftOrigin="true" height="28.564" width="83.4688" x="623.9359" y="-372.2287"></sliceSourceBounds>
	</sfw>
</metadata>
<g>
	<path style="fill:#A3A2E9;" d="M24.5674,26.0815l1.6406,2.0615v0.084H13.7559v-0.084l1.5986-2.0615
		c0.2949-0.3789,0.3369-0.5049,0.3369-1.0518c0-0.8418,0.126-6.0991,0.126-8.2866c0-3.0713-0.3369-5.8057-2.9863-5.8057
		c-1.0938,0-1.7676,0.4629-2.3984,1.1777v12.9146c0,0.5469,0.042,0.6729,0.3369,1.0518l1.6406,2.0615v0.084H0v-0.084l1.5986-2.0615
		c0.2939-0.3789,0.3359-0.5049,0.3359-1.0518V10.4746c0-0.5469-0.042-0.6729-0.3359-1.0518L0,7.3193v-0.084h10.4326v4.249
		c1.0518-2.5664,3.2812-4.5859,6.9414-4.5859c4.543,0,6.9834,3.3242,6.9834,9.1289c0,2.9033-0.084,5.6792-0.126,9.0024
		C24.2314,25.5767,24.2734,25.7026,24.5674,26.0815z"/>
	<path style="fill:#A3A2E9;" d="M35.2129,17.248c0.1689,4.9214,2.9033,6.562,5.9746,6.562c2.2715,0,4.8799-1.0098,6.1836-3.2388
		l0.084,0.042c-1.1777,5.4683-4.7119,7.9507-9.9277,7.9507c-5.6797,0-11.1484-3.2393-11.1484-10.7271
		c0-7.6572,5.0059-10.9385,11.4844-10.9385c4.6699,0,9.8867,1.9355,9.8867,9.4658c0,0.2949,0,0.5049-0.042,0.8838H35.2129z
		 M35.2129,16.4482h4.7539c0.042-0.6729,0.042-1.3457,0.042-1.9346c0-5.9746-1.1357-6.7734-2.3135-6.7734
		C36.0967,7.7402,35.2129,9.2549,35.2129,16.4482z"/>
	<path style="fill:#A3A2E9;" d="M48.9707,11.0635L47.751,9.3809l-1.4727-2.0615v-0.084h12.2422v0.084l-1.0518,2.1455
		c-0.252,0.5469-0.252,0.6729,0.042,1.0938l2.6084,3.9551l1.7246-2.0615c0.5049-0.5889,0.5469-0.6738,0.2109-1.3047l-2.0615-3.8281
		v-0.084h8.918v0.084l-5.0479,4.375c-0.7568,0.6738-1.3887,1.3467-2.0615,2.1455l-1.2197,1.3887l6.1836,9.2964
		c0.3369,0.5049,0.7158,0.9678,1.0518,1.4307l1.5566,2.1875v0.084H57.1318v-0.084l1.0518-2.1455
		c0.2529-0.5469,0.2109-0.6729-0.042-1.0938l-2.8184-4.2485l-2.0195,2.355c-0.5049,0.5889-0.5469,0.6738-0.21,1.3047l2.0615,3.8281
		v0.084h-8.9189v-0.084l5.0488-4.375c0.7568-0.6738,1.3877-1.3467,2.0605-2.1455l1.4727-1.7241L48.9707,11.0635z"/>
	<path style="fill:#A3A2E9;" d="M70.2598,22.2114V8.1191h-1.9355V7.2354h1.6826c0.6738,0,0.9678,0,1.4307-0.4209L78.6729,0h0.085
		v7.2354h4.7109v0.8838h-4.7109v13.5874c0,1.8926,0.8408,2.9443,2.1025,2.9443c0.8838,0,1.5566-0.4199,2.0195-1.0098l0.084,0.043
		c-0.4199,2.3135-2.2715,4.8799-6.6885,4.8799C72.2363,28.564,70.2598,26.3335,70.2598,22.2114z"/>
</g>
</svg>
