<?xml version="1.0" encoding="utf-8"?>
<!-- Generator: Adobe Illustrator 24.0.1, SVG Export Plug-In . SVG Version: 6.00 Build 0)  -->
<!DOCTYPE svg PUBLIC "-//W3C//DTD SVG 1.1//EN" "http://www.w3.org/Graphics/SVG/1.1/DTD/svg11.dtd" [
	<!ENTITY ns_extend "http://ns.adobe.com/Extensibility/1.0/">
	<!ENTITY ns_ai "http://ns.adobe.com/AdobeIllustrator/10.0/">
	<!ENTITY ns_graphs "http://ns.adobe.com/Graphs/1.0/">
	<!ENTITY ns_vars "http://ns.adobe.com/Variables/1.0/">
	<!ENTITY ns_imrep "http://ns.adobe.com/ImageReplacement/1.0/">
	<!ENTITY ns_sfw "http://ns.adobe.com/SaveForWeb/1.0/">
	<!ENTITY ns_custom "http://ns.adobe.com/GenericCustomNamespace/1.0/">
	<!ENTITY ns_adobe_xpath "http://ns.adobe.com/XPath/1.0/">
]>
<svg version="1.1" id="Livello_1" xmlns:x="&ns_extend;" xmlns:i="&ns_ai;" xmlns:graph="&ns_graphs;"
	 xmlns="http://www.w3.org/2000/svg" xmlns:xlink="http://www.w3.org/1999/xlink" x="0px" y="0px" viewBox="0 0 315.3667 30.416"
	 style="enable-background:new 0 0 315.3667 30.416;" xml:space="preserve">
<metadata>
	<sfw  xmlns="&ns_sfw;">
		<slices></slices>
		<sliceSourceBounds  bottomLeftOrigin="true" height="30.416" width="315.3667" x="459.271" y="-348.4536"></sliceSourceBounds>
	</sfw>
</metadata>
<g>
	<g>
		<path style="fill:#00FF9E;" d="M29.9531,15.2295c0,10.3906-5.7637,15.1865-14.9766,15.1865S0,25.6201,0,15.2295
			C0,4.8379,5.7637,0,14.9766,0S29.9531,4.8379,29.9531,15.2295z M19.2256,15.1865c0-10.3066-1.1782-14.3447-4.249-14.3447
			s-4.249,4.0381-4.249,14.3447c0,10.3076,1.1782,14.3877,4.249,14.3877S19.2256,25.4941,19.2256,15.1865z"/>
		<path style="fill:#00FF9E;" d="M32.5635,29.2383V18.4268h0.0845l6.4785,10.3906c0.3364,0.5049,0.4629,0.5889,0.9673,0.6729
			c0.5049,0.084,0.9678,0.084,1.3887,0.084c3.2393,0,5.0479-1.8086,5.0479-4.375c0-2.7344-1.9771-3.8281-6.0576-5.7637
			c-4.165-1.9766-8.9604-4.333-8.9604-10.2227C31.5122,3.4502,36.0552,0,43.5015,0c2.0615,0,5.5112,0.2109,8.54,0.9258v10.1807
			H51.957l-6.6465-9.6338c-0.3364-0.4629-0.4629-0.5469-0.8833-0.5889c-0.2949-0.042-0.5894-0.042-0.8418-0.042
			c-2.5239,0-4.333,1.3877-4.333,3.9961s2.0195,3.7441,5.9736,5.5117c4.9224,2.2295,9.2134,4.375,9.2134,9.9697
			c0,6.1846-5.1748,10.0967-12.7891,10.0967C39.1265,30.416,35.2983,29.9531,32.5635,29.2383z"/>
		<path style="fill:#00FF9E;" d="M56.7964,29.2383V18.4268h0.0845l6.4785,10.3906c0.3364,0.5049,0.4629,0.5889,0.9673,0.6729
			c0.5049,0.084,0.9678,0.084,1.3887,0.084c3.2393,0,5.0479-1.8086,5.0479-4.375c0-2.7344-1.9771-3.8281-6.0576-5.7637
			c-4.165-1.9766-8.9604-4.333-8.9604-10.2227C55.7451,3.4502,60.2881,0,67.7344,0c2.0615,0,5.5112,0.2109,8.54,0.9258v10.1807
			h-0.0845l-6.6465-9.6338c-0.3364-0.4629-0.4629-0.5469-0.8838-0.5889c-0.2944-0.042-0.5889-0.042-0.8413-0.042
			c-2.5239,0-4.333,1.3877-4.333,3.9961s2.0195,3.7441,5.9736,5.5117c4.9224,2.2295,9.2134,4.375,9.2134,9.9697
			c0,6.1846-5.1748,10.0967-12.7891,10.0967C63.3594,30.416,59.5312,29.9531,56.7964,29.2383z"/>
		<path style="fill:#00FF9E;" d="M79.1372,29.9951v-0.084l2.314-3.0293c0.2944-0.3779,0.3364-0.5049,0.3364-1.0938V4.6279
			c0-0.5889-0.042-0.7148-0.3364-1.0938l-2.314-3.0293v-0.084h23.0957v10.8115h-0.084l-6.521-9.2969
			c-0.3364-0.5049-0.5044-0.6309-1.1357-0.6309h-2.5659c-0.6313,0-0.7153,0.042-0.7153,0.7568v12.8311h1.5146
			c0.5049,0,0.6309-0.042,1.0518-0.4629l4.459-4.7119h0.084v11.2324h-0.084l-4.459-4.7119
			c-0.4209-0.4199-0.5469-0.4619-1.0518-0.4619h-1.5146v12.5781c0,0.7148,0.084,0.7568,0.7153,0.7568h3.3652
			c0.6313,0,0.7993-0.126,1.1357-0.6309l6.0581-9.5918h0.084v11.1064H79.1372z"/>
		<path style="fill:#00FF9E;" d="M116.4116,15.9443v9.8438c0,0.5889,0.042,0.7158,0.3364,1.0938l2.314,3.0293v0.084h-14.7241v-0.084
			l2.314-3.0293c0.2944-0.3779,0.3364-0.5049,0.3364-1.0938V4.6279c0-0.5889-0.042-0.7148-0.3364-1.0938l-2.314-3.0293v-0.084
			h18.1738c5.0479,0,9.7598,1.7666,9.7598,7.3203c0,4.9639-3.8281,7.6562-10.5591,7.6982v0.084l7.8247,1.5146l0.042,0.042
			l2.3979,9.2129c0.168,0.7148,0.3784,0.9678,1.0098,1.7246l1.6406,1.8936v0.084h-11.6953l-3.2393-13.6299
			c-0.084-0.3789-0.168-0.4209-0.6729-0.4209H116.4116z M116.4116,15.0605h2.2295c2.3979,0,3.6602-2.0615,3.6602-6.7305
			c0-4.6279-1.2202-7.0254-3.6182-7.0254h-1.5562c-0.6313,0-0.7153,0.042-0.7153,0.7568V15.0605z"/>
		<path style="fill:#00FF9E;" d="M144.2632,4.7959l6.0996,20.2354l4.9224-16.1963c0.21-0.6738,0.21-0.7998-0.2104-1.5146
			l-3.8281-6.8154v-0.084h10.2227v0.084l-4.4175,6.8154c-0.5469,0.8408-0.6309,1.0518-0.8833,1.8926l-6.2681,20.7822h-7.7407
			l-7.4043-24.2734c-0.21-0.6729-0.4624-1.2197-0.7568-1.8086l-1.7251-3.4082v-0.084h13.5464v0.084l-1.4727,3.1553
			C144.1367,4.123,144.0947,4.291,144.2632,4.7959z"/>
		<path style="fill:#00FF9E;" d="M162.1016,21.5811c-0.2104,0.6738-0.2104,0.7998,0.2104,1.5146l3.8281,6.8154v0.084h-10.2227
			v-0.084l4.417-6.8154c0.5469-0.8408,0.6313-1.0518,0.8838-1.8926l5.1323-16.1963c0.2524-0.7998,0.2524-0.8838-0.2104-1.4307
			l-2.5664-3.0713v-0.084h11.8633l7.3203,24.2734c0.21,0.6729,0.4624,1.2197,0.7568,1.8096l1.7251,3.4072v0.084h-13.5884v-0.084
			l1.4727-3.1553c0.2104-0.4629,0.2524-0.6309,0.084-1.1357l-1.7666-5.9316h-8.7505L162.1016,21.5811z M162.9429,18.8047h8.2031
			l-3.9961-13.3359L162.9429,18.8047z"/>
		<path style="fill:#00FF9E;" d="M201.4795,26.5459l2.6924,3.3652v0.084h-15.5654v-0.084l2.6924-3.3652
			c0.3364-0.4209,0.3784-0.5049,0.3784-1.2207V1.3047h-1.0093c-0.6733,0-0.8413,0.084-1.1362,0.6309l-6.0156,10.8535h-0.084V0.4209
			h25.9141v12.3682h-0.084l-6.0161-10.8535c-0.2944-0.5469-0.4624-0.6309-1.1357-0.6309h-1.0098v24.0205
			C201.1006,26.041,201.1431,26.125,201.4795,26.5459z"/>
		<path style="fill:#00FF9E;" d="M240.1851,15.2295c0,10.3906-5.7637,15.1865-14.9766,15.1865
			c-9.2134,0-14.9771-4.7959-14.9771-15.1865C210.2314,4.8379,215.9951,0,225.2085,0C234.4214,0,240.1851,4.8379,240.1851,15.2295z
			 M229.4575,15.1865c0-10.3066-1.1787-14.3447-4.249-14.3447c-3.0713,0-4.2495,4.0381-4.2495,14.3447
			c0,10.3076,1.1782,14.3877,4.2495,14.3877C228.2788,29.5742,229.4575,25.4941,229.4575,15.1865z"/>
		<path style="fill:#00FF9E;" d="M252.4712,15.9443v9.8438c0,0.5889,0.042,0.7158,0.3359,1.0938l2.3145,3.0293v0.084H240.397v-0.084
			l2.3145-3.0293c0.2939-0.3779,0.3359-0.5049,0.3359-1.0938V4.6279c0-0.5889-0.042-0.7148-0.3359-1.0938l-2.3145-3.0293v-0.084
			h18.1738c5.0479,0,9.7598,1.7666,9.7598,7.3203c0,4.9639-3.8281,7.6562-10.5586,7.6982v0.084l7.8242,1.5146l0.042,0.042
			l2.3984,9.2129c0.168,0.7148,0.3779,0.9678,1.0098,1.7246l1.6406,1.8936v0.084h-11.6953l-3.2393-13.6299
			c-0.084-0.3789-0.168-0.4209-0.6729-0.4209H252.4712z M252.4712,15.0605h2.2295c2.3975,0,3.6602-2.0615,3.6602-6.7305
			c0-4.6279-1.2207-7.0254-3.6182-7.0254h-1.5566c-0.6309,0-0.7148,0.042-0.7148,0.7568V15.0605z"/>
		<path style="fill:#00FF9E;" d="M270.478,29.9111l2.3145-3.0293c0.2939-0.3779,0.3359-0.5049,0.3359-1.0938V4.6279
			c0-0.5889-0.042-0.7148-0.3359-1.0938l-2.3145-3.0293v-0.084h14.7246v0.084l-2.3145,3.0293
			c-0.2939,0.3789-0.3359,0.5049-0.3359,1.0938v21.1602c0,0.5889,0.042,0.7158,0.3359,1.0938l2.3145,3.0293v0.084H270.478V29.9111z"
			/>
		<path style="fill:#00FF9E;" d="M315.3667,15.2295c0,10.3906-5.7637,15.1865-14.9766,15.1865s-14.9766-4.7959-14.9766-15.1865
			C285.4136,4.8379,291.1772,0,300.3901,0S315.3667,4.8379,315.3667,15.2295z M304.6392,15.1865
			c0-10.3066-1.1787-14.3447-4.249-14.3447c-3.0713,0-4.249,4.0381-4.249,14.3447c0,10.3076,1.1777,14.3877,4.249,14.3877
			C303.4604,29.5742,304.6392,25.4941,304.6392,15.1865z"/>
	</g>
</g>
</svg>
