<?xml version="1.0" encoding="UTF-8" ?>
<svg version="1.1" width="55" height="12" xmlns="http://www.w3.org/2000/svg" shape-rendering="crispEdges">
<rect x="0" y="0" width="8" height="1" fill="#000000" opacity="0.000000" />
<rect x="26" y="0" width="3" height="2" fill="#000000" opacity="0.000000" />
<rect x="31" y="0" width="4" height="1" fill="#000000" opacity="0.000000" />
<rect x="0" y="1" width="2" height="1" fill="#000000" opacity="0.000000" />
<rect x="2" y="1" width="5" height="1" fill="#000000" />
<rect x="7" y="1" width="2" height="1" fill="#000000" opacity="0.000000" />
<rect x="30" y="1" width="2" height="1" fill="#000000" opacity="0.000000" />
<rect x="32" y="1" width="2" height="1" fill="#000000" />
<rect x="34" y="1" width="2" height="1" fill="#000000" opacity="0.000000" />
<rect x="0" y="2" width="1" height="10" fill="#000000" opacity="0.000000" />
<rect x="1" y="2" width="1" height="9" fill="#000000" />
<rect x="2" y="2" width="5" height="1" fill="#000000" opacity="0.000000" />
<rect x="7" y="2" width="1" height="3" fill="#000000" />
<rect x="8" y="2" width="1" height="10" fill="#000000" opacity="0.000000" />
<rect x="26" y="2" width="1" height="10" fill="#000000" opacity="0.000000" />
<rect x="27" y="2" width="1" height="9" fill="#000000" />
<rect x="28" y="2" width="1" height="10" fill="#000000" opacity="0.000000" />
<rect x="30" y="2" width="1" height="10" fill="#000000" opacity="0.000000" />
<rect x="31" y="2" width="1" height="9" fill="#000000" />
<rect x="32" y="2" width="2" height="2" fill="#000000" opacity="0.000000" />
<rect x="34" y="2" width="1" height="1" fill="#000000" />
<rect x="35" y="2" width="1" height="2" fill="#000000" opacity="0.000000" />
<rect x="2" y="3" width="1" height="2" fill="#000000" opacity="0.000000" />
<rect x="6" y="3" width="1" height="2" fill="#000000" opacity="0.000000" />
<rect x="9" y="3" width="4" height="1" fill="#000000" opacity="0.000000" />
<rect x="16" y="3" width="3" height="1" fill="#000000" opacity="0.000000" />
<rect x="20" y="3" width="6" height="1" fill="#000000" opacity="0.000000" />
<rect x="29" y="3" width="1" height="1" fill="#000000" opacity="0.000000" />
<rect x="34" y="3" width="1" height="9" fill="#000000" opacity="0.000000" />
<rect x="36" y="3" width="1" height="9" fill="#000000" opacity="0.000000" />
<rect x="38" y="3" width="9" height="1" fill="#000000" opacity="0.000000" />
<rect x="48" y="3" width="5" height="1" fill="#000000" opacity="0.000000" />
<rect x="3" y="4" width="3" height="1" fill="#000000" opacity="0.000000" />
<rect x="9" y="4" width="1" height="1" fill="#000000" />
<rect x="10" y="4" width="1" height="8" fill="#000000" opacity="0.000000" />
<rect x="11" y="4" width="1" height="1" fill="#000000" />
<rect x="12" y="4" width="2" height="1" fill="#000000" opacity="0.000000" />
<rect x="15" y="4" width="2" height="1" fill="#000000" opacity="0.000000" />
<rect x="17" y="4" width="1" height="1" fill="#000000" />
<rect x="18" y="4" width="3" height="1" fill="#000000" opacity="0.000000" />
<rect x="21" y="4" width="4" height="1" fill="#000000" />
<rect x="25" y="4" width="1" height="1" fill="#000000" opacity="0.000000" />
<rect x="29" y="4" width="1" height="1" fill="#000000" />
<rect x="32" y="4" width="2" height="1" fill="#000000" />
<rect x="35" y="4" width="1" height="1" fill="#000000" />
<rect x="37" y="4" width="2" height="1" fill="#000000" opacity="0.000000" />
<rect x="39" y="4" width="4" height="1" fill="#000000" />
<rect x="43" y="4" width="2" height="1" fill="#000000" opacity="0.000000" />
<rect x="45" y="4" width="1" height="1" fill="#000000" />
<rect x="46" y="4" width="3" height="1" fill="#000000" opacity="0.000000" />
<rect x="49" y="4" width="3" height="1" fill="#000000" />
<rect x="52" y="4" width="2" height="1" fill="#000000" opacity="0.000000" />
<rect x="2" y="5" width="5" height="1" fill="#000000" />
<rect x="7" y="5" width="1" height="2" fill="#000000" opacity="0.000000" />
<rect x="9" y="5" width="1" height="1" fill="#000000" opacity="0.000000" />
<rect x="11" y="5" width="1" height="2" fill="#000000" opacity="0.000000" />
<rect x="12" y="5" width="1" height="1" fill="#000000" />
<rect x="13" y="5" width="3" height="1" fill="#000000" opacity="0.000000" />
<rect x="16" y="5" width="1" height="1" fill="#000000" />
<rect x="17" y="5" width="3" height="1" fill="#000000" opacity="0.000000" />
<rect x="20" y="5" width="1" height="1" fill="#000000" />
<rect x="21" y="5" width="4" height="2" fill="#000000" opacity="0.000000" />
<rect x="25" y="5" width="1" height="2" fill="#000000" />
<rect x="29" y="5" width="1" height="1" fill="#000000" opacity="0.000000" />
<rect x="32" y="5" width="2" height="1" fill="#000000" opacity="0.000000" />
<rect x="35" y="5" width="1" height="1" fill="#000000" opacity="0.000000" />
<rect x="37" y="5" width="1" height="1" fill="#000000" opacity="0.000000" />
<rect x="38" y="5" width="1" height="1" fill="#000000" />
<rect x="39" y="5" width="4" height="1" fill="#000000" opacity="0.000000" />
<rect x="43" y="5" width="1" height="1" fill="#000000" />
<rect x="44" y="5" width="4" height="1" fill="#000000" opacity="0.000000" />
<rect x="48" y="5" width="1" height="1" fill="#000000" />
<rect x="49" y="5" width="3" height="1" fill="#000000" opacity="0.000000" />
<rect x="52" y="5" width="1" height="1" fill="#000000" />
<rect x="53" y="5" width="2" height="1" fill="#000000" opacity="0.000000" />
<rect x="2" y="6" width="5" height="1" fill="#000000" opacity="0.000000" />
<rect x="9" y="6" width="1" height="5" fill="#000000" />
<rect x="12" y="6" width="1" height="3" fill="#000000" opacity="0.000000" />
<rect x="13" y="6" width="1" height="1" fill="#000000" />
<rect x="14" y="6" width="1" height="1" fill="#000000" opacity="0.000000" />
<rect x="15" y="6" width="1" height="1" fill="#000000" />
<rect x="16" y="6" width="3" height="1" fill="#000000" opacity="0.000000" />
<rect x="19" y="6" width="1" height="3" fill="#000000" />
<rect x="20" y="6" width="1" height="1" fill="#000000" opacity="0.000000" />
<rect x="29" y="6" width="1" height="5" fill="#000000" />
<rect x="32" y="6" width="1" height="6" fill="#000000" opacity="0.000000" />
<rect x="35" y="6" width="1" height="5" fill="#000000" />
<rect x="37" y="6" width="1" height="3" fill="#000000" />
<rect x="38" y="6" width="2" height="1" fill="#000000" opacity="0.000000" />
<rect x="42" y="6" width="3" height="1" fill="#000000" opacity="0.000000" />
<rect x="45" y="6" width="1" height="5" fill="#000000" />
<rect x="46" y="6" width="1" height="6" fill="#000000" opacity="0.000000" />
<rect x="47" y="6" width="1" height="3" fill="#000000" />
<rect x="48" y="6" width="2" height="1" fill="#000000" opacity="0.000000" />
<rect x="51" y="6" width="2" height="1" fill="#000000" opacity="0.000000" />
<rect x="53" y="6" width="1" height="3" fill="#000000" />
<rect x="54" y="6" width="1" height="4" fill="#000000" opacity="0.000000" />
<rect x="2" y="7" width="1" height="5" fill="#000000" opacity="0.000000" />
<rect x="13" y="7" width="1" height="1" fill="#000000" opacity="0.000000" />
<rect x="14" y="7" width="1" height="1" fill="#000000" />
<rect x="15" y="7" width="2" height="1" fill="#000000" opacity="0.000000" />
<rect x="18" y="7" width="1" height="5" fill="#000000" opacity="0.000000" />
<rect x="20" y="7" width="5" height="1" fill="#000000" />
<rect x="25" y="7" width="1" height="2" fill="#000000" opacity="0.000000" />
<rect x="38" y="7" width="1" height="2" fill="#000000" opacity="0.000000" />
<rect x="44" y="7" width="1" height="5" fill="#000000" opacity="0.000000" />
<rect x="48" y="7" width="1" height="2" fill="#000000" opacity="0.000000" />
<rect x="52" y="7" width="1" height="2" fill="#000000" opacity="0.000000" />
<rect x="11" y="8" width="1" height="2" fill="#000000" opacity="0.000000" />
<rect x="13" y="8" width="1" height="1" fill="#000000" />
<rect x="14" y="8" width="1" height="2" fill="#000000" opacity="0.000000" />
<rect x="15" y="8" width="1" height="1" fill="#000000" />
<rect x="16" y="8" width="2" height="1" fill="#000000" opacity="0.000000" />
<rect x="20" y="8" width="5" height="1" fill="#000000" opacity="0.000000" />
<rect x="39" y="8" width="1" height="2" fill="#000000" opacity="0.000000" />
<rect x="42" y="8" width="2" height="1" fill="#000000" opacity="0.000000" />
<rect x="49" y="8" width="1" height="2" fill="#000000" opacity="0.000000" />
<rect x="51" y="8" width="1" height="2" fill="#000000" opacity="0.000000" />
<rect x="12" y="9" width="1" height="1" fill="#000000" />
<rect x="13" y="9" width="1" height="2" fill="#000000" opacity="0.000000" />
<rect x="15" y="9" width="1" height="2" fill="#000000" opacity="0.000000" />
<rect x="16" y="9" width="1" height="1" fill="#000000" />
<rect x="17" y="9" width="1" height="1" fill="#000000" opacity="0.000000" />
<rect x="19" y="9" width="1" height="2" fill="#000000" opacity="0.000000" />
<rect x="20" y="9" width="1" height="1" fill="#000000" />
<rect x="21" y="9" width="4" height="1" fill="#000000" opacity="0.000000" />
<rect x="25" y="9" width="1" height="1" fill="#000000" />
<rect x="37" y="9" width="1" height="2" fill="#000000" opacity="0.000000" />
<rect x="38" y="9" width="1" height="1" fill="#000000" />
<rect x="40" y="9" width="3" height="1" fill="#000000" opacity="0.000000" />
<rect x="43" y="9" width="1" height="1" fill="#000000" />
<rect x="47" y="9" width="1" height="2" fill="#000000" opacity="0.000000" />
<rect x="48" y="9" width="1" height="1" fill="#000000" />
<rect x="50" y="9" width="1" height="1" fill="#000000" opacity="0.000000" />
<rect x="52" y="9" width="1" height="1" fill="#000000" />
<rect x="53" y="9" width="1" height="2" fill="#000000" opacity="0.000000" />
<rect x="11" y="10" width="1" height="1" fill="#000000" />
<rect x="12" y="10" width="1" height="2" fill="#000000" opacity="0.000000" />
<rect x="16" y="10" width="1" height="2" fill="#000000" opacity="0.000000" />
<rect x="17" y="10" width="1" height="1" fill="#000000" />
<rect x="20" y="10" width="1" height="2" fill="#000000" opacity="0.000000" />
<rect x="21" y="10" width="4" height="1" fill="#000000" />
<rect x="25" y="10" width="1" height="2" fill="#000000" opacity="0.000000" />
<rect x="38" y="10" width="1" height="2" fill="#000000" opacity="0.000000" />
<rect x="39" y="10" width="4" height="1" fill="#000000" />
<rect x="43" y="10" width="1" height="2" fill="#000000" opacity="0.000000" />
<rect x="48" y="10" width="1" height="2" fill="#000000" opacity="0.000000" />
<rect x="49" y="10" width="3" height="1" fill="#000000" />
<rect x="52" y="10" width="1" height="2" fill="#000000" opacity="0.000000" />
<rect x="1" y="11" width="1" height="1" fill="#000000" opacity="0.000000" />
<rect x="9" y="11" width="1" height="1" fill="#000000" opacity="0.000000" />
<rect x="11" y="11" width="1" height="1" fill="#000000" opacity="0.000000" />
<rect x="17" y="11" width="1" height="1" fill="#000000" opacity="0.000000" />
<rect x="21" y="11" width="4" height="1" fill="#000000" opacity="0.000000" />
<rect x="27" y="11" width="1" height="1" fill="#000000" opacity="0.000000" />
<rect x="29" y="11" width="1" height="1" fill="#000000" opacity="0.000000" />
<rect x="31" y="11" width="1" height="1" fill="#000000" opacity="0.000000" />
<rect x="35" y="11" width="1" height="1" fill="#000000" opacity="0.000000" />
<rect x="39" y="11" width="4" height="1" fill="#000000" opacity="0.000000" />
<rect x="45" y="11" width="1" height="1" fill="#000000" opacity="0.000000" />
<rect x="49" y="11" width="3" height="1" fill="#000000" opacity="0.000000" />
</svg>