<?xml version="1.0" encoding="utf-8"?>
<!-- Generator: Adobe Illustrator 24.0.1, SVG Export Plug-In . SVG Version: 6.00 Build 0)  -->
<!DOCTYPE svg PUBLIC "-//W3C//DTD SVG 1.1//EN" "http://www.w3.org/Graphics/SVG/1.1/DTD/svg11.dtd" [
	<!ENTITY ns_extend "http://ns.adobe.com/Extensibility/1.0/">
	<!ENTITY ns_ai "http://ns.adobe.com/AdobeIllustrator/10.0/">
	<!ENTITY ns_graphs "http://ns.adobe.com/Graphs/1.0/">
	<!ENTITY ns_vars "http://ns.adobe.com/Variables/1.0/">
	<!ENTITY ns_imrep "http://ns.adobe.com/ImageReplacement/1.0/">
	<!ENTITY ns_sfw "http://ns.adobe.com/SaveForWeb/1.0/">
	<!ENTITY ns_custom "http://ns.adobe.com/GenericCustomNamespace/1.0/">
	<!ENTITY ns_adobe_xpath "http://ns.adobe.com/XPath/1.0/">
]>
<svg version="1.1" id="Livello_1" xmlns:x="&ns_extend;" xmlns:i="&ns_ai;" xmlns:graph="&ns_graphs;"
	 xmlns="http://www.w3.org/2000/svg" xmlns:xlink="http://www.w3.org/1999/xlink" x="0px" y="0px" viewBox="0 0 90.1157 31.2563"
	 style="enable-background:new 0 0 90.1157 31.2563;" xml:space="preserve">
<metadata>
	<sfw  xmlns="&ns_sfw;">
		<slices></slices>
		<sliceSourceBounds  bottomLeftOrigin="true" height="31.2563" width="90.1157" x="563.0464" y="-381.299"></sliceSourceBounds>
	</sfw>
</metadata>
<g>
	<path style="fill:#6564DB;" d="M0.6313,30.8364l1.6406-7.9512h0.084l5.1323,4.0801c0.2104,0.1689,0.3784,0.2529,0.5049,0.2529
		c0.2524,0,0.3784-0.126,0.6729-0.5469c0.3369-0.5049,0.7153-1.1357,1.0518-1.8086l0.0845-0.1689L1.7251,4.165
		C1.5566,3.7021,1.3462,3.1973,1.1362,2.7773L0,0.4209v-0.084h12.3262v0.084L10.854,2.9033
		c-0.2104,0.3359-0.2524,0.5049-0.0845,0.9678l3.7861,11.021l2.8188-6.3101c0.3364-0.7568,0.3364-0.9248,0.042-1.6826
		l-2.5664-6.4785v-0.084h7.5728v0.084L19.478,6.1426c-0.5469,1.0938-0.8418,1.7246-1.2202,2.6084l-4.375,9.8433
		c-1.1357,2.6084-2.7764,5.7637-4.4595,8.4141c-1.9771,3.1123-3.7017,4.248-6.6465,4.248
		C2.1455,31.2563,1.4307,31.1304,0.6313,30.8364z"/>
	<path style="fill:#6564DB;" d="M20.9946,10.7695C20.9946,3.5762,25.8745,0,33.0679,0s12.0732,3.4922,12.0732,10.8965
		c0,7.1929-4.8799,10.769-12.0732,10.769S20.9946,18.1733,20.9946,10.7695z M30.4175,10.7695
		c0,8.6235,0.9678,10.0542,2.6504,10.0542c1.6831,0,2.6504-1.3037,2.6504-9.9272c0-8.624-0.9673-10.0547-2.6504-10.0547
		C31.3853,0.8418,30.4175,2.1455,30.4175,10.7695z"/>
	<path style="fill:#6564DB;" d="M46.9517,12.7471c0-2.9863,0.042-5.8057,0.127-9.2129c0-0.5469-0.042-0.6729-0.3369-1.0518
		l-1.6406-2.0615v-0.084h10.3906v11.6953c0,2.9858,0.2529,5.5942,2.5244,5.5942c1.0938,0,1.7666-0.5049,2.3975-1.1777V3.5762
		c0-0.5469-0.042-0.6729-0.3359-1.0518L58.479,0.4209v-0.084h10.4746v17.7944c0,0.5469,0.042,0.6729,0.3369,1.0518l1.6406,2.0615
		v0.084H60.4136v-4.207c-1.0518,2.5664-3.5332,4.5439-6.6045,4.5439C49.2661,21.6655,46.9517,18.4263,46.9517,12.7471z"/>
	<path style="fill:#6564DB;" d="M81.9966,17.3745c0,0.5049,0.084,0.6729,0.7148,1.1357l3.9131,2.7344v0.084H71.564v-0.084
		l1.5986-2.0615c0.2939-0.3789,0.3359-0.5049,0.3359-1.0518V3.5762c0-0.5469-0.042-0.6729-0.3359-1.0518L71.564,0.4209v-0.084
		h10.4326v4.7959C82.7964,2.0195,84.3521,0,86.7505,0c1.5146,0,2.6504,0.7578,3.3652,1.8936L87.6343,8.709h-0.085l-3.9961-3.5762
		c-0.3369-0.2949-0.4209-0.3369-0.5889-0.3369c-0.3369,0-0.4629,0.2109-0.9678,0.9678V17.3745z"/>
</g>
</svg>
