<svg width="103" height="154" viewBox="0 0 103 154" fill="none" xmlns="http://www.w3.org/2000/svg">
<path d="M29.133 109.801L17.7763 117.287C17.7763 117.287 16.529 117.831 16.2017 119.425C15.9373 120.714 17.0068 122.181 17.3758 122.309C17.7449 122.436 34.4163 127.223 34.4163 127.223C34.4163 127.223 35.9592 127.626 36.9712 127.264C37.9832 126.901 38.8302 126.561 39.5522 124.973C40.2741 123.386 45.3836 112.603 45.3836 112.603C45.3836 112.603 45.8197 111.728 45.5185 111.03C45.2173 110.333 44.9068 109.908 43.7842 109.933C42.6614 109.959 31.1626 109.506 31.1626 109.506C31.1626 109.506 29.563 109.502 29.133 109.801Z" fill="#868686"/>
<path d="M28.9658 109.263L17.6092 116.749C17.6092 116.749 16.0566 117.679 16.0864 119.427C16.1087 120.742 16.8397 121.643 17.2087 121.771C17.5777 121.898 34.2493 126.685 34.2493 126.685C34.2493 126.685 35.7919 127.088 36.8039 126.725C37.8159 126.363 38.6631 126.023 39.385 124.435C40.1071 122.847 45.2164 112.065 45.2164 112.065C45.2164 112.065 45.6526 111.19 45.3515 110.492C45.0503 109.795 44.7398 109.37 43.617 109.395C42.4944 109.421 30.9954 108.968 30.9954 108.968C30.9954 108.968 29.3958 108.964 28.9658 109.263Z" fill="#D4D4D4"/>
<path d="M17.8314 118.392L34.4916 122.477C34.4916 122.477 37.7424 123.338 38.7999 121.447C39.8577 119.556 44.8574 110.125 44.8574 110.125C44.8574 110.125 44.7947 109.436 44.1443 109.418C43.3825 109.397 30.5594 108.915 30.5594 108.915C30.5594 108.915 29.2497 108.806 27.5504 110.034L17.4681 116.851C17.4681 116.851 15.7044 117.87 17.8314 118.392Z" fill="white"/>
<path d="M21.2437 115.08L18.351 117.107C18.351 117.107 17.9676 117.388 17.9886 117.587C18.0097 117.786 18.2696 117.94 19.0737 118.103C19.8779 118.267 34.9302 121.728 34.9302 121.728C34.9302 121.728 36.4224 121.997 37.0224 121.749C37.6225 121.501 37.6102 121.59 38.4653 120.385C39.4451 119.004 39.8953 118.091 39.8953 118.091C39.8953 118.091 40.0225 117.846 39.8411 117.529C39.6966 117.277 39.0629 117.253 38.7607 117.192C38.1211 117.063 22.7456 114.904 22.7456 114.904C22.7456 114.904 21.7733 114.653 21.2437 115.08Z" fill="#9B9B9B"/>
<path d="M28.5347 113.333C28.9735 113.052 29.5754 113.086 29.8795 113.408C30.1836 113.73 30.0742 114.219 29.6357 114.5C29.1969 114.781 28.5948 114.748 28.2909 114.426C27.9868 114.103 28.0959 113.614 28.5347 113.333Z" fill="#868686"/>
<path d="M24.793 113.191C25.1603 112.956 25.6643 112.984 25.9188 113.253C26.1734 113.523 26.0819 113.933 25.7146 114.168C25.3474 114.403 24.8433 114.375 24.5889 114.105C24.3345 113.836 24.4258 113.426 24.793 113.191Z" fill="#868686"/>
<path d="M33.0899 114.094C33.5286 113.813 34.1306 113.846 34.4347 114.169C34.7387 114.491 34.6294 114.98 34.1909 115.261C33.7521 115.542 33.15 115.509 32.8461 115.186C32.542 114.864 32.6511 114.375 33.0899 114.094Z" fill="#868686"/>
<path d="M38.1646 114.651C38.6034 114.37 39.2053 114.403 39.5094 114.725C39.8134 115.048 39.7041 115.537 39.2656 115.818C38.8268 116.099 38.2247 116.065 37.9208 115.743C37.6167 115.421 37.7258 114.932 38.1646 114.651Z" fill="#868686"/>
<path d="M39.5694 112.831C39.9631 112.579 40.5035 112.609 40.7764 112.898C41.0493 113.188 40.9514 113.627 40.5575 113.879C40.1636 114.131 39.6232 114.101 39.3503 113.812C39.0774 113.523 39.1755 113.084 39.5694 112.831Z" fill="#868686"/>
<path d="M34.4667 112.664C34.8605 112.412 35.4009 112.442 35.6738 112.731C35.9468 113.021 35.8486 113.46 35.455 113.712C35.0611 113.964 34.5207 113.934 34.2478 113.645C33.9749 113.356 34.073 112.917 34.4667 112.664Z" fill="#868686"/>
<path d="M31.6918 110.68C32.0852 110.453 32.6256 110.481 32.899 110.742C33.1723 111.003 33.075 111.398 32.6818 111.625C32.2883 111.852 31.7479 111.824 31.4746 111.562C31.201 111.301 31.2985 110.906 31.6918 110.68Z" fill="#868686"/>
<path d="M28.1243 110.469C28.4537 110.279 28.9062 110.303 29.135 110.521C29.3637 110.74 29.2824 111.071 28.9529 111.26C28.6237 111.45 28.1712 111.427 27.9424 111.208C27.7136 110.989 27.795 110.659 28.1243 110.469Z" fill="#868686"/>
<path d="M30.3383 111.885C30.7322 111.633 31.2726 111.663 31.5455 111.952C31.8184 112.241 31.7203 112.68 31.3264 112.933C30.9327 113.185 30.3923 113.155 30.1194 112.866C29.8465 112.576 29.9444 112.137 30.3383 111.885Z" fill="#868686"/>
<path d="M26.446 111.69C26.7756 111.479 27.2281 111.504 27.4565 111.746C27.6849 111.988 27.6029 112.356 27.2732 112.567C26.9436 112.778 26.4911 112.753 26.2626 112.511C26.0342 112.269 26.1163 111.902 26.446 111.69Z" fill="#868686"/>
<path d="M40.6631 111.292C41.0563 111.065 41.5969 111.093 41.8703 111.354C42.1436 111.616 42.0463 112.011 41.6528 112.237C41.2594 112.464 40.719 112.436 40.4457 112.175C40.1723 111.913 40.2696 111.518 40.6631 111.292Z" fill="#868686"/>
<path d="M35.7553 111.31C36.1487 111.084 36.6891 111.112 36.9624 111.373C37.236 111.634 37.1385 112.03 36.7452 112.256C36.3518 112.482 35.8114 112.454 35.5381 112.193C35.2645 111.932 35.362 111.537 35.7553 111.31Z" fill="#868686"/>
<path d="M37.0087 109.881C37.4026 109.629 37.943 109.659 38.2159 109.948C38.4888 110.237 38.3907 110.676 37.9968 110.929C37.6032 111.181 37.0628 111.151 36.7898 110.862C36.5169 110.573 36.6148 110.134 37.0087 109.881Z" fill="#868686"/>
<path d="M28.4604 113.185C28.8992 112.904 29.5013 112.937 29.8052 113.26C30.1093 113.582 30.0002 114.071 29.5614 114.352C29.1226 114.633 28.5205 114.6 28.2166 114.277C27.9125 113.955 28.0219 113.466 28.4604 113.185Z" fill="white"/>
<path d="M24.7188 113.042C25.086 112.807 25.5901 112.835 25.8447 113.105C26.0991 113.375 26.0076 113.784 25.6404 114.02C25.2731 114.255 24.7693 114.227 24.5147 113.957C24.2603 113.687 24.3517 113.278 24.7188 113.042Z" fill="white"/>
<path d="M33.0156 113.946C33.4544 113.665 34.0565 113.698 34.3604 114.02C34.6645 114.343 34.5553 114.832 34.1166 115.113C33.6778 115.394 33.0757 115.36 32.7718 115.038C32.4677 114.716 32.577 114.227 33.0156 113.946Z" fill="white"/>
<path d="M38.0904 114.502C38.5291 114.221 39.1313 114.255 39.4351 114.577C39.7392 114.899 39.6299 115.388 39.1913 115.669C38.7526 115.95 38.1504 115.917 37.8466 115.595C37.5425 115.272 37.6516 114.783 38.0904 114.502Z" fill="white"/>
<path d="M39.4951 112.683C39.8888 112.431 40.4294 112.461 40.7023 112.75C40.975 113.039 40.8771 113.478 40.4832 113.731C40.0895 113.983 39.5489 113.953 39.276 113.663C39.0033 113.374 39.1012 112.935 39.4951 112.683Z" fill="white"/>
<path d="M34.3926 112.516C34.7863 112.264 35.3267 112.294 35.5996 112.583C35.8725 112.872 35.7746 113.311 35.3807 113.564C34.9869 113.816 34.4465 113.786 34.1736 113.496C33.9007 113.207 33.9988 112.768 34.3926 112.516Z" fill="white"/>
<path d="M31.6175 110.531C32.0109 110.305 32.5515 110.333 32.8249 110.594C33.0982 110.855 33.0009 111.25 32.6074 111.477C32.214 111.703 31.6736 111.675 31.4003 111.414C31.1269 111.153 31.2242 110.757 31.6175 110.531Z" fill="white"/>
<path d="M28.0502 110.321C28.3795 110.131 28.832 110.154 29.0608 110.373C29.2896 110.592 29.2082 110.922 28.8787 111.112C28.5495 111.302 28.097 111.278 27.8682 111.06C27.6393 110.841 27.7208 110.51 28.0502 110.321Z" fill="white"/>
<path d="M30.264 111.737C30.6579 111.484 31.1983 111.514 31.4712 111.804C31.7441 112.093 31.646 112.532 31.2523 112.784C30.8585 113.037 30.3181 113.006 30.0452 112.717C29.7723 112.428 29.8704 111.989 30.264 111.737Z" fill="white"/>
<path d="M26.3716 111.542C26.7013 111.331 27.1537 111.356 27.3822 111.598C27.6106 111.84 27.5285 112.207 27.1988 112.419C26.8692 112.63 26.4169 112.605 26.1885 112.363C25.9601 112.121 26.042 111.753 26.3716 111.542Z" fill="white"/>
<path d="M40.5889 111.143C40.9821 110.917 41.5227 110.945 41.796 111.206C42.0694 111.467 41.9721 111.862 41.5786 112.089C41.1854 112.315 40.6448 112.287 40.3714 112.026C40.0981 111.765 40.1954 111.37 40.5889 111.143Z" fill="white"/>
<path d="M35.6811 111.162C36.0744 110.935 36.615 110.963 36.8883 111.224C37.1616 111.486 37.0644 111.881 36.6709 112.107C36.2775 112.334 35.7371 112.306 35.4637 112.045C35.1904 111.784 35.2877 111.388 35.6811 111.162Z" fill="white"/>
<path d="M36.9344 109.733C37.3283 109.48 37.8687 109.51 38.1416 109.8C38.4145 110.089 38.3164 110.528 37.9228 110.78C37.5289 111.033 36.9885 111.003 36.7156 110.713C36.4427 110.424 36.5408 109.985 36.9344 109.733Z" fill="white"/>
<path d="M4.13786 8.29939C4.11699 9.53149 4.38229 10.809 4.97534 11.9843C5.15268 12.3357 5.44813 12.4684 5.69318 12.7397C6.13482 13.2287 6.36065 13.852 6.73729 14.3819C7.0926 14.8818 7.94281 15.6596 8.11066 16.2751C8.54053 17.8514 8.44819 18.6557 8.95201 20.375C9.02127 20.6112 9.73181 20.3235 10.0963 20.5939C10.4464 20.8536 10.0502 21.3397 10.2785 21.3922C10.3741 21.4141 10.7608 21.4454 11.1069 21.4416C11.4529 21.4378 11.4731 21.6166 11.5806 21.6496C11.804 21.7181 12.1583 21.926 12.3247 22.0211C12.491 22.1162 12.4053 22.0365 13.0739 22.4498C13.4905 22.7073 13.4018 22.8475 13.3681 22.8579C12.6477 23.0805 12.448 23.036 11.7621 23.3812C11.5127 23.5068 11.4112 23.7842 11.2401 23.989C11.0029 24.2723 10.3198 24.715 9.95666 24.8592C8.90562 25.2768 7.31988 25.0914 6.47627 25.9103C5.10192 27.2443 6.21066 28.0166 5.88894 29.4739C5.80262 29.8648 5.45287 30.2163 5.30162 30.5742C4.99795 31.2925 5.35657 32.035 5.21461 32.7583C5.13619 33.158 4.85051 33.7059 4.93184 34.1049C5.09099 34.886 5.78692 35.3501 5.93246 36.0919C6.0581 36.7323 5.36682 37.1216 5.12761 37.6356C4.76641 38.4117 4.51001 39.5437 4.6708 40.3782C4.81883 41.1464 5.70096 41.9682 6.2805 42.4473C6.47594 42.609 6.91013 42.8724 6.95482 43.1536C7.02071 43.568 6.85859 44.9007 7.02006 45.0749C7.2312 45.3025 8.07676 45.6887 8.10769 46.0273C8.14371 46.4216 7.88598 46.8616 7.86842 47.259C7.84416 47.8085 8.38606 47.9052 8.43399 48.3758C8.4824 48.8509 8.30101 49.345 8.47749 49.8209C8.5625 50.0502 8.92659 50.1371 9.10831 50.2807C9.27062 50.4091 10.6662 51.9861 10.6745 52.0707C10.6999 52.3292 10.4829 52.5755 10.5222 52.8426C10.5678 53.1523 11.2307 53.5767 11.1531 53.8771C11.05 54.2757 10.6833 54.5879 10.6745 55.0267C10.6564 55.9292 11.2159 56.7524 11.2618 57.6543C11.3482 59.3491 10.9549 60.8753 10.6962 62.5152C10.4815 63.8769 10.7628 65.4972 10.805 66.8672C10.8137 67.1475 10.9029 67.6742 11.0443 67.918C11.327 68.4059 12.2154 69.0333 12.0014 69.708C11.6629 70.7755 10.992 71.679 10.7833 72.7954C10.5626 73.9753 10.5435 75.1069 10.0002 76.2112C9.61401 76.9962 8.79085 77.4869 8.41223 78.2969C8.13957 78.8801 8.35245 79.9375 8.73853 80.4317C8.75229 80.4494 9.31379 80.9227 9.21708 81.0885C9.11097 81.2706 8.85675 81.2795 8.69501 81.3679C8.22855 81.6221 7.66516 81.9868 7.36813 82.4352C7.1386 82.7819 6.71428 83.3356 6.69378 83.8147C6.65949 84.6176 7.3054 85.1831 7.04183 85.9989C6.93661 86.3246 6.67408 86.625 6.56328 86.9513C6.44879 87.2884 6.48508 87.5526 6.48508 87.5526C6.48508 87.5526 32.3067 91.4786 32.3038 91.4458C32.272 91.0997 32.0122 90.9343 31.818 90.7121C31.3784 90.2089 30.9814 89.5184 30.6867 88.9219C30.3251 88.1897 30.5194 87.5208 30.3822 86.7707C30.2987 86.313 29.8848 85.9915 29.8167 85.539C29.735 84.9959 29.8888 84.2561 29.708 83.749C29.4184 82.9371 28.2106 82.5669 28.0329 81.762C27.8346 80.8634 28.3985 79.6754 28.7508 78.8552C28.8645 78.5908 29.0861 78.1182 29.0119 77.8041C28.8601 77.1631 27.8363 76.4562 27.3368 76.0634C27.2481 75.9938 26.7696 75.7955 26.8149 75.6365C26.9346 75.2145 27.6376 75.231 27.7721 74.8976C27.9897 74.3574 26.7282 73.1726 26.7713 72.4998C26.8226 71.7017 27.3838 70.9431 27.2934 70.1516C27.1949 69.2892 26.7095 68.5316 26.6844 67.6389C26.6682 67.0638 27.0988 66.6689 27.076 66.0952C27.0438 65.2956 26.6846 64.5326 26.5973 63.7305C26.3514 61.4727 26.2433 59.1007 26.6407 56.8495C26.949 55.105 27.3803 53.3766 27.7068 51.6273C27.9356 50.3998 28.1695 49.0116 28.7508 47.8832C29.3016 46.8138 29.9407 45.7939 30.404 44.6808C30.4585 44.5499 30.949 44.186 30.9261 44.0731C30.8754 43.8245 30.2026 43.7626 30.3606 43.5641C30.5541 43.3205 31.1184 43.3805 31.2741 43.0551C31.4734 42.6385 31.4934 42.0923 31.2523 41.692C31.2084 41.619 30.8206 41.3191 30.8391 41.232C30.9436 40.7386 31.8139 40.8221 32.0354 40.3946C32.2269 40.0253 31.8224 39.3078 31.7528 38.9659C31.6632 38.5265 32.2747 38.4173 32.2747 38.079C32.2747 37.8772 32.1354 37.6895 32.1441 37.4879C32.1595 37.1389 32.2514 37.2813 32.4052 36.8803C32.5174 36.5879 32.4131 36.216 32.5141 35.9113C32.5752 35.7263 32.7377 35.5434 32.775 35.353C32.8689 34.8748 32.687 34.2936 32.6663 33.8258C32.638 33.1833 32.5546 33.0759 32.5546 32.4184C32.5546 32.407 32.221 31.8797 32.246 31.8232C32.501 31.2453 32.0999 30.9862 32.0049 30.2924C31.988 30.1699 31.9764 29.1184 31.5094 28.4837C31.0423 27.8487 30.5986 27.9917 30.2658 27.7323C29.8354 27.3968 29.858 27.2256 29.2729 26.994C28.9227 26.8556 28.9441 26.5116 28.5613 26.2109C28.0477 25.8074 27.9984 25.1394 27.4222 24.8172C27.2861 24.7412 26.6937 24.7838 26.7266 24.5186C26.7831 24.0642 27.2477 24.4504 27.0706 24.116C26.7413 23.4945 25.4161 23.2322 24.8135 23.217C24.5479 23.2104 23.9183 22.8146 23.8811 22.4222C23.7704 21.2502 26.8083 19.5646 27.5763 18.7174C28.6716 17.5087 28.8026 15.9711 29.4035 14.4804C29.5554 14.1033 30.2735 13.1353 30.2735 12.8382C30.2735 12.1082 29.4305 11.2231 29.7071 10.4319C30.1492 9.16851 29.4841 7.02848 29.2264 7.1242C28.8356 7.26938 27.1676 8.61106 26.6399 9.26401C26.2874 9.69997 25.8744 10.2931 25.5315 10.8511C25.1885 11.4092 24.7048 12.1249 24.1725 13.2856C23.5937 14.5476 23.2586 15.9222 22.5295 17.0916C21.8841 18.127 21.5805 20.0216 20.8403 20.9529C20.2257 21.7263 19.4978 22.5555 18.7241 23.0911C18.4568 23.276 17.5644 23.3257 17.5048 23.2006C17.2232 22.6102 17.1967 21.8206 17.048 21.1807C16.8838 20.4743 16.4542 19.7812 16.0474 19.1936C14.9113 17.5528 13.9293 16.138 12.8835 14.4462C12.1082 13.192 10.5354 11.4092 9.54336 10.3749C8.51008 9.29766 6.18805 8.61619 5.8504 8.5109C5.51275 8.40562 4.14295 7.99876 4.13786 8.29939Z" fill="black"/>
<path d="M4.06567 8.3513C4.0448 9.58343 3.79889 10.7215 4.39195 11.8967C4.56928 12.2482 4.86474 12.3808 5.10979 12.6522C5.55143 13.1412 5.77725 13.7644 6.15389 14.2944C6.50921 14.7943 7.35941 15.572 7.52727 16.1875C7.95714 17.7638 7.86479 18.5681 8.36862 20.2874C8.43787 20.5237 9.14842 20.2359 9.51294 20.5064C9.86304 20.7661 9.46684 21.2522 9.69514 21.3046C9.79073 21.3266 10.1774 21.3578 10.5235 21.354C10.8695 21.3502 10.8897 21.529 10.9972 21.562C11.2206 21.6305 11.5749 21.8384 11.7413 21.9335C11.9076 22.0287 11.8219 21.9489 12.4905 22.3622C12.9071 22.6198 12.8185 22.7599 12.7847 22.7704C12.0643 22.9929 11.8646 22.9485 11.1787 23.2937C10.9293 23.4192 10.8278 23.6967 10.6567 23.9012C10.4195 24.1847 9.73638 24.6275 9.37327 24.7717C8.32222 25.1893 6.73649 25.0039 5.89288 25.8228C4.51852 27.1568 5.62727 27.9289 5.30554 29.3863C5.21922 29.7773 4.86948 30.1288 4.71823 30.4865C4.41456 31.205 4.77318 31.9472 4.63122 32.6708C4.5528 33.0704 4.26711 33.6181 4.34844 34.0174C4.50759 34.7985 5.20353 35.2626 5.34906 36.0044C5.47471 36.6448 4.78343 37.0341 4.54422 37.5481C4.18302 38.3242 3.92662 39.456 4.08741 40.2907C4.23544 41.0589 5.11756 41.8807 5.69711 42.3598C5.89255 42.5215 6.32674 42.7848 6.37143 43.0659C6.43731 43.4805 6.27519 44.8132 6.43667 44.9874C6.6478 45.215 7.49337 45.6012 7.5243 45.9398C7.56032 46.3341 7.30259 46.7741 7.28502 47.1715C7.26077 47.721 7.80267 47.8177 7.8506 48.2882C7.89901 48.7634 7.71762 49.2574 7.8941 49.7334C7.97911 49.9625 8.3432 50.0493 8.52492 50.1932C8.68723 50.3216 10.0828 51.8986 10.0911 51.9832C10.1165 52.2417 9.89954 52.488 9.93882 52.7551C9.98443 53.0648 10.6473 53.489 10.5697 53.7896C10.4667 54.1882 10.0999 54.5004 10.0911 54.9392C10.073 55.8416 10.6325 56.6649 10.6784 57.5668C10.7648 59.2616 10.3715 60.7878 10.1129 62.4277C9.89813 63.7893 10.1794 65.4097 10.2216 66.7794C10.2303 67.06 10.3195 67.5867 10.4609 67.8305C10.7436 68.3183 11.632 68.9458 11.418 69.6205C11.0795 70.6878 10.4086 71.5915 10.1999 72.7079C9.97921 73.8878 9.96013 75.0194 9.41677 76.1237C9.03061 76.9087 8.20745 77.3994 7.82884 78.2094C7.55618 78.7926 7.76906 79.8499 8.15514 80.3442C8.1689 80.3619 8.7304 80.8351 8.63368 81.001C8.52758 81.1831 8.27336 81.192 8.11161 81.2802C7.64516 81.5346 7.08177 81.8991 6.78473 82.3477C6.55521 82.6941 6.13088 83.2478 6.11039 83.7271C6.0761 84.5301 6.722 85.0954 6.45843 85.9112C6.35322 86.2369 6.09069 86.5375 5.97988 86.8638C5.8654 87.2009 5.90169 87.4649 5.90169 87.4649C5.90169 87.4649 31.7232 91.3909 31.7203 91.3583C31.6887 91.0122 31.4287 90.8466 31.2345 90.6244C30.795 90.1214 30.398 89.4309 30.1034 88.8344C29.7418 88.1021 29.9359 87.4333 29.7989 86.6832C29.7152 86.2255 29.3014 85.9039 29.2334 85.4515C29.1515 84.9083 29.3053 84.1686 29.1245 83.6615C28.8349 82.8496 27.6273 82.4794 27.4496 81.6744C27.2511 80.7759 27.815 79.5879 28.1673 78.7677C28.281 78.5031 28.5028 78.0307 28.4284 77.7166C28.2769 77.0756 27.253 76.3687 26.7536 75.9759C26.6648 75.906 26.1863 75.708 26.2314 75.549C26.3512 75.127 27.0541 75.1434 27.1886 74.8098C27.4064 74.2699 26.1448 73.0851 26.188 72.4123C26.2391 71.614 26.8003 70.8555 26.7101 70.0638C26.6116 69.2015 26.1261 68.4441 26.1009 67.5514C26.0847 66.9761 26.5156 66.5814 26.4925 66.0077C26.4605 65.2081 26.1013 64.4451 26.014 63.6428C25.7681 61.3852 25.6599 59.0132 26.0575 56.762C26.3655 55.0175 26.797 53.2891 27.1233 51.5398C27.3524 50.3123 27.5862 48.9241 28.1673 47.7954C28.7183 46.7263 29.3573 45.7061 29.8206 44.5931C29.875 44.4624 30.3657 44.0984 30.3427 43.9856C30.292 43.737 29.6194 43.6751 29.7771 43.4766C29.9706 43.233 30.5349 43.2928 30.6908 42.9673C30.8899 42.551 30.9101 42.0048 30.669 41.6045C30.6251 41.5315 30.2373 41.2316 30.2556 41.1445C30.3603 40.6509 31.2304 40.7346 31.4522 40.3071C31.6434 39.9377 31.2389 39.2203 31.1693 38.8783C31.0797 38.439 31.6914 38.3298 31.6914 37.9915C31.6914 37.7896 31.5519 37.602 31.5609 37.4003C31.5762 37.0514 31.6681 37.1937 31.8219 36.7926C31.934 36.5001 31.8296 36.1285 31.9306 35.8238C31.9917 35.6388 32.1543 35.4559 32.1917 35.2653C32.2854 34.7873 32.1036 34.2061 32.083 33.7383C32.0545 33.0958 31.9714 32.9884 31.9714 32.3309C31.9714 32.3193 31.6376 31.7922 31.6625 31.7356C31.9177 31.1578 31.5166 30.8986 31.4214 30.2049C31.4048 30.0824 31.3929 29.0309 30.9261 28.3962C30.4591 27.7612 30.0151 27.904 29.6825 27.6448C29.2519 27.3093 29.2747 27.1381 28.6894 26.9065C28.3394 26.7681 28.3606 26.4241 27.9778 26.1233C27.4644 25.7199 27.4149 25.0519 26.8388 24.7297C26.7028 24.6536 26.1103 24.6963 26.1433 24.431C26.1996 23.9767 26.6644 24.3629 26.4873 24.0284C26.1579 23.407 24.8328 23.1447 24.2303 23.1295C23.9644 23.1228 23.3349 22.7271 23.2979 22.3346C23.1869 21.1627 26.225 19.4771 26.9928 18.6298C28.0881 17.4212 28.2191 15.8835 28.82 14.3929C28.9721 14.0158 29.69 13.0477 29.69 12.7507C29.69 12.0207 28.847 11.1355 29.1239 10.3444C29.5659 9.08095 29.4356 9.40898 29.3814 7.42366C29.3699 7.00688 29.0158 7.04101 28.6242 7.10147C27.2092 7.32 26.5842 8.5235 26.0564 9.17646C25.7041 9.61242 25.2909 10.2056 24.948 10.7636C24.6052 11.3216 24.1214 12.0373 23.5891 13.1981C23.0104 14.46 22.6752 15.8346 21.9462 17.004C21.3009 18.0394 20.997 19.9341 20.2569 20.8654C19.6423 21.6387 18.9144 22.468 18.1407 23.0035C17.8734 23.1883 16.981 23.2382 16.9214 23.1131C16.6398 22.5226 16.6133 21.7331 16.4646 21.0931C16.3004 20.3867 15.8708 19.6936 15.464 19.106C14.3279 17.4652 13.3459 16.0505 12.3001 14.3587C11.5248 13.1045 9.95204 11.3217 8.95996 10.2874C7.92669 9.21011 5.60466 8.52864 5.26701 8.42334C4.92936 8.31807 4.07078 8.05069 4.06567 8.3513Z" fill="#434343"/>
<path d="M18.6187 29.1375C17.503 29.0086 15.8461 29.2254 14.4391 31.5086C13.6135 32.8486 13.5456 32.8018 13.4635 37.0241C13.3813 41.2465 12.9268 43.1759 14.8537 44.978C15.9502 46.0033 17.9184 47.8583 21.0264 45.9187C24.2915 43.881 24.1265 41.5396 24.1003 39.0423C24.0743 36.545 25.1726 32.5846 21.5128 30.2276C19.6274 29.0134 19.0588 29.1884 18.6187 29.1375Z" fill="black"/>
<path d="M18.3311 28.7478C17.2154 28.619 15.5585 28.8358 14.1515 31.119C13.3259 32.4587 13.258 32.4122 13.1759 36.6344C13.0937 40.8568 12.6392 42.7861 14.5661 44.5883C15.6626 45.6136 17.6308 47.4687 20.7388 45.5291C24.004 43.4911 23.839 41.1499 23.8128 38.6526C23.7866 36.1551 24.8851 32.195 21.2251 29.838C19.3398 28.6237 18.7712 28.7985 18.3311 28.7478Z" fill="#D7D7D7"/>
<path d="M7.36707 27.9781C6.87954 28.1103 6.48524 28.3331 5.83478 29.1701C5.5001 29.601 5.28865 30.1854 5.21474 30.3708C4.95986 31.01 4.97451 31.7674 5.39008 32.2712C5.55198 32.4676 5.78148 32.9107 6.65074 33.1631C7.48737 33.4058 8.22673 33.4033 8.50762 33.3545C9.30667 33.2156 9.71737 32.9901 10.1774 32.5532C10.3694 32.3707 10.7737 31.8472 10.9343 31.2978C11.0619 30.8615 11.0679 30.7726 11.0352 30.152C10.9969 29.4241 10.7769 29.1956 10.4416 28.8186C10.303 28.6629 10.0415 28.4291 9.72997 28.2641C9.45983 28.1209 8.90542 27.9939 8.74051 27.9635C8.41573 27.9041 7.81966 27.8552 7.36707 27.9781Z" fill="white" stroke="black" stroke-width="0.103924" stroke-miterlimit="10" stroke-linecap="round"/>
<path d="M7.65726 27.8925C7.23163 27.9228 6.86752 28.0509 6.1862 28.6823C5.83564 29.0072 5.56051 29.4919 5.46758 29.6442C5.14719 30.1699 5.15365 30.9522 5.41057 31.4779C5.51065 31.6826 5.88715 32.0715 6.07417 32.1985C6.20736 32.2889 6.62176 32.5391 6.74944 32.6009C6.79359 32.6223 7.49441 32.8274 7.73479 32.8166C8.52224 32.7811 8.53654 32.836 9.07988 32.55C9.62319 32.2637 9.78417 31.9102 10.0141 31.5635C10.2088 31.2698 10.2734 30.9637 10.3562 30.6089C10.4689 30.1254 10.4086 29.5914 10.1962 29.1936C10.1084 29.0294 9.86274 28.721 9.6336 28.5171C9.43492 28.3404 8.97857 28.0733 8.84748 28.0166C8.58929 27.9046 8.05238 27.8642 7.65726 27.8925Z" fill="black"/>
<path d="M8.89784 30.6676C8.82131 30.673 8.75584 30.6961 8.63331 30.81C8.57027 30.8686 8.5208 30.9561 8.50409 30.9836C8.44648 31.0783 8.44764 31.2195 8.49384 31.3143C8.51182 31.3512 8.59991 31.4458 8.6357 31.4651C8.66283 31.4799 8.69876 31.4992 8.72663 31.5113C8.76646 31.5283 8.84128 31.5468 8.88454 31.5481C9.00756 31.5518 9.03706 31.5682 9.13474 31.5167C9.23245 31.4651 9.26488 31.4042 9.30622 31.3417C9.34124 31.2887 9.36828 31.2215 9.38316 31.1575C9.40343 31.0702 9.36697 30.975 9.32877 30.9033C9.31299 30.8736 9.28136 30.8275 9.24014 30.7907C9.20441 30.7589 9.12595 30.7202 9.10238 30.71C9.05597 30.6899 8.96888 30.6624 8.89784 30.6676Z" fill="white"/>
<path d="M26.8381 27.5889C26.3507 27.7213 25.9565 27.9439 25.3059 28.7811C24.9713 29.2118 24.7599 29.7962 24.6859 29.9816C24.4311 30.6208 24.5992 31.6444 25.0149 32.1482C25.1766 32.3447 25.3574 32.7221 26.3468 33.0295C27.1882 33.2908 27.8948 33.1711 28.1756 33.1222C28.9748 32.9836 29.2573 32.8431 29.7173 32.406C30.0619 32.0786 30.3556 31.6216 30.51 31.1818C30.7195 30.5846 30.6472 30.389 30.6147 29.736C30.5877 29.191 30.2481 28.8065 29.9126 28.4294C29.7742 28.2738 29.5127 28.0399 29.2012 27.8749C28.931 27.7319 28.3766 27.6047 28.2116 27.5746C27.8869 27.5149 27.2908 27.4661 26.8381 27.5889Z" fill="white" stroke="black" stroke-width="0.103924" stroke-miterlimit="10" stroke-linecap="round"/>
<path d="M27.1752 27.4713C26.7489 27.5154 26.3203 27.6218 25.6363 28.2647C25.2842 28.5956 25.0539 28.9884 24.9448 29.252C24.6299 30.0129 24.6367 30.5949 24.8947 31.1303C24.9951 31.3388 25.3731 31.7347 25.5608 31.864C25.6947 31.9561 26.1106 32.2109 26.2388 32.2739C26.2831 32.2955 26.8998 32.5187 27.1413 32.526C27.828 32.5464 28.033 32.5131 28.5783 32.2217C29.1239 31.9305 29.3264 31.6358 29.5571 31.2827C29.7527 30.9838 29.8728 30.5862 29.9129 30.2172C29.9743 29.655 29.9533 29.1973 29.74 28.7922C29.6519 28.6249 29.4089 28.2861 29.1788 28.0787C28.9793 27.8987 28.6513 27.67 28.3778 27.5813C28.1086 27.4938 27.6089 27.4265 27.1752 27.4713Z" fill="black"/>
<path d="M28.3618 30.2779C28.2851 30.2836 28.2196 30.3066 28.0972 30.4205C28.0342 30.4791 27.9847 30.5664 27.9679 30.5939C27.9103 30.6889 27.9116 30.8298 27.9577 30.9248C27.9758 30.9616 28.0637 31.0561 28.0995 31.0757C28.1267 31.0902 28.1626 31.1095 28.1905 31.1216C28.2304 31.1388 28.3052 31.1571 28.3485 31.1586C28.4715 31.1621 28.5008 31.1788 28.5985 31.127C28.6964 31.0755 28.7288 31.0146 28.7702 30.952C28.8051 30.8992 28.8321 30.8319 28.8471 30.7678C28.8672 30.6808 28.8309 30.5854 28.7926 30.5136C28.7768 30.4841 28.7452 30.4378 28.7041 30.401C28.6683 30.3692 28.5898 30.3307 28.5663 30.3203C28.5197 30.3002 28.4328 30.273 28.3618 30.2779Z" fill="white"/>
<path d="M14.9903 27.8109C14.9832 28.7269 14.4487 30.296 14.1645 30.8087C12.6904 33.4688 11.9236 33.8897 10.5296 34.4743C8.8097 35.1958 6.52759 34.7585 5.42922 34.2943C4.73191 33.9998 3.85265 33.7155 2.63487 32.5044C2.0583 31.9309 1.62367 31.0451 1.3502 30.149C0.969643 28.9017 0.979098 27.607 0.9997 27.5939C1.08445 27.5401 14.1458 27.6249 17.0286 27.4998C20.1113 27.3659 34.4443 26.214 34.4896 26.2716C34.5202 26.3105 34.5451 29.1166 33.4044 30.9388C32.3432 32.6341 31.4211 33.1458 30.7338 33.5812C29.437 34.4028 26.7485 34.6649 24.5468 33.9364C22.2592 33.1797 20.6083 31.0116 20.3416 30.5069C20.0571 29.9688 19.3172 28.1836 19.376 27.4776" stroke="#F97303" stroke-width="0.623544" stroke-miterlimit="10" stroke-linecap="round"/>
<path d="M16.8188 31.0938C16.9206 31.2912 17.0184 31.4866 17.1096 31.6894C17.1146 31.7007 17.2117 31.9355 17.1793 31.8193" stroke="#434343" stroke-width="0.623544" stroke-miterlimit="10" stroke-linecap="round"/>
<path d="M19.0239 30.9453C18.797 31.2118 18.5453 31.4577 18.3218 31.7277" stroke="#434343" stroke-width="0.623544" stroke-miterlimit="10" stroke-linecap="round"/>
<path d="M15.6883 37.4743C15.6646 37.4383 15.966 37.4832 16.0338 37.4932C16.2478 37.5248 16.4616 37.4622 16.631 37.3275C16.9249 37.0939 17.1591 36.7742 17.446 36.5263C17.5318 36.4521 17.6867 36.292 17.8166 36.3088C17.9494 36.3261 18.1014 36.5256 18.1908 36.6104C18.4351 36.8418 18.713 37.2924 19.0993 37.3017C19.4057 37.3092 19.7146 37.0586 19.9609 36.9091C20.0557 36.8517 20.1879 36.7102 20.301 36.7042" stroke="#434343" stroke-width="0.623544" stroke-miterlimit="10" stroke-linecap="round"/>
<path d="M21.6918 93.2546C21.6918 93.2546 20.9398 95.0151 17.5882 95.0151C14.2366 95.0151 13.21 93.4166 13.21 93.4166C13.21 93.4166 15.398 91.7452 17.5224 91.6945C19.6467 91.6438 21.6918 93.2546 21.6918 93.2546Z" fill="#868686"/>
<path d="M11.3545 73.0474C11.3545 73.0474 11.4563 71.8691 16.5849 71.7885C22.1451 71.701 22.2737 72.983 22.2737 72.983C22.2743 72.9832 22.2745 72.9832 22.2745 72.9832L21.7142 93.2388C21.7142 93.2388 18.5996 96.5698 13.2167 93.4416L11.3545 73.0474Z" fill="white"/>
<path d="M13.377 90.5034L13.5763 93.173C13.5763 93.173 15.2397 94.1995 17.2619 94.3244C18.5724 94.4053 20.2149 94.1708 21.3838 93.1245L21.4522 90.2275C21.4522 90.2275 20.5738 91.3221 17.6945 91.3291C14.7909 91.3362 14.5373 91.0978 13.377 90.5034Z" fill="#F97303"/>
<path d="M17.4351 36.7826L14.7129 44.7628L17.7686 92.9421C17.7686 92.9421 18.3025 93.2678 18.5978 92.591L15.8938 44.8748L18.4999 37.1767C18.4999 37.1767 18.5184 36.3572 17.4351 36.7826Z" fill="#868686"/>
<path d="M17.2681 36.5972L14.5459 44.5771L17.6016 92.7566C17.6016 92.7566 18.1886 93.2039 18.4838 92.5272L15.7268 44.6891L18.3329 36.9913C18.3329 36.9913 18.3514 36.1715 17.2681 36.5972Z" fill="white"/>
<path d="M14.5459 44.4902L15.732 44.6567" stroke="black" stroke-width="0.103924" stroke-miterlimit="10" stroke-linecap="round"/>
<path d="M14.5459 44.9912L15.7436 44.9972" stroke="black" stroke-width="0.103924" stroke-miterlimit="10" stroke-linecap="round"/>
<path d="M14.5737 45.4022L15.7708 45.3623" stroke="black" stroke-width="0.103924" stroke-miterlimit="10" stroke-linecap="round"/>
<path d="M14.6016 45.8479L15.7812 45.6406" stroke="black" stroke-width="0.103924" stroke-miterlimit="10" stroke-linecap="round"/>
<path d="M14.6758 44.0635L15.855 44.3434" stroke="black" stroke-width="0.103924" stroke-miterlimit="10" stroke-linecap="round"/>
<path d="M14.8428 43.6367C14.8428 43.6367 15.2436 43.835 15.5151 43.9695C15.7867 44.104 15.9289 44.1744 15.9289 44.1744" stroke="black" stroke-width="0.103924" stroke-miterlimit="10" stroke-linecap="round"/>
<path d="M17.0415 83.9095L17.5987 92.7609C17.5987 92.7609 18.1857 93.2084 18.481 92.5317L17.9806 83.8262L17.0415 83.9095Z" fill="#F97303"/>
<path d="M11.4565 73.0482C12.6905 74.0627 15.9219 74.4655 17.8352 74.2594C21.4613 73.8684 22.1728 72.9902 22.1728 72.9902" stroke="#434343" stroke-width="0.207848" stroke-miterlimit="10" stroke-linecap="round" stroke-linejoin="round"/>
<path d="M35.4277 42.1895C35.4277 42.1895 36.0018 44.5034 36.2061 45.653C36.5232 47.4372 37.5415 48.3966 37.8597 49.0347C38.8252 50.9702 39.8563 51.6958 39.8563 51.6958C39.8563 51.6958 37.3426 53.1148 34.2656 57.5646C31.4619 61.6193 28.6583 69.9534 28.3322 79.9078C28.2648 81.9664 28.1135 89.8652 28.2447 90.6825L54.0602 94.7247C53.4882 95.8049 52.8258 97.116 51.8585 98.6382C50.4719 100.82 46.4118 105.039 44.4183 107.563C42.4247 110.087 39.2972 114.272 40.9487 117.547C43.8195 123.24 51.7654 125.896 58.287 123.097C64.1398 120.585 67.1507 116.542 68.5399 113.729C70.6936 109.369 69.0637 103.923 68.0064 96.8759L70.0676 97.1636C70.0676 97.1636 70.3962 92.2521 69.4289 84.684C68.6324 78.4527 67.5813 74.9644 65.0936 68.0202C62.6059 61.076 61.3237 59.0991 59.4239 56.6775C56.5473 53.0106 53.1047 51.5127 53.1047 51.5127C53.1047 51.5127 54.2026 49.8869 55.0113 48.2559C56.0672 46.1265 56.1258 44.105 55.9271 42.5349C55.9271 42.5349 52.481 45.6019 48.5909 50.8954C48.5909 50.8954 47.6859 50.6963 46.3981 50.6898C45.1103 50.6834 43.6277 50.8284 43.6277 50.8284C43.6277 50.8284 41.3555 47.613 38.8572 45.1602C38.7271 45.0324 35.4277 42.1895 35.4277 42.1895Z" fill="#6D5639"/>
<path d="M35.3944 42.1709C35.3944 42.1709 35.4373 44.0752 35.6445 45.2246C35.966 47.009 36.5409 48.3999 36.8637 49.038C37.8429 50.9735 38.8886 51.6991 38.8886 51.6991C38.8886 51.6991 36.3393 53.118 33.2193 57.5679C30.3762 61.6226 27.533 69.9566 27.2023 79.9111C27.1339 81.9696 26.9806 89.8685 27.1136 90.6857L53.2918 94.7279C52.7119 95.8081 52.0402 97.1192 51.0591 98.6415C49.6532 100.823 45.5362 105.042 43.5144 107.566C41.4929 110.09 38.3216 114.275 39.9962 117.55C42.9075 123.243 50.965 125.899 57.578 123.1C63.5134 120.588 66.5664 116.545 67.975 113.733C70.1591 109.372 68.5063 103.926 67.4342 96.8792L69.5241 97.1668C69.5241 97.1668 69.8575 92.2554 68.8767 84.6872C68.069 78.4559 67.0031 74.9676 64.4803 68.0234C61.9576 61.0792 60.6573 59.1024 58.731 56.6808C55.814 53.0139 52.4602 51.6454 52.4602 51.6454C52.4602 51.6454 53.1534 50.3628 54.1506 48.831C55.4225 46.8774 55.7409 45.0276 55.939 42.4949C55.939 42.4949 51.956 45.446 48.0112 50.7394C48.0112 50.7394 46.7458 50.5515 45.4399 50.5451C44.134 50.5384 42.787 50.7143 42.787 50.7143C42.787 50.7143 40.9051 47.8088 38.3717 45.3558C38.2397 45.2279 35.3944 42.1709 35.3944 42.1709Z" fill="#A88559"/>
<path d="M52.4403 67.9592C54.9825 66.3945 52.094 71.1518 48.3041 72.2858C44.355 73.4672 39.8262 70.0697 42.4158 70.4445C48.8023 71.3683 49.7748 69.5998 52.4403 67.9592Z" fill="#6D5639"/>
<path d="M44.79 59.1855C44.8842 59.3296 45.1716 59.5873 45.4296 59.8099" stroke="#6D5639" stroke-width="0.623544" stroke-miterlimit="10" stroke-linecap="round"/>
<path d="M46.9668 59.0557C46.7203 59.3562 46.5827 59.5183 46.395 59.731" stroke="#6D5639" stroke-width="0.623544" stroke-miterlimit="10" stroke-linecap="round"/>
<path d="M45.189 63.7257C45.4222 63.6384 46.5425 63.2227 46.9153 62.9893" stroke="#6D5639" stroke-width="0.831392" stroke-miterlimit="10" stroke-linecap="round"/>
<path d="M64.0692 102.789C63.5726 103.973 62.8448 104.877 62.5933 105.33" stroke="#6B5437" stroke-width="0.415696" stroke-miterlimit="10" stroke-linecap="round" stroke-linejoin="bevel"/>
<path d="M56.4725 99.0967C56.4725 99.0967 56.1649 99.7389 55.8115 101.736" stroke="#6B5437" stroke-width="0.415696" stroke-miterlimit="10" stroke-linecap="round" stroke-linejoin="bevel"/>
<path d="M24.0645 151.41L24.5691 153.217C24.5691 153.217 24.6701 153.68 25.434 153.677L25.6071 153.671L65.8005 145.596C65.8005 145.596 66.1248 145.527 66.2929 145.366C66.4268 145.237 66.4108 145.019 66.4201 144.952C66.4679 144.608 66.2503 142.731 66.2503 142.731L62.5893 102.034C62.5893 102.034 62.5458 101.761 62.4232 101.483C62.274 101.145 62.0065 100.764 61.7122 100.655C61.7122 100.655 61.9647 100.85 62.0786 101.113C62.1551 101.289 62.1952 101.529 62.2143 101.807L65.7889 141.688C65.7889 141.688 65.8864 142.661 65.8373 142.992C65.7885 143.323 65.7186 143.44 65.3204 143.628L25.313 151.777C25.313 151.777 24.306 152.007 24.0645 151.41Z" fill="#505050"/>
<path d="M44.4329 104.371C44.2799 104.41 43.0191 104.66 42.359 106.356C41.4457 108.703 24.0817 150.875 24.0817 150.875C24.0817 150.875 23.6562 151.949 25.187 151.815C26.7178 151.682 65.094 143.786 65.3526 143.66C65.862 143.412 65.9329 143.192 65.8595 142.132C65.7595 140.691 62.1987 101.606 62.1987 101.606C62.1987 101.606 62.17 100.339 60.9171 100.526C59.664 100.712 44.7638 104.287 44.4329 104.371Z" fill="#505050"/>
<path d="M44.907 105.146C44.7681 105.182 43.7898 105.538 43.1903 107.1C42.361 109.262 26.3497 148.082 26.3497 148.082C26.3497 148.082 25.9631 149.071 27.3534 148.948C28.7435 148.824 63.6174 141.585 63.8614 141.49C64.3031 141.319 64.4449 140.88 64.3247 139.713C64.1886 138.389 61.1461 102.698 61.1461 102.698C61.1461 102.698 60.9397 101.54 59.8018 101.712C58.664 101.884 45.2075 105.068 44.907 105.146Z" fill="black"/>
<path d="M52.4211 129.115C52.8637 127.85 53.9022 126.853 55.0399 126.627C56.3444 126.367 57.036 126.954 57.025 128.133L53.6707 128.8L53.5938 129.183L56.9971 128.506C56.9872 128.602 56.9675 128.7 56.9478 128.798C56.9241 128.916 56.9005 129.033 56.869 129.143L53.4657 129.82L53.3908 130.192L56.7352 129.527C56.2672 130.778 55.2856 131.679 54.0891 131.917C53.0298 132.128 52.3518 131.613 52.3744 130.611L51.1796 131.122C51.1624 132.565 52.2265 133.313 53.8742 132.986C55.8063 132.601 57.3336 131.187 57.971 129.281L59.0008 129.077L59.0758 128.704L58.0852 128.901C58.1167 128.791 58.1403 128.674 58.164 128.556C58.1837 128.458 58.2034 128.36 58.2133 128.264L59.2039 128.067L59.2808 127.684L58.2608 127.887C58.3823 126.065 57.3027 125.16 55.2626 125.566C53.4678 125.923 51.9033 127.335 51.3052 129.139L52.4211 129.115ZM48.4527 126.939C46.9619 127.236 45.7155 128.331 45.469 129.556C45.3034 130.38 45.6637 130.929 46.4657 131.062L46.4617 131.081C45.8161 131.436 45.3232 132.108 45.1852 132.794C44.9604 133.912 45.7227 134.522 46.9977 134.269C48.3904 133.992 49.5782 132.814 49.8933 131.481L48.7323 131.543C48.5333 132.439 47.899 133.158 47.1929 133.298C46.5946 133.417 46.2636 133.05 46.3917 132.413C46.5139 131.805 46.9636 131.301 47.5756 131.161L47.9915 131.059L48.1413 130.314L47.645 130.394C47.0409 130.496 46.5608 130.12 46.7027 129.415C46.8427 128.719 47.4925 128.109 48.2967 127.949C49.2089 127.768 49.6868 128.341 49.5505 129.3L50.7414 128.809C50.9174 127.419 49.9926 126.633 48.4527 126.939ZM42.016 128.22C40.182 128.585 38.6582 130.356 38.2225 132.523C37.7869 134.689 38.6955 135.977 40.5296 135.612C42.3636 135.247 43.8971 133.474 44.3328 131.307C44.7685 129.14 43.8501 127.855 42.016 128.22ZM41.807 129.259C42.9251 129.037 43.438 129.998 43.1265 131.547C42.815 133.096 41.8566 134.35 40.7385 134.573C39.6204 134.795 39.1076 133.834 39.4191 132.285C39.7306 130.736 40.689 129.481 41.807 129.259Z" fill="#63FFB1"/>
<circle r="4.37481" transform="matrix(-0.995805 0.0915015 0.164531 -0.986372 50.0762 118.715)" fill="#63FFB1"/>
<path d="M52.2977 118.256L51.2257 117.335L47.6821 120.21" stroke="black" stroke-width="0.8" stroke-linecap="round" stroke-linejoin="round"/>
<path d="M50.7108 104.362C51.358 103.802 52.2272 103.746 52.6523 104.237C53.0773 104.727 52.8971 105.58 52.2499 106.14C51.6026 106.7 50.7334 106.757 50.3084 106.266C49.8833 105.775 50.0635 104.923 50.7108 104.362Z" stroke="#C2C2C2" stroke-width="0.207848" stroke-miterlimit="10" stroke-linecap="round"/>
<path d="M24.2778 151.055C24.5362 151.477 25.257 151.474 25.257 151.474L64.9759 143.429C64.9759 143.429 65.5367 143.304 65.5899 142.793" stroke="#C2C2C2" stroke-width="0.311772" stroke-miterlimit="10" stroke-linecap="round"/>
<path d="M56.7621 98.9425C55.9486 101.036 55.0906 105.838 56.4524 107.119C57.8142 108.4 60.6784 107.504 61.7638 106.365C62.4602 105.634 63.2609 104.131 64.1575 101.698C65.0542 99.2662 65.0128 96.7217 65.0128 96.7217C65.0128 96.7217 57.5758 96.8495 56.7621 98.9425Z" fill="#A88559"/>
<path d="M58.2942 53.6748L45.8074 53.8849L33.5938 53.6879C33.0858 53.8469 32.8834 54.2189 32.9077 54.7793C32.9322 55.3397 33.6797 55.8023 33.6797 55.8023L33.6724 59.4991C34.0382 62.473 37.6396 62.3959 41.1125 62.0272C44.5856 61.6585 45.2289 55.2996 45.2289 55.2996L46.501 55.3014C46.501 55.3014 47.2954 61.6451 50.7683 62.0141C54.2412 62.3828 57.8497 62.4599 58.2157 59.486L58.2013 55.7892C58.2013 55.7892 59.1007 55.3648 59.0749 54.7138C59.0467 54.0028 58.8438 53.8082 58.2942 53.6748Z" fill="black"/>
<path d="M48.3896 57.5655L50.6845 55.3262" stroke="white" stroke-width="0.623544" stroke-miterlimit="10" stroke-linecap="round"/>
<path d="M34.6313 57.4171L36.9262 55.1777" stroke="white" stroke-width="0.623544" stroke-miterlimit="10" stroke-linecap="round"/>
<path d="M48.5474 58.5116L50.842 56.2725" stroke="white" stroke-width="0.415696" stroke-miterlimit="10" stroke-linecap="round"/>
<path d="M34.6963 58.4745L36.9911 56.2354" stroke="white" stroke-width="0.415696" stroke-miterlimit="10" stroke-linecap="round"/>
<path d="M57.8062 54.6409C57.8062 54.4557 57.9697 54.3057 58.1711 54.3057C58.3727 54.3057 58.5361 54.4557 58.5361 54.6409C58.5361 54.8261 58.3727 54.9764 58.1711 54.9764C57.9697 54.9764 57.8062 54.8261 57.8062 54.6409Z" fill="white"/>
<path d="M33.3047 54.6038C33.3047 54.4186 33.4683 54.2686 33.6697 54.2686C33.8713 54.2686 34.0346 54.4186 34.0346 54.6038C34.0346 54.789 33.8713 54.9393 33.6697 54.9393C33.4683 54.9393 33.3047 54.789 33.3047 54.6038Z" fill="white"/>
<path d="M33.8867 90.4082C33.8938 90.4144 33.7932 90.1224 33.7491 90.0494C33.6148 89.826 33.4259 89.6643 32.9408 89.4529C32.4559 89.2417 31.8556 89.4309 31.7272 89.4893C31.602 89.546 31.1518 89.6971 30.9465 89.9889C30.7409 90.2806 30.6247 90.6919 30.5969 90.8881C30.5838 90.9802 30.6838 91.4264 30.723 91.5634C30.7754 91.7471 31.039 92.2747 31.1169 92.4102C31.1782 92.5166 31.613 93.0387 31.745 93.1703C31.7966 93.2216 32.1397 93.54 32.2595 93.618C32.866 94.0116 33.148 93.9067 33.2172 93.8664C33.2856 93.8264 33.5882 93.5195 33.5543 93.4893C33.4475 93.3937 33.3827 93.3116 33.2442 93.1911C33.0676 93.037 33.0027 92.9668 32.8601 92.8338C32.6436 92.6319 32.593 92.5255 32.4039 92.3062C32.2617 92.1414 32.2432 92.1032 32.0491 91.8269C31.9928 91.7467 31.8367 91.4838 31.7806 91.3489C31.7396 91.2508 31.6426 90.9764 31.5987 90.8095C31.5875 90.7667 31.4486 90.3051 31.5309 90.1671C31.6076 90.0388 31.9626 90.0623 31.9967 90.0615C32.4415 90.0507 32.7464 90.2086 33.043 90.4518C33.1287 90.5221 33.1744 90.7588 33.285 90.7335C33.5057 90.6829 33.7161 90.62 33.8067 90.5175C33.8476 90.4712 33.878 90.4005 33.8867 90.4082Z" fill="#D7D7D7"/>
<path d="M31.1987 95.6392C31.1987 94.4231 33.4821 93.4375 36.2989 93.4375C39.1157 93.4375 41.3991 94.4231 41.3991 95.6392C41.3991 96.8553 39.1157 97.8412 36.2989 97.8412C33.4821 97.8412 31.1987 96.8553 31.1987 95.6392Z" fill="#868686"/>
<path d="M31.1987 95.4353C31.1987 94.2192 33.4821 93.2334 36.2989 93.2334C39.1157 93.2334 41.3991 94.2192 41.3991 95.4353C41.3991 96.6515 39.1157 97.6371 36.2989 97.6371C33.4821 97.6371 31.1987 96.6515 31.1987 95.4353Z" fill="white"/>
<path d="M36.5279 96.5736C41.0716 96.5551 40.5508 89.6483 40.5508 89.6483C40.5508 89.6483 40.5414 89.2838 40.2039 89.1909C38.9873 88.8562 35.1214 88.5931 32.7178 89.1988C32.3607 89.2888 32.3017 89.5764 32.3027 89.6544C32.3312 92.1074 32.4549 96.5903 36.5279 96.5736Z" fill="#868686"/>
<path d="M36.5301 96.3176C36.8109 96.3166 37.0732 96.2904 37.3185 96.2424C41.2535 95.4698 40.7673 89.0236 40.7673 89.0236C40.7673 89.0236 40.7573 88.6397 40.4019 88.5418C39.1207 88.1893 35.0488 87.9122 32.5174 88.5501C32.1412 88.6449 32.0791 88.9479 32.0801 89.03C32.11 91.6136 32.2403 96.3351 36.5301 96.3176Z" fill="white"/>
<path d="M32.3677 88.9261C32.3677 88.5688 34.1984 88.2793 36.4567 88.2793C38.7149 88.2793 40.5455 88.5688 40.5455 88.9261C40.5455 89.2834 38.7118 89.7051 36.4536 89.7051C34.1955 89.7051 32.3677 89.2834 32.3677 88.9261Z" fill="#D7D7D7"/>
<path d="M70.2847 63.865C70.2776 65.1632 70.5326 65.661 70.892 67.2026C71.2981 68.9452 71.5619 68.7875 72.8173 70.301C72.8173 70.301 69.7917 75.1886 69.4333 80.2865C69.2704 82.605 69.0135 86.2611 69.0276 88.7683C69.0442 91.774 68.7998 97.0149 68.7998 97.0149L93.7164 100.784C93.7164 100.784 94.5663 100.39 94.5291 97.0386C94.4811 92.6975 93.9997 90.984 93.3581 88.1254C92.7164 85.2669 92.7125 84.4179 92.0295 80.9909C91.2669 77.1635 89.9275 73.3886 88.2145 71.0796C88.2145 71.0796 90.5432 69.3915 91.4135 67.8727C92.3425 66.2517 92.217 64.2645 91.9593 63.5663C91.9593 63.5663 86.3694 67.6846 86.1879 67.741C86.1879 67.741 85.1959 69.801 83.7067 70.7995C82.2176 71.798 77.1923 71.8071 76.437 70.9668C75.6814 70.1264 75.3036 68.7262 73.8534 66.4367C71.5914 62.8655 70.5592 61.8574 70.5592 61.8574C70.5592 61.8574 70.2901 62.8998 70.2847 63.865Z" fill="#868686"/>
<path d="M70.1166 63.6049C70.1095 64.9031 70.0131 65.6642 70.3725 67.2058C70.7786 68.9484 71.0424 68.7907 72.2978 70.3042C72.2978 70.3042 69.2721 75.1917 68.9136 80.2896C68.7506 82.6082 68.4939 86.2642 68.5079 88.7715C68.5247 91.7772 68.2803 97.0181 68.2803 97.0181L93.6263 100.79C93.6263 100.79 94.0919 101.071 94.0096 97.0418C93.921 92.7013 93.4802 90.9871 92.8383 88.1286C92.1967 85.2701 92.2489 84.3319 91.4352 80.9336C90.6216 77.5352 89.476 72.756 87.5835 70.8791C87.5835 70.8791 89.8873 69.516 90.8775 68.0728C91.8679 66.6295 92.0926 64.7112 91.9812 63.5176C91.9812 63.5176 85.8499 67.6878 85.6682 67.7441C85.6682 67.7441 84.6761 69.8041 83.1871 70.8026C81.6979 71.8011 76.6728 71.8103 75.9172 70.9699C75.1619 70.1296 73.7404 66.7789 73.7404 66.7789C73.7404 66.7789 71.4655 63.3692 70.672 62.0206C70.3128 61.4102 70.122 62.6396 70.1166 63.6049Z" fill="white"/>
<path d="M71.7563 77.9629C71.1871 78.1098 70.8152 78.4214 70.4141 78.9019" stroke="#C9C4B6" stroke-width="0.207848" stroke-miterlimit="10" stroke-linecap="round"/>
<path d="M71.9402 77.652C71.2552 77.5373 70.7223 77.6674 70.0894 77.9453" stroke="#C9C4B6" stroke-width="0.207848" stroke-miterlimit="10" stroke-linecap="round"/>
<path d="M71.4575 77.2792C70.8722 77.0572 70.3796 77.1006 69.7739 77.2736" stroke="#C9C4B6" stroke-width="0.207848" stroke-miterlimit="10" stroke-linecap="round"/>
<path d="M72.9913 78.7831C73.5778 78.8384 74.1585 78.8827 74.7361 78.812C75.5129 78.717 76.051 78.6158 76.6174 77.9983C76.9019 77.688 77.2012 77.3342 77.3409 76.9476C77.5726 76.3049 77.5999 75.5981 77.4581 74.908C77.3864 74.5594 76.8313 73.749 76.6488 73.5726C75.6789 72.6346 75.1618 72.6447 74.1544 72.5855C73.4082 72.5417 72.3598 72.9166 71.7452 73.4859C71.5232 73.6917 70.9872 74.3678 70.876 74.6698C70.7284 75.0707 70.6738 75.5821 70.6979 76.0017C70.727 76.5055 70.8247 76.8518 71.083 77.2947C71.257 77.5928 71.5455 77.9102 71.7984 78.1423C72.0304 78.3552 72.6535 78.7513 72.9913 78.7831Z" fill="white" stroke="black" stroke-width="0.103924" stroke-miterlimit="10" stroke-linecap="round"/>
<path d="M73.816 78.8048C74.0061 78.8428 74.4518 78.848 75.1657 78.7306C75.7425 78.6356 76.1661 78.513 76.5893 78.0401C76.8019 77.8026 77.0255 77.5319 77.1299 77.236C77.303 76.744 77.3961 76.2422 77.2901 75.7139C77.2365 75.4472 77.0191 74.922 76.7289 74.6468C76.0214 73.9752 75.2952 73.8555 74.8467 73.8626C74.4067 73.8697 73.6603 74.097 73.3389 74.2883C73.1941 74.3745 72.7083 74.6285 72.3737 75.287C72.1118 75.8018 72.1278 75.7393 72.0386 76.4474C71.9904 76.8302 72.1162 77.3424 72.3093 77.6814C72.4392 77.9096 72.6478 78.1867 72.8607 78.3367C73.1132 78.5149 73.6258 78.767 73.816 78.8048Z" fill="black"/>
<path d="M73.5281 77.3813C73.6064 77.3425 73.7949 77.2832 74.0292 77.0498C74.2183 76.8611 74.3451 76.7046 74.3906 76.4304C74.4137 76.2926 74.433 76.1407 74.4027 76.0127C74.3526 75.7998 74.2349 75.6119 74.0741 75.4629C73.9928 75.3874 73.6977 75.2912 73.6166 75.2827C73.1855 75.2376 73.0458 75.3453 72.7598 75.5344C72.548 75.6747 72.3277 75.9842 72.2602 76.2556C72.2359 76.3537 72.2088 76.637 72.2319 76.7374C72.2625 76.8706 72.3379 77.0136 72.4188 77.117C72.5156 77.241 72.6038 77.3105 72.7526 77.3722C72.853 77.4138 72.9881 77.4372 73.0982 77.4458C73.1992 77.4535 73.4497 77.4202 73.5281 77.3813Z" fill="white"/>
<path d="M87.7812 79.0205C88.4393 79.1901 88.8689 79.5503 89.3326 80.1057" stroke="#C9C4B6" stroke-width="0.207848" stroke-miterlimit="10" stroke-linecap="round"/>
<path d="M87.5586 78.6605C88.3503 78.5277 88.9663 78.6784 89.698 78.9995" stroke="#C9C4B6" stroke-width="0.207848" stroke-miterlimit="10" stroke-linecap="round"/>
<path d="M88.1245 78.2304C88.8011 77.974 89.3706 78.024 90.0706 78.224" stroke="#C9C4B6" stroke-width="0.207848" stroke-miterlimit="10" stroke-linecap="round"/>
<path d="M86.346 79.9722C85.6683 80.0358 84.9969 80.0871 84.3293 80.0054C83.4316 79.8955 82.8097 79.7787 82.155 79.0647C81.8262 78.7062 81.4801 78.2973 81.3188 77.8505C81.0509 77.1078 81.0193 76.2906 81.1833 75.4931C81.2662 75.0903 81.9079 74.1535 82.1188 73.9496C83.2396 72.8654 83.8375 72.8773 85.0019 72.8087C85.8643 72.758 87.076 73.1914 87.7862 73.8494C88.0429 74.0872 88.6627 74.8689 88.791 75.2179C88.9616 75.6812 89.0248 76.2723 88.9969 76.7574C88.9633 77.3394 88.8504 77.7399 88.5517 78.2516C88.3507 78.5962 88.0171 78.9631 87.7249 79.2314C87.4568 79.4775 86.7366 79.9354 86.346 79.9722Z" fill="white" stroke="black" stroke-width="0.103924" stroke-miterlimit="10" stroke-linecap="round"/>
<path d="M85.3916 80.0017C85.1719 80.0455 84.6566 80.0516 83.8315 79.9158C83.1647 79.8061 82.6752 79.6641 82.1861 79.1177C81.9405 78.8431 81.6819 78.5303 81.5614 78.1882C81.3612 77.6198 81.2535 77.0397 81.3762 76.4292C81.4381 76.1208 81.6894 75.5138 82.0247 75.1958C82.8425 74.4195 83.6818 74.2811 84.2004 74.2894C84.709 74.2975 85.5716 74.5602 85.943 74.7814C86.1105 74.8809 86.6717 75.1746 87.0587 75.9356C87.3614 76.5308 87.3426 76.4583 87.4459 77.2768C87.5017 77.7193 87.3564 78.3115 87.1331 78.7033C86.9829 78.9668 86.7418 79.2871 86.4957 79.4605C86.2036 79.6664 85.6115 79.9578 85.3916 80.0017Z" fill="black"/>
<path d="M83.2594 78.0158C83.3498 77.9738 83.5677 77.9098 83.8383 77.6575C84.0572 77.4536 84.2035 77.2844 84.2563 76.988C84.2829 76.839 84.3051 76.6748 84.2702 76.5363C84.2122 76.3064 84.0763 76.1034 83.8905 75.9421C83.7965 75.8606 83.4554 75.7567 83.3617 75.7473C82.8633 75.6987 82.702 75.8151 82.3713 76.0196C82.1267 76.1711 81.8718 76.5056 81.7939 76.799C81.7658 76.9053 81.7344 77.2112 81.7611 77.3199C81.7964 77.4639 81.8837 77.6184 81.977 77.7302C82.0892 77.8643 82.1909 77.9393 82.3632 78.006C82.479 78.0509 82.6351 78.0761 82.7625 78.0854C82.8793 78.0939 83.1688 78.0578 83.2594 78.0158Z" fill="white"/>
<path d="M78.9653 76.5507C78.9653 76.5507 77.9258 76.1564 77.358 77.507C76.7901 78.8578 76.0373 79.2442 75.838 80.7629C75.6387 82.2816 76.1369 83.9866 77.216 84.4227C78.0464 84.7582 80.4557 85.4455 81.7876 83.3182C82.4029 82.3357 82.3733 80.0737 81.8751 79.3475C81.3767 78.6214 81.1323 78.6127 80.6711 77.4072C80.2099 76.2017 79.5986 76.5409 78.9653 76.5507Z" fill="#BDB498"/>
<path d="M78.0864 77.4434C78.1463 77.6847 78.233 77.8447 78.3558 78.0118" stroke="#625C4B" stroke-width="0.415696" stroke-miterlimit="10" stroke-linecap="round"/>
<path d="M79.4809 77.4619C79.3475 77.6937 79.1903 77.8493 79.0234 77.9807" stroke="#625C4B" stroke-width="0.415696" stroke-miterlimit="10" stroke-linecap="round"/>
<path d="M78.6819 78.3164C78.567 78.3274 78.4826 78.4288 78.4936 78.5437C78.553 79.1671 78.5289 79.7831 78.5065 80.4079C78.5002 80.5831 78.5202 80.7588 78.5131 80.934C78.511 80.9822 78.4942 81.029 78.4869 81.077C78.4836 81.0801 78.4828 81.0818 78.4805 81.0834C78.4622 81.0972 78.44 81.1167 78.4221 81.129C78.387 81.1527 78.3637 81.1657 78.3311 81.1938C78.2525 81.2618 78.1631 81.3474 78.0974 81.4276C77.9075 81.6594 77.8046 81.9834 77.9869 82.2526C78.0968 82.4147 78.3157 82.4933 78.5 82.5188C78.9583 82.5822 79.7527 82.3925 79.6887 81.7849C79.6598 81.511 79.3659 81.2508 79.1367 81.1418C79.0679 81.1092 78.9964 81.0913 78.9222 81.0703C78.9471 80.8556 78.9215 80.6362 78.9288 80.4208C78.9502 79.7782 78.9706 79.1461 78.9093 78.5047C78.8983 78.3899 78.7968 78.3056 78.6819 78.3164ZM78.7014 81.4536C78.8615 81.5114 79.0259 81.5476 79.1496 81.6939C79.2182 81.775 79.2597 81.8147 79.2406 81.8758C79.1768 82.079 78.7253 82.1052 78.5584 82.0836C78.5113 82.0776 78.3562 82.0275 78.3506 82.0123C78.2889 81.844 78.3926 81.7213 78.5131 81.6031C78.5794 81.5378 78.642 81.4991 78.7014 81.4536Z" fill="#625C4B"/>
<path d="M75.51 65.6795C75.51 65.6795 75.3905 65.0651 75.6304 64.4019C75.9783 63.4398 77.0331 63.1267 77.1736 63.0833C77.5101 62.9792 78.4174 62.7821 79.2941 63.251C79.6185 63.4246 80.0486 63.7563 80.313 64.0876C80.6187 64.4709 80.7372 64.8434 80.7642 64.8103C81.2645 64.1957 81.7455 64.0756 81.9572 64.0089C82.29 63.9041 83.1665 63.7141 83.9842 64.3046C84.2147 64.4711 84.7682 64.8457 84.8416 65.9736C84.8759 66.4995 84.69 66.8688 84.69 66.8688C84.69 66.8688 85.0976 66.846 85.3899 67.0757C85.6698 67.2956 85.8729 67.5225 85.9978 67.8759C86.209 68.4734 86.1479 69.2497 85.8673 69.6185C85.7812 69.7315 85.4302 69.9516 85.4302 69.9516C85.4302 69.9516 85.748 70.1849 85.8459 70.5295C85.9249 70.8076 86.0107 71.3525 85.806 71.8961C85.6518 72.3055 84.9677 73.1407 84.6487 73.3379C84.1342 73.6557 83.6242 73.6357 83.2532 73.6023C82.7974 73.5611 82.4835 73.3065 82.4532 73.3105C82.4532 73.3105 82.2239 73.8074 82.1819 73.8586C81.5557 74.623 81.1737 74.5287 80.6821 74.5318C80.0943 74.5357 79.7611 74.2458 79.4253 73.9255C79.3165 73.8218 79.0827 73.3982 79.0827 73.3982C79.0827 73.3982 78.8148 73.8459 78.4004 73.8981C77.9423 73.9558 77.0822 73.8074 76.7646 73.2473C76.69 73.1157 76.7261 72.6784 76.7261 72.6784C76.7261 72.6784 76.1733 72.7917 76.0022 72.7809C75.8311 72.7701 75.2882 72.683 74.9846 72.4579C74.4961 72.0958 74.3633 71.4972 74.3939 71.0414C74.4244 70.5858 74.7113 70.3578 74.7113 70.3578C74.7113 70.3578 74.2189 70.3655 74.0673 70.3118C73.6938 70.1796 73.3571 69.8907 73.1366 69.552C72.5141 68.595 72.8298 66.9827 73.6246 66.2468C74.4934 65.4424 75.51 65.6795 75.51 65.6795Z" fill="#A49C83"/>
<path d="M75.343 65.327C75.343 65.327 75.2233 64.7126 75.4634 64.0494C75.8113 63.0872 76.8661 62.7742 77.0066 62.7308C77.3431 62.6266 78.2504 62.4296 79.1271 62.8985C79.4516 63.0721 79.8814 63.404 80.1458 63.7351C80.4517 64.1184 80.5702 64.4908 80.5972 64.4578C81.0975 63.8434 81.5785 63.723 81.7901 63.6563C82.1228 63.5516 82.9993 63.3616 83.8172 63.9521C84.0477 64.1188 84.6012 64.4931 84.6746 65.6211C84.7089 66.147 84.523 66.5163 84.523 66.5163C84.523 66.5163 84.9306 66.4934 85.2229 66.7231C85.5026 66.943 85.7059 67.17 85.8308 67.5233C86.042 68.1209 85.9807 68.8972 85.7003 69.2659C85.6142 69.379 85.2632 69.5991 85.2632 69.5991C85.2632 69.5991 85.581 69.8323 85.6789 70.1771C85.7579 70.455 85.8435 71 85.639 71.5435C85.4846 71.953 84.8005 72.7881 84.4815 72.9854C83.9673 73.3032 83.457 73.2832 83.0862 73.2497C82.6304 73.2086 82.3163 72.9542 82.2862 72.9579C82.286 72.9579 82.0567 73.4549 82.0147 73.506C81.3887 74.2705 81.0065 74.1761 80.5151 74.1792C79.9273 74.1832 79.5941 73.8932 79.2583 73.5729C79.1496 73.4692 78.9157 73.0459 78.9157 73.0459C78.9157 73.0459 78.6476 73.4933 78.2334 73.5455C77.7753 73.6033 76.915 73.4549 76.5976 72.895C76.523 72.7632 76.5591 72.3259 76.5591 72.3259C76.5591 72.3259 76.0061 72.4391 75.835 72.4283C75.6639 72.4175 75.121 72.3304 74.8176 72.1053C74.3291 71.7435 74.1963 71.1447 74.2269 70.6891C74.2574 70.2332 74.5443 70.0052 74.5443 70.0052C74.5443 70.0052 74.0519 70.0129 73.9004 69.9593C73.5268 69.8271 73.1901 69.5382 72.9696 69.1994C72.3471 68.2425 72.6628 66.6302 73.4576 65.8942C74.3262 65.0898 75.343 65.327 75.343 65.327Z" fill="#BDB498"/>
<path d="M71.3418 104.928C71.3418 103.255 75.3657 101.898 80.3293 101.898C85.2932 101.898 89.3171 103.255 89.3171 104.928C89.3171 106.602 85.2932 107.958 80.3293 107.958C75.3657 107.958 71.3418 106.602 71.3418 104.928Z" fill="#868686"/>
<path d="M71.3325 104.706C71.3325 103.032 75.3565 101.676 80.3201 101.676C85.2839 101.676 89.3078 103.032 89.3078 104.706C89.3078 106.379 85.2839 107.735 80.3201 107.735C75.3565 107.735 71.3325 106.379 71.3325 104.706Z" fill="white"/>
<path d="M75.8599 104.237C75.8599 103.407 77.8569 102.733 80.3203 102.733C82.7837 102.733 84.7807 103.407 84.7807 104.237C84.7807 105.068 82.7837 105.741 80.3203 105.741C77.8569 105.741 75.8599 105.068 75.8599 104.237Z" fill="#868686"/>
<path d="M75.8599 104.404C75.8599 103.574 77.8569 102.9 80.3203 102.9C82.7837 102.9 84.7807 103.574 84.7807 104.404C84.7807 105.234 82.7837 105.908 80.3203 105.908C77.8569 105.908 75.8599 105.234 75.8599 104.404Z" fill="white"/>
<path d="M71.1834 82.3309C72.2645 82.4708 73.9418 83.8802 73.0164 87.4944C72.0911 91.1089 71.4314 95.5356 68.5249 95.465C65.6183 95.3943 64.7158 93.69 64.9598 91.143C65.2039 88.596 67.3328 81.832 71.1834 82.3309Z" fill="#A49C83"/>
<path d="M71.0072 82.1267C72.0882 82.2668 73.7656 83.676 72.8402 87.2905C71.9149 90.9048 71.2552 95.3317 68.3486 95.2611C65.4421 95.1902 64.5394 93.4858 64.7836 90.9391C65.0276 88.3921 67.1566 81.6281 71.0072 82.1267Z" fill="#BDB498"/>
<path d="M70.2409 82.6905C70.2559 82.697 69.8888 82.2514 69.7702 82.1524C69.4073 81.8494 69.013 81.6902 68.1573 81.6392C67.3014 81.5885 66.5866 82.3156 66.4471 82.5022C66.3112 82.6841 65.782 83.2457 65.7107 83.8923C65.6392 84.5391 65.787 85.3367 65.8967 85.6985C65.9483 85.8687 66.4323 86.5852 66.593 86.7995C66.8083 87.0867 67.5886 87.8379 67.8037 88.0241C67.9727 88.1705 68.9941 88.7988 69.2834 88.9426C69.3965 88.9987 70.131 89.3311 70.3621 89.3884C71.5313 89.6792 71.8547 89.3095 71.9231 89.1931C71.9906 89.0779 72.1895 88.3407 72.118 88.3099C71.8919 88.2129 71.7366 88.1118 71.4463 87.9915C71.0757 87.8379 70.9289 87.7575 70.6232 87.6182C70.1591 87.407 70.0055 87.2541 69.5673 86.9942C69.2379 86.7991 69.1822 86.744 68.6931 86.3875C68.5511 86.2842 68.1269 85.9261 67.9436 85.727C67.81 85.5817 67.4616 85.1646 67.2712 84.9012C67.2226 84.8337 66.6712 84.1158 66.6838 83.8198C66.6955 83.5444 67.2217 83.3517 67.2702 83.3278C67.8987 83.016 68.4559 83.0919 69.0662 83.3228C69.2424 83.3895 69.4885 83.7743 69.6278 83.6568C69.9053 83.423 70.1584 83.1744 70.2098 82.935C70.2333 82.8265 70.2224 82.6826 70.2409 82.6905Z" fill="#DCDCDC"/>
<path d="M69.195 81.7831C69.195 81.7831 71.3951 76.9035 79.1462 78.0167C86.897 79.1301 87.7344 83.6388 87.722 83.7122C87.4083 85.5714 86.5697 92.9572 80.5514 94.6917L77.5378 92.6885L73.4476 93.4213C73.4476 93.4213 69.0109 92.7344 69.195 81.7831Z" fill="#868686"/>
<path d="M69.195 81.616C69.195 81.616 71.3953 76.7363 79.1462 77.8498C86.897 78.963 87.7344 83.4716 87.7222 83.545C87.4083 85.4042 86.5697 92.7903 80.5514 94.5246L77.538 92.5213L73.4476 93.2542C73.4476 93.2542 69.0111 92.5675 69.195 81.616Z" fill="white"/>
<path d="M77.7891 89.0858C77.7891 89.0858 81.4827 89.6381 81.7284 91.8878C81.9741 94.1376 80.1974 95.5723 77.5773 95.1338C74.4832 94.6158 72.91 93.5352 72.7568 92.0352C72.539 89.9031 73.8096 88.5419 77.7891 89.0858Z" fill="#868686"/>
<path d="M77.7429 89.2713C77.7429 89.2713 81.4365 89.8238 81.6822 92.0735C81.9277 94.3233 80.1512 95.758 77.5309 95.3193C74.4369 94.8013 72.8636 93.7207 72.7105 92.2207C72.4926 90.0886 73.7632 88.7276 77.7429 89.2713Z" fill="white"/>
<path d="M77.7156 89.6502C77.7156 89.6502 81.0776 90.153 81.301 92.2007C81.5246 94.2485 79.9076 95.5544 77.5228 95.1551C74.7066 94.6837 73.2745 93.7 73.1351 92.3348C72.937 90.3941 74.0935 89.1551 77.7156 89.6502Z" fill="#868686"/>
<path d="M77.7156 89.4646C77.7156 89.4646 81.0776 89.9674 81.301 92.0151C81.5246 94.0629 79.9076 95.3688 77.5228 94.9695C74.7066 94.4981 73.2745 93.5145 73.1351 92.1492C72.937 90.2085 74.0935 88.9697 77.7156 89.4646Z" fill="#F1F1F1"/>
<path d="M86.9637 83.3777C85.7536 83.6695 84.0064 85.358 85.4504 88.9806C86.8943 92.6032 88.1258 97.1044 91.4127 96.6371C94.6996 96.1701 95.5364 94.2803 94.9814 91.6723C94.4263 89.0644 91.2738 82.3386 86.9637 83.3777Z" fill="#A49C83"/>
<path d="M87.1956 83.1364C85.9857 83.4282 84.2383 85.1168 85.6823 88.7394C87.1264 92.362 88.3579 96.8631 91.6448 96.3959C94.9315 95.9288 95.7685 94.0391 95.2133 91.431C94.6584 88.8231 91.5059 82.0976 87.1956 83.1364Z" fill="#BDB498"/>
<rect x="40" y="28" width="29" height="12" rx="6" fill="white"/>
<path d="M48.0446 34.3275V33.6825H45.3746V34.3275H48.0446ZM53.8143 33.81C53.6643 34.7475 52.9968 35.3775 52.1268 35.3775C51.1293 35.3775 50.4843 34.8 50.3043 33.8625H52.8693V33.57H50.2668C50.2593 33.495 50.2593 33.42 50.2593 33.345C50.2593 33.255 50.2593 33.165 50.2668 33.0825H52.8693V32.7975H50.3118C50.4843 31.875 51.1218 31.3125 52.0368 31.3125C52.8468 31.3125 53.4693 31.83 53.6118 32.625L54.4818 32.4075C54.2643 31.26 53.2968 30.495 52.0368 30.495C50.5593 30.495 49.5693 31.38 49.3668 32.7975H48.5793V33.0825H49.3368C49.3293 33.165 49.3293 33.255 49.3293 33.345C49.3293 33.42 49.3293 33.495 49.3368 33.57H48.5793V33.8625H49.3593C49.5543 35.295 50.5593 36.1875 52.1193 36.1875C53.4918 36.1875 54.5118 35.31 54.6993 33.9675L53.8143 33.81ZM58.6513 36V35.2425H57.4963V30.6825H56.6413C56.3788 31.1475 55.9213 31.4625 55.2613 31.6275L55.5463 32.4525C56.0038 32.295 56.3713 32.085 56.5663 31.77H56.5738V35.2425H55.1338V36H58.6513ZM61.2937 36.1725C62.6962 36.1725 63.6262 35.0025 63.6262 33.345C63.6262 31.6875 62.6962 30.5175 61.2937 30.5175C59.8912 30.5175 58.9537 31.6875 58.9537 33.345C58.9537 35.0025 59.8912 36.1725 61.2937 36.1725ZM61.2937 35.3775C60.4387 35.3775 59.8762 34.53 59.8762 33.345C59.8762 32.16 60.4387 31.3125 61.2937 31.3125C62.1487 31.3125 62.7112 32.16 62.7112 33.345C62.7112 34.53 62.1487 35.3775 61.2937 35.3775Z" fill="black"/>
<path d="M46.5 40V44.5L49.5 40H46.5Z" fill="white" stroke="white" stroke-linejoin="round"/>
<rect x="74" y="45" width="29" height="12" rx="6" fill="white"/>
<path d="M82.0446 51.3275V50.6825H79.3746V51.3275H82.0446ZM87.8143 50.81C87.6643 51.7475 86.9968 52.3775 86.1268 52.3775C85.1293 52.3775 84.4843 51.8 84.3043 50.8625H86.8693V50.57H84.2668C84.2593 50.495 84.2593 50.42 84.2593 50.345C84.2593 50.255 84.2593 50.165 84.2668 50.0825H86.8693V49.7975H84.3118C84.4843 48.875 85.1218 48.3125 86.0368 48.3125C86.8468 48.3125 87.4693 48.83 87.6118 49.625L88.4818 49.4075C88.2643 48.26 87.2968 47.495 86.0368 47.495C84.5593 47.495 83.5693 48.38 83.3668 49.7975H82.5793V50.0825H83.3368C83.3293 50.165 83.3293 50.255 83.3293 50.345C83.3293 50.42 83.3293 50.495 83.3368 50.57H82.5793V50.8625H83.3593C83.5543 52.295 84.5593 53.1875 86.1193 53.1875C87.4918 53.1875 88.5118 52.31 88.6993 50.9675L87.8143 50.81ZM92.6513 53V52.2425H91.4963V47.6825H90.6413C90.3788 48.1475 89.9213 48.4625 89.2613 48.6275L89.5463 49.4525C90.0038 49.295 90.3713 49.085 90.5663 48.77H90.5738V52.2425H89.1338V53H92.6513ZM95.2937 53.1725C96.6962 53.1725 97.6262 52.0025 97.6262 50.345C97.6262 48.6875 96.6962 47.5175 95.2937 47.5175C93.8912 47.5175 92.9537 48.6875 92.9537 50.345C92.9537 52.0025 93.8912 53.1725 95.2937 53.1725ZM95.2937 52.3775C94.4387 52.3775 93.8762 51.53 93.8762 50.345C93.8762 49.16 94.4387 48.3125 95.2937 48.3125C96.1487 48.3125 96.7112 49.16 96.7112 50.345C96.7112 51.53 96.1487 52.3775 95.2937 52.3775Z" fill="black"/>
<path d="M80.5 57V61.5L83.5 57H80.5Z" fill="white" stroke="white" stroke-linejoin="round"/>
<rect x="13" width="29" height="12" rx="6" fill="white"/>
<path d="M21.0446 6.3275V5.6825H18.3746V6.3275H21.0446ZM26.8143 5.81C26.6643 6.7475 25.9968 7.3775 25.1268 7.3775C24.1293 7.3775 23.4843 6.8 23.3043 5.8625H25.8693V5.57H23.2668C23.2593 5.495 23.2593 5.42 23.2593 5.345C23.2593 5.255 23.2593 5.165 23.2668 5.0825H25.8693V4.7975H23.3118C23.4843 3.875 24.1218 3.3125 25.0368 3.3125C25.8468 3.3125 26.4693 3.83 26.6118 4.625L27.4818 4.4075C27.2643 3.26 26.2968 2.495 25.0368 2.495C23.5593 2.495 22.5693 3.38 22.3668 4.7975H21.5793V5.0825H22.3368C22.3293 5.165 22.3293 5.255 22.3293 5.345C22.3293 5.42 22.3293 5.495 22.3368 5.57H21.5793V5.8625H22.3593C22.5543 7.295 23.5593 8.1875 25.1193 8.1875C26.4918 8.1875 27.5118 7.31 27.6993 5.9675L26.8143 5.81ZM31.6513 8V7.2425H30.4963V2.6825H29.6413C29.3788 3.1475 28.9213 3.4625 28.2613 3.6275L28.5463 4.4525C29.0038 4.295 29.3713 4.085 29.5663 3.77H29.5738V7.2425H28.1338V8H31.6513ZM34.2937 8.1725C35.6962 8.1725 36.6262 7.0025 36.6262 5.345C36.6262 3.6875 35.6962 2.5175 34.2937 2.5175C32.8912 2.5175 31.9537 3.6875 31.9537 5.345C31.9537 7.0025 32.8912 8.1725 34.2937 8.1725ZM34.2937 7.3775C33.4387 7.3775 32.8762 6.53 32.8762 5.345C32.8762 4.16 33.4387 3.3125 34.2937 3.3125C35.1487 3.3125 35.7112 4.16 35.7112 5.345C35.7112 6.53 35.1487 7.3775 34.2937 7.3775Z" fill="black"/>
<path d="M19.5 12V16.5L22.5 12H19.5Z" fill="white" stroke="white" stroke-linejoin="round"/>
</svg>
