<svg id="aa303e6c-4e9c-48ad-b3ec-53dfecd593b8" data-name="Livello 1" xmlns="http://www.w3.org/2000/svg" viewBox="0 0 327.65 247.23"><defs><style>.e01d8a09-2c0f-4db5-85e3-c72a4e5e79c5{fill:#3b1f2b;}</style></defs><title>cassetta</title><path class="e01d8a09-2c0f-4db5-85e3-c72a4e5e79c5" d="M327.63,198c0-2.12-.16-4.25-.3-6.36-.37-5.35-.86-10.68-1.58-16a26.31,26.31,0,0,0-.79-4.29,1.09,1.09,0,0,0-1.35-1.31h0c-.07-.44-.15-.87-.24-1.3-.05-.27-.1-.55-.14-.82l-.06-.35v-.08l0-.22c0-.31,0-.62,0-.93l.28,0h0a.83.83,0,0,0,1,.29c1.31-.45.95-2.71.93-3.76-.06-2.6-.24-5.2-.44-7.79-.43-5.65-.89-11.36-1.84-16.95a7.87,7.87,0,0,0-.54-2.25,25,25,0,0,0-2-2.73,1.39,1.39,0,0,0-.21-.21c-.07-.66-.14-1.3-.18-1.93-.12-1.79-.21-3.58-.28-5.37-.12-2.9-.15-5.8-.13-8.7,0-5.5.32-11,.48-16.48q.18-6.33.17-12.65s0,0,0,0a1.06,1.06,0,0,0,.11-1.52c-2.51-3.19-4.93-6.47-7.5-9.63a1,1,0,0,0-1.38,0c-3.59,4.08-8.17,7.15-11.72,11.25a1,1,0,0,0,0,1.3,1.09,1.09,0,0,0,.21.54c-.06,5.82-.39,11.62-.73,17.42l-.6-1a1.38,1.38,0,0,0-.06-.26,1.63,1.63,0,0,0-.4-.55C290.48,91.39,283.74,77,275.48,63.41c2-.06,4.06-.43,6.1-.47a6,6,0,0,1,4.35,1.55c3.06,2.65,5,6.33,8,9,.78.7,2.36,0,1.92-1.11-2-5.22-1.54-11-4-16a38.2,38.2,0,0,0-9.59-12c-5.75-5-15.43-11.82-23.07-7.11q.07-6.4.16-12.83c0-2.45.08-4.9.09-7.35a72,72,0,0,0-.1-8,.88.88,0,0,0-.31-.6,1,1,0,0,0,.56-1.25,13.08,13.08,0,0,0-2.9-5.66C255.61.45,254.59-.24,253,.08a106.8,106.8,0,0,1-12.83,1.83,1.14,1.14,0,0,0-.37,0l-.32,0a1,1,0,0,0-.72,1.75,6.4,6.4,0,0,0,.51.4c0,1.78-.17,3.55-.27,5.33a32.54,32.54,0,0,0,.27,6.24c.46,3.62-.25,7.16-.59,10.75q-1.71-.29-3.45-.45a41.11,41.11,0,0,0-8.15.05A30,30,0,0,0,213,30.93a22.26,22.26,0,0,0-7.76,10.23C203,33.54,193.5,29.32,186.31,27.44a27.44,27.44,0,0,0-16.1.21A25.42,25.42,0,0,0,157.14,38.2a21.52,21.52,0,0,0-2.84,8.12.17.17,0,0,0,0,.07.66.66,0,0,0-.14,0q-16.46,2.17-32.92,4.42a.85.85,0,0,0-.42.17c-1,0-2,0-3,.06a25.4,25.4,0,0,0-7.36,1.39,14.61,14.61,0,0,1,.84-1.57A20.13,20.13,0,0,1,114,47.29a1.05,1.05,0,0,0-.74-1.78l-.59-.06-.21,0h0l-.5-.07c-.75-.11-1.5-.22-2.25-.31a10.45,10.45,0,0,0-3.86-.09,3.06,3.06,0,0,0-1.89,2.67,20.31,20.31,0,0,0-.15,4.41c0,.16,0,.31,0,.47a30,30,0,0,0-5.08-3.31c-3.32-1.73-7-1.79-10.71-1.62-7.23.33-13.93,2.9-20.08,6.63-1.77,1.08-3.51,2.22-5.22,3.4a1.42,1.42,0,0,0-.13-.51c-1.38-3.05-4.81-4.41-7.91-5a37.36,37.36,0,0,0-11.32,0c-7.74,1-15.95,4.11-20.82,10.51a16,16,0,0,0-2.6,5.14,7.72,7.72,0,0,1-1.52.09c0-.48-.05-1-.08-1.46-.39-7.55-.53-15.09-.5-22.66a.85.85,0,0,0,0-.23A1.09,1.09,0,0,0,17,41.72c-4.91-.32-9.74.87-14.63.89a1,1,0,0,0-.93,1.51c-.21,9,.27,18,.38,26.91,0,1.1,0,2.2,0,3.31a1,1,0,0,0-.33.15.94.94,0,0,0-.65.82c-.11,1.19,0,2.44,0,3.63,0,1.77,0,3.54,0,5.32C.91,89.33.6,94.47.77,99.54a.93.93,0,0,0,.1.8.13.13,0,0,0,0,.06c-.12-.14.18.3.25.41.18.31.34.62.5.93l.47,1C2,104.14,2,105.59,2,107c0,.35,0,.7,0,1a1,1,0,0,0-1.43,1.29l0,0c-.05,1,0,2,0,3,0,1.63-.06,3.27-.11,4.91q-.11,3.21-.19,6.41c-.08,2.89-.3,5.81-.18,8.69h0a1,1,0,0,0,.18.92,21.1,21.1,0,0,1,2,3.92c1,2.29,1.92,4.62,2.84,6.94,1.77,4.48,3.43,9,5.27,13.46,2.3,5.57,4.73,11.1,7.1,16.66q5.6,13.17,11.21,26.34Q34.3,214,40,227.37c2.53,5.86,4.91,11.84,7.7,17.58.1.21.21.41.32.61a1,1,0,0,0,.61,1.24l.12,0a1.09,1.09,0,0,0,1.51.17c.73,0,1.48-.14,2.07-.19,2.61-.22,5.22-.54,7.81-.88,7.83-1,15.63-2.26,23.42-3.51,15.23-2.43,30.5-4.88,45.63-7.89,4.11-.82,8.19-1.78,12.31-2.55,7.89-1.48,15.83-2.66,23.72-4.11s15.9-3.3,23.89-4.78,15.94-2.71,23.9-4.12c7.8-1.38,15.61-2.86,23.51-3.65,3.81-.37,7.61-.74,11.42-1.17,9.24-1,18.5-2.08,27.7-3.47,7.57-1.14,15.1-2.62,22.63-4,8.52-1.53,17.07-3,25.53-4.82,1-.21,1.93-.42,2.88-.7a1.06,1.06,0,0,0,.79-1.09A7.29,7.29,0,0,0,327.63,198Zm-6.38-28.85c.08.46.17.91.25,1.37l-2.16.38-10,1.86-4.64.85a13,13,0,0,0-.28-2.7c-.09-.48-.18-.95-.26-1.42,0-.1,0-.2-.05-.31v-.06a1.49,1.49,0,0,0,0-.21q0-.3,0-.6c2.27-.24,4.55-.47,6.82-.69q5-.49,10-1A17.08,17.08,0,0,0,321.25,169.13ZM49.55,218s0,0-.08,0l-.18-.44c-.37-.9-.74-1.81-1.1-2.71-.44-1.08-.86-2.16-1.29-3.24,0-.55,0-1.09,0-1.64,0-1,.07-2,0-3,0-.23,0-.45-.06-.67.11.28.21.56.32.83q1,2.47,2,4.93a1.15,1.15,0,0,0,.78.67l.13.05a40.3,40.3,0,0,0,.36,5.26ZM3.74,109.58q0-1.27,0-2.55c0-.3,0-.61,0-.91,1.28,2.67,2.54,5.34,3.79,8q3.08,6.66,6.1,13.35a1.27,1.27,0,0,0-.31.84v1.07c-.48-1-1-2.07-1.5-3.08-1.54-2.93-3.25-5.76-4.74-8.71-1.1-2.17-2.19-4.33-3.34-6.46C3.78,110.63,3.74,110.1,3.74,109.58ZM83.81,74.27c0,.71,0,1.43,0,2.15-4.52-2.4-10.12-1.12-14.59,1A9.91,9.91,0,0,0,69,74.88a26.29,26.29,0,0,0-.68-3.17,20.31,20.31,0,0,0-1.48-3.81,36.91,36.91,0,0,0,7.58-.12c3.39-.35,6.75-.76,10.16-.93l.31,0A27.05,27.05,0,0,0,83.81,74.27ZM69.07,79.55a.93.93,0,0,0,.53-.1c4.32-2.18,10-3.63,14.28-.64a30.77,30.77,0,0,0,.77,5.25c1,3.86,3.21,7.33,5.42,10.58,1.14,1.68,2.34,3.33,3.45,5,.89,1.37,1.74,2.76,2.71,4.07-8-.17-16.17,3-20.59,10l-.17.3a16.37,16.37,0,0,1-11.54-5,18.13,18.13,0,0,1-4.86-11.87,1,1,0,0,0-.17-.51,21.06,21.06,0,0,0,5.33-4.26A18.75,18.75,0,0,0,69.07,79.55Zm71.58-3.33a1.74,1.74,0,0,0,.46.53.93.93,0,0,0,1.26,0c1,.28,2,.58,2.92.9-3.6,2.08-7,4.56-10.69,6.39-1.27.63-.16,2.54,1.11,1.91,3.44-1.73,6.52-4,9.76-6.08a28.47,28.47,0,0,0,3.28,3.4A24.83,24.83,0,0,1,150.5,85a5.65,5.65,0,0,1,.58.78,5.19,5.19,0,0,1,.31.5c.05.09.09.17.13.26s.13.29.06.11a1,1,0,0,0,1.25.71,1,1,0,0,0,.71-1.25A12.33,12.33,0,0,0,150.42,82l-.14-.13a23.53,23.53,0,0,0,3.16,0,44.64,44.64,0,0,0,5.26-.73,1,1,0,0,0,.28.31c6.64,5,10.33,12.94,11.11,21.18a1.25,1.25,0,0,0,0,.54s0,.05,0,.07a35,35,0,0,1-2.23,15.32.94.94,0,0,0-.23.55,29.12,29.12,0,0,1-6.08,9.31,29.58,29.58,0,0,1-12.4,7.4,22.4,22.4,0,0,0-1.14-3.05c-1.28-2.77-3.4-5-5.46-7.15a18.55,18.55,0,0,0-3.47-3c-1.12-.72-2.22-1.39-3.56-.94a19.88,19.88,0,0,0-3.09,1.56c-1.06.57-1.18.71-2.08-.08-1.75-1.53-3.41-4-5.85-4.42-3.44-.52-6.44.25-9.74,1.12a1.06,1.06,0,0,0-.53.34,25.89,25.89,0,0,0-3.45,1c-3.76-10.72-3-23.23,1.11-33.74,1.71-4.45,4.38-8.45,8.7-10.7,3.71-2,8-2.31,12.15-2A44.93,44.93,0,0,1,140.65,76.22Zm3.69-9.48c.48,2.27,1,4.5,1.71,6.71a26.91,26.91,0,0,1-2.69-2.75,3,3,0,0,1-.63-2.81A1.78,1.78,0,0,1,144.34,66.74Zm33.5-19.06a20.79,20.79,0,0,1,5.79.19c1.69.36,3.89,1.18,4.35,3.06.55,2.22-1.4,4.75-2.46,6.54s-2.07,3.44-3.17,5.12a49.22,49.22,0,0,1-8.43,10.26,19.46,19.46,0,0,1-7.67,4,66.46,66.46,0,0,1-10.79,2.49,24,24,0,0,1-5.08.22,6.9,6.9,0,0,1-2.2-.47l.15-.17c.64.17,1.42-.28,1.13-1.07a.65.65,0,0,0,0-.13c1.91-2.17,3.75-4.41,5.64-6.59,1.06-1.23,2.18-2.41,3.3-3.57,5.14-1.69,10.79-2.26,15.37-5.29a1,1,0,0,0-1-1.71c-3.58,2-7.52,2.89-11.41,4l.92-1c2-2.15,4-4.36,6.17-6.34,1.78-1.62,4.09-3.63,6.64-3.67a1.2,1.2,0,0,0,0-2.4c-2.75,0-5.15,1.67-7.19,3.36a70.09,70.09,0,0,0-6.69,6.66c-2.37,2.56-4.91,4.94-7.21,7.57-1.57,1.79-3.09,3.62-4.63,5.44a11.47,11.47,0,0,1,.14-1.27,29,29,0,0,1,1.25-5A29.49,29.49,0,0,1,154.94,59C160.36,51.89,169.1,48.34,177.84,47.68ZM204.58,58a30.38,30.38,0,0,0,1.88,4.76c-1.29-.16-2.6-.24-3.9-.27.19-.28.37-.56.54-.83a14.25,14.25,0,0,0,1.11-2.45C204.35,58.82,204.47,58.41,204.58,58Zm12.9,10.44a23.61,23.61,0,0,1,12,13.29,28.26,28.26,0,0,1-.64,19.48c-.25.65-.53,1.29-.83,1.92a1,1,0,0,0-.29.4c-.12.27-.23.55-.35.83a26.82,26.82,0,0,1-10,10.45A32.65,32.65,0,0,1,201.15,119a39.7,39.7,0,0,1-15.1-3c-4.89-2-9.59-5.2-12.19-9.92a16.87,16.87,0,0,1-1.48-3.63,1.27,1.27,0,0,0-.37-.58,34.86,34.86,0,0,0-2.5-9.91c-.4-1-.86-1.87-1.34-2.77a31,31,0,0,1,19.93-22.1C197.49,63.71,208.48,63.94,217.48,68.44Zm16.9,18a8.26,8.26,0,0,0,1,.18c-.76.55-1.51,1.12-2.22,1.7-.06-.8-.15-1.6-.27-2.39h0A11.61,11.61,0,0,0,234.38,86.43Zm38.7-23.14c.51.83,1,1.68,1.51,2.52-3.63-.46-7.33-1-11-1.65a18.67,18.67,0,0,0,.35-4.81c.21.17.41.35.63.51A18.72,18.72,0,0,0,273.08,63.29ZM263.14,66c1.8.34,3.61.66,5.41,1,2,.32,4,.66,6.06.78a.92.92,0,0,0,.83-.52q1.35,2.31,2.66,4.63c-.61,0-1.22,0-1.84,0l-.49,0-.29,0h-.06a6.22,6.22,0,0,1-1-.26h0a20.1,20.1,0,0,0-6.56-4,7.51,7.51,0,0,0-5.18-.05C262.82,67,263,66.5,263.14,66Zm18.11,11.56-1.75.14a24.83,24.83,0,0,0-3-4.06,8.38,8.38,0,0,0,2-.12.77.77,0,0,0,.38-.25C279.69,74.7,280.48,76.12,281.25,77.56Zm6.88,13a26.64,26.64,0,0,1-2.67-.2,18,18,0,0,0-1.93-.18,14.74,14.74,0,0,0-.18-1.47c-.1-.63-.23-1.26-.38-1.89l.27.06a4.19,4.19,0,0,0,1.12,0,3,3,0,0,0,1.38-.44.65.65,0,0,0,.18-.15Zm3.22,6.11c-2,0-4-.08-6-.28-.81-.07-1.61-.18-2.42-.29a19.27,19.27,0,0,0,.6-3.91c1.82.1,3.62.58,5.45.3l.12-.06Q290.22,94.59,291.35,96.7Zm26.37,28c0,1.89.14,3.77.25,5.65a39.69,39.69,0,0,0,.51,6.54c-4.65.44-9.31,1.32-13.9,2l-3.32.49c0-1.58-.28-3.21-.37-4.76-.1-1.86-.17-3.71-.22-5.57-.07-3.11,0-6.22.05-9.33.18-6,.63-12,.89-17.92q.24-5.9.25-11.79c5.51-.9,11.18-.72,16.65-1.81C318.45,100.35,317.34,112.52,317.72,124.68ZM298.79,134c.09,1.84,0,3.86.32,5.73-3.95.58-7.9,1.17-11.82,1.89-3.7.67-7.37,1.56-11.05,2.34l-1.17.25a1.19,1.19,0,0,0-.29-.85,14.76,14.76,0,0,1-3.86-8.57c8.33-4.48,14-14.26,13.21-23.73-.07-.7-.15-1.4-.25-2.1a21.39,21.39,0,0,1,8.63,2,16.19,16.19,0,0,1,5.82,5,.91.91,0,0,0,.51.29c-.18,4-.29,7.9-.24,11.85C298.63,130,298.7,132,298.79,134ZM130.08,167.83l-3.58.73a17.93,17.93,0,0,1-5.37-.15c-9.44-1.83-19.84-7.58-22.67-17.37a33.6,33.6,0,0,1-1.29-9.72,15.85,15.85,0,0,1,3.3-9.16,26,26,0,0,1,14.82-9.65,1.13,1.13,0,0,0,.84-.76,20.94,20.94,0,0,1,7.22-.87,3.59,3.59,0,0,1,2.48,1.13c.45.4.87.82,1.29,1.24a3.05,3.05,0,0,0-.31,1.49,8.54,8.54,0,0,0,0,1.13,5.28,5.28,0,0,0,.55,2.11l.07.11a10.58,10.58,0,0,0-3.25,2,11.14,11.14,0,0,0-1.27,1.39,7.7,7.7,0,0,0-.63.87,9.41,9.41,0,0,0-.47,1,.9.9,0,0,0,1.65.69c.31-.47.64-1,1-1.4l.07-.09.08-.11.3-.36c.19-.22.4-.43.61-.64a8.39,8.39,0,0,1,.63-.56l.16-.13.08-.06.34-.25.75-.45.37-.18.18-.08.13-.06a1,1,0,0,0,.55-.46,4.55,4.55,0,0,0,2.1.5l.68,0a.87.87,0,0,0,.15.2c2.76,2.45,3,6.22,4.71,9.33a.82.82,0,0,0,1.48-.63c-1.08-3.17-1.91-6.76-4.24-9.27l.2-.05a1,1,0,0,0,.72-.94,3.8,3.8,0,0,0-1.23-2.92c.63-.32,1.25-.67,1.87-1a4.61,4.61,0,0,1,1.07-.52c.5-.1.63,0,1.12.32,2.4,1.35,4.11,3.54,5.94,5.54a17.15,17.15,0,0,1,3.94,7.49,46.3,46.3,0,0,1,1.25,8.54,20.55,20.55,0,0,1-.85,8.21,33.7,33.7,0,0,1-3.86,7.56,11.31,11.31,0,0,1-5,4.34,15.13,15.13,0,0,1-1.75.62C134.64,166.94,132.36,167.36,130.08,167.83Zm-41,6.22a42.48,42.48,0,0,0-8.41.73c-3.55.54-7.08,1.14-10.62,1.74l-6.15,1.07a.94.94,0,0,0,.06-.3c0-2.57-.25-5.16-.39-7.73q-.28-5.46-.51-10.94-.35-7.94-.62-15.87a1.05,1.05,0,0,0,.24-.27c.35-.57.58-1.2,1-1.75A8.56,8.56,0,0,1,65,139.28a12.49,12.49,0,0,1,3.58-2.13,13.42,13.42,0,0,1,7.88-.86,34.68,34.68,0,0,0,3.68,5.15,24.84,24.84,0,0,0,14.8,8.13,1,1,0,0,0,.64-.11,23.93,23.93,0,0,0,1.89,5.77,23.3,23.3,0,0,0,4.74,6.41l.3.27a58.25,58.25,0,0,1-2.48,7.16c-.85,1.84-2,3.84-3.9,4.66A41.88,41.88,0,0,1,89,174.05ZM37,147.57a12.11,12.11,0,0,0,2.62-.77c.73,5.27,1.47,10.53,2.13,15.81.18,1.41.36,2.82.51,4.24q-4-9.69-8-19.37A8,8,0,0,0,37,147.57Zm5.54,5.27c-1.07-7.76-2.21-15.52-3-23.32-.2-1.88-.39-3.77-.51-5.66,1.27,2.11,2.57,4.21,4,6.2q2.19,20.26,3.92,40.58c.25,2.88.46,5.76.74,8.63-.22-.33-.42-.62-.45-.68-.42-.76-.81-1.54-1.17-2.33-.53-1.17-1-2.38-1.4-3.59a1,1,0,0,0,.17-.59C44.45,165.64,43.39,159.21,42.51,152.84ZM72.9,126.18A25.5,25.5,0,0,0,75.26,134a15.89,15.89,0,0,0-7.54,1.16,15.28,15.28,0,0,0-4.29,2.55,13.52,13.52,0,0,0-1.16,1.13c0-1.08-.08-2.15-.11-3.23,2.22-1.91,5.22-2.62,7.37-4.65a19.4,19.4,0,0,0,3-4.2C72.69,126.59,72.79,126.38,72.9,126.18Zm-28.38,2.49c-1.58-2.24-3-4.59-4.44-6.95,5.35,1.26,10.62,3,16.05,3.82-2,.67-4.11,1.24-6.16,1.79C48.16,127.81,46.35,128.26,44.52,128.67ZM48,161.9q-1-10.69-2.08-21.4c-.33-3.25-.69-6.51-1.09-9.76a84.16,84.16,0,0,0,14.95-4.25c.25,14,.84,28,1.55,42a80.12,80.12,0,0,0,.65,9,1,1,0,0,0,.13.34c-4,.71-8,1.4-12,2l-.58.09s0,0,0-.08C49.24,173.9,48.58,167.89,48,161.9Zm53.72,8.57a49.09,49.09,0,0,0,2.51-7.07,38.55,38.55,0,0,0,12,6.16l1.39.43c-3.25.45-6.51.89-9.71,1.55-2.57.53-5.16,1.09-7.76,1.56A16,16,0,0,0,101.74,170.47ZM131.3,126a.88.88,0,0,0,.24.48,6.26,6.26,0,0,1,.52.51l.1.12h0a2.75,2.75,0,0,1,.19.28c0,.07.13.3.06.1l0,.08c-.15,0-.3.08-.46.1l-.28.05h-.07l-.54,0c-.26,0-.53,0-.79,0h-.09l-.19,0-.34-.11h0l-.15-.08a.57.57,0,0,0-.13-.08h0l-.23-.23-.07-.11a.93.93,0,0,1-.1-.2s0,0,0,0l0-.09s0,0,0,0h0l-.06-.2a2.23,2.23,0,0,1-.09-.39l0-.18h0V126a8.35,8.35,0,0,1,0-1.12s0-.05,0-.07A4,4,0,0,0,131.3,126Zm-2.55,0v0S128.75,126.09,128.75,126.07Zm18.83,33.59a34.33,34.33,0,0,0,1.95-4.17c.77,1.28,1.56,2.55,2.41,3.77a16.42,16.42,0,0,0,4.07,4.28l-1.46.23c-3.66.56-7.32,1.1-11,1.68A24.21,24.21,0,0,0,147.58,159.66Zm13,3.16a7.46,7.46,0,0,1-4.53-2.24,25.14,25.14,0,0,1-4-5.49,15.31,15.31,0,0,0-1.65-2.56c.07-.34.14-.68.19-1a34.37,34.37,0,0,0-.21-9.66,40.75,40.75,0,0,0-.71-4.12,31.11,31.11,0,0,0,19.62-17.51,16.72,16.72,0,0,1,5.51-.63c2.09,0,4.19-.12,6.28,0a20.17,20.17,0,0,1,11.68,4.33,27.45,27.45,0,0,1,10.13,19.25c0,.41.05.81.06,1.22a1.38,1.38,0,0,0-.17.87c0,.25.11.48.16.72a18.28,18.28,0,0,1-.63,4.13c-.59,2.13-1.48,4.16-2.09,6.28-7.64,1.21-15.27,2.48-22.9,3.75Q168.94,161.5,160.55,162.82Zm22.17-45.64a61.64,61.64,0,0,0-7.32,0,26.29,26.29,0,0,0-5.1.45,37.5,37.5,0,0,0,1.84-9.68A24.78,24.78,0,0,0,182.72,117.18Zm43.95,1.92a19.78,19.78,0,0,0,4.28,6.43,26.34,26.34,0,0,0,5.73,4l5.1,2.83a24.3,24.3,0,0,1-3.94,8.64c-1.89,2.85-4.17,5.75-7.19,7.46-5.49,3.11-13.15,3.47-19.15,1.64-2.62-.8-5.05-2.18-6-4.76,0-.38,0-.76,0-1.15a32.16,32.16,0,0,0-3-11.95,29.3,29.3,0,0,0-2-3.54,1.07,1.07,0,0,0,0-.25c0-.07-.09-.32-.11-.37s0-.44,0-.15c0-.07,0-.14,0-.21s0-.23,0-.35,0-.12,0-.16l.06-.27c.05-.16.11-.32.17-.48a.11.11,0,0,1,0-.06,2.72,2.72,0,0,1,.11-.25c.18-.35.38-.69.59-1s.44-.65.67-1l.19-.26,0,0,0,0c.12-.17.25-.33.38-.49.48-.59,1-1.18,1.41-1.8a1,1,0,0,0,.14-.33,32.5,32.5,0,0,0,21-9.84A14.94,14.94,0,0,0,226.67,119.1Zm-26,7.3Zm.14-4.36a22.53,22.53,0,0,0-1.65,2.23,8.49,8.49,0,0,0-.76,1.54,26.8,26.8,0,0,0-6.2-5.4,46.76,46.76,0,0,0,5.07.81,39.76,39.76,0,0,0,4.08.17ZM205,149.47c3.23,3.17,9.22,4.13,13.21,4.18h1c-3,.36-6.07.74-9.09,1.18-2.37.35-4.74.72-7.11,1.09A53.7,53.7,0,0,0,205,149.47Zm24.93,2c3.74-1.58,6.47-4.39,8.84-7.61,2.24-3,4.37-6.61,5.09-10.39.19.11.38.22.58.32a29.74,29.74,0,0,0,7.94,3.21h0a21.8,21.8,0,0,1-1.22,3c-1.16-.91-2.37-1.76-3.49-2.73-1-.84-2.37.54-1.41,1.41,1.25,1.13,2.65,2.08,3.93,3.17-.43.74-.87,1.47-1.36,2.17-.15.21-.3.43-.47.65a45.63,45.63,0,0,0-3.67-3.69.94.94,0,0,0-1.33,1.34c1.15,1.17,2.38,2.27,3.41,3.55q.15.18.3.39a8,8,0,0,1-3.27,2.27,6.08,6.08,0,0,0-1.08-1.63c-.4-.49-.82-.94-1.21-1.44l.11.14a1,1,0,0,0-.54-.41.9.9,0,0,0-.7.09.87.87,0,0,0-.42.54.84.84,0,0,0,.09.71c.47.62,1,1.2,1.47,1.81.27.36.5.75.76,1.11a1.5,1.5,0,0,0,.2.23,1.22,1.22,0,0,0,.21.65l-9.3,1.42c-2.52.38-5.06.7-7.59,1A26.18,26.18,0,0,0,229.92,151.51Zm33.93-9.42a.57.57,0,0,1,0,.12.13.13,0,0,1,0,0,5.28,5.28,0,0,1-.16.66,3,3,0,0,1-.11.32.79.79,0,0,1,0,.09l0,0a6.55,6.55,0,0,1-.32.58c-.11.18-.22.36-.34.53l-.2.27,0,.06-.05.06-.85,1a.53.53,0,0,0-.06.1c0-.39-.09-.78-.15-1.16a25.89,25.89,0,0,0,1.94-4.5l.18-.59c.25.34.48.7.74,1.13a1,1,0,0,0-.49.82C263.86,141.85,263.86,142,263.85,142.09Zm-5.76-.73a6.81,6.81,0,0,1,.45.73,8.83,8.83,0,0,1,.8,2.24,13.35,13.35,0,0,1-1.28,1.88c-.16.19-.34.38-.52.56l-.2.18-.07.06,0,0a2.26,2.26,0,0,1-.26.16l-.17.07c-.11-.2-.22-.41-.34-.61s-.28-.48-.41-.72A34.59,34.59,0,0,0,258.09,141.36Zm-1.29,5.91.11,0-.1,0Zm3.69-9.68a.72.72,0,0,0,.39,0h0l.1,0a2.52,2.52,0,0,0,.47.22l.09,0h0l.26.15h0v0c0,.21-.08.42-.13.63a12.33,12.33,0,0,1-.43,1.43c-.2.6-.42,1.15-.66,1.7-.12-.26-.21-.53-.34-.78a10.17,10.17,0,0,0-1.38-2c.17-.48.34-1,.49-1.44C259.75,137.65,260.12,137.61,260.49,137.59Zm-5.67.53a12.87,12.87,0,0,1,1.77,1.43c-.34.87-.66,1.75-1,2.6-.24.57-.51,1.16-.79,1.74a16.41,16.41,0,0,0-1.63-2.08c-.1-.11-.22-.2-.33-.31a23.61,23.61,0,0,0,1.5-3.92.76.76,0,0,0,0-.21h.09A.89.89,0,0,0,254.82,138.12Zm-2.95,9.9a3.12,3.12,0,0,1-.57.4,2,2,0,0,1-.53.25,2,2,0,0,1-.35.09h0a7.78,7.78,0,0,0-.52-1.63,5.44,5.44,0,0,0-.27-.54c.3-.38.59-.77.86-1.15.44-.64.87-1.3,1.27-2a18.77,18.77,0,0,1,1.85,2.5A9.75,9.75,0,0,1,251.87,148Zm-3.74.28h0a3.83,3.83,0,0,1,.16.58s0,.14,0,.19,0,.17,0,.19a1.49,1.49,0,0,0,0,.21l-2.12.35A11.81,11.81,0,0,0,248.13,148.3Zm6.6-.33a3.18,3.18,0,0,0,.16.32c-.16,0-.32.06-.48.09C254.52,148.25,254.62,148.11,254.73,148Zm10.21-3.06a7.07,7.07,0,0,0,.66-1.52l.09.24c.29.76.49,1.55.75,2.32h0l-2.64.54A12.41,12.41,0,0,0,264.94,144.91Zm3.4.66a5.9,5.9,0,0,0-.44-2.07,21.21,21.21,0,0,0-1.16-2.63,12.23,12.23,0,0,0-2.76-3.72,25.12,25.12,0,0,0,4.94-1.47,17.35,17.35,0,0,0,4.14,8.9Zm13.26-45.39c.28-.71.55-1.41.78-2.11.9.14,1.8.26,2.71.36a53.37,53.37,0,0,0,7.37.38q1.49,2.76,3,5.51-1-.19-2-.36c-2.9-.5-5.81-.93-8.71-1.43-.83-.14-1.68-.27-2.5-.48C282.06,101.42,281.84,100.8,281.6,100.18ZM285,84.84a4.39,4.39,0,0,1-.52.13,2.1,2.1,0,0,1-.24.06h-.06l-.37,0-.22,0h0c-.4-.08-.79-.19-1.17-.3a34.18,34.18,0,0,0-2-5.25c.59,0,1.18-.1,1.77-.13,1,1.82,1.94,3.65,2.9,5.47Zm-24.12-13.9a1,1,0,0,0,.86-.31c4.41-4.34,11.42,2.72,14.1,6a25.66,25.66,0,0,1,4.54,9.72,22.93,22.93,0,0,1,.84,4.49,1,1,0,0,0-.08.4,1.24,1.24,0,0,0,.11.42,11.5,11.5,0,0,1-.12,1.85,16.94,16.94,0,0,1-.52,2.24c-.39-.08-.78-.15-1.17-.24a34.24,34.24,0,0,0-11.27-12.66,22.45,22.45,0,0,0-14.34-3.44A38.79,38.79,0,0,0,260.92,70.94Zm2.67,12.29c4.78,1.94,8.58,5.87,11.5,10,.62.88,1.17,1.78,1.7,2.69a.9.9,0,0,0,.54,1,36.66,36.66,0,0,1,1.77,3.88,1,1,0,0,0,.16.42,40,40,0,0,1,1.65,5.72c1,4.81,1,9.37-.91,14a23.63,23.63,0,0,1-8.39,10.41,18.92,18.92,0,0,1-1.77,1.07,1,1,0,0,0-.72.35A25.08,25.08,0,0,1,257.37,135a22.35,22.35,0,0,1-7.79-1.57,62.5,62.5,0,0,1-7.46-3.94c-4.36-2.48-9-4.42-11.73-8.89a15.56,15.56,0,0,1-2.61-8.11c.07-2.78,1.35-5.42,2.21-8a.24.24,0,0,0,0-.08,32,32,0,0,0,3.2-13.7,1.08,1.08,0,0,0,.79-.26,39.37,39.37,0,0,1,14.15-7.51C253.08,81.61,258.78,81.27,263.59,83.23Zm-96.87,3.59a29.93,29.93,0,0,0-5.62-6.23c1.16-.27,2.32-.56,3.46-.87a39.83,39.83,0,0,0,6.5-2.21,29.92,29.92,0,0,0-3.6,6.95C167.18,85.24,166.94,86,166.72,86.82ZM142.84,73.3c.72.72,1.5,1.4,2.22,2.13-.74-.24-1.48-.47-2.23-.69,0-.34,0-.68,0-1ZM109,122s0,0,0,0a26.68,26.68,0,0,0-9.37,7.11,20.8,20.8,0,0,0-4.47,8.19,24.46,24.46,0,0,0,0,9.38c0,.3.09.6.14.9-4.63-.88-9-2.69-12.35-6.12A32.54,32.54,0,0,1,77.93,135s0-.06-.05-.09a26.18,26.18,0,0,1-2.39-5.52,17.55,17.55,0,0,1,1.26-13.56,18.8,18.8,0,0,1,8.45-7.86,25,25,0,0,1,12.88-2.09,22.26,22.26,0,0,0,8.54,4.69A43.89,43.89,0,0,0,109,122ZM57.11,97.64a20.16,20.16,0,0,0,5.4,12.83A18.36,18.36,0,0,0,74.45,116,18.53,18.53,0,0,0,73,120.55a1.08,1.08,0,0,0-.41.6,18,18,0,0,1-2,4.6,16.45,16.45,0,0,1-2.91,3.91c-1.65,1.45-3.74,2.23-5.59,3.39-.08-2.66-.15-5.33-.19-8a1,1,0,0,0-.17-.54,1.16,1.16,0,0,0-1-.69c-7.72-.26-15-3.21-22.5-4.71a1.29,1.29,0,0,0-.34,0,1,1,0,0,0-.91.36,28.68,28.68,0,0,1-1.41-2.62,34.72,34.72,0,0,1-2.34-6.57c-.88-3.52-1.63-8.42.64-11.62A35.59,35.59,0,0,0,41,100.84a17,17,0,0,0,8.82-.4A53.92,53.92,0,0,0,57.11,97.64ZM30.79,110.11a36.53,36.53,0,0,0,2.46,7.4c.83,1.87,1.9,4.4,3.52,5.74,0,0,0,0,0,0,.22,5.36,1.06,10.75,1.76,16,.23,1.79.48,3.59.72,5.38l-1,.36-.83.25-.38.09-.21,0-.13,0h-.06l-.22,0H36l-.42,0-.24,0H35.3c-.73-.15-1.42-.4-2.14-.54q-6-14.39-12-28.74s0,0,0,0a22.3,22.3,0,0,0,1-4.58,25.73,25.73,0,0,1,1.3-5,12.55,12.55,0,0,1,3-4.49,13.46,13.46,0,0,1,4.71-2.76C29.67,102.59,30.07,106.7,30.79,110.11Zm-.53,33.64q5.61,13.59,11.16,27.19c.21.5.42,1,.61,1.48a49.87,49.87,0,0,0,3.53,8.11A4.5,4.5,0,0,0,47,182.35c-.05,4.65.41,9.33.77,14,.2,2.53.39,5.05.57,7.58-.88-2.4-1.74-4.8-2.65-7.19-1.53-4-3.21-8-4.88-11.93-3.59-8.53-7.28-17-10.86-25.55-2.52-6-5.26-11.93-7.92-17.87q-5.72-12.83-11.58-25.58c-1.6-3.46-3.2-6.93-4.86-10.37-.84-1.75-1.67-3.57-2.68-5.24A1.74,1.74,0,0,0,3,100C3.2,97,3.1,94,3.12,91.06c0-2.32,0-4.64,0-7,0-1.48,0-3-.08-4.44C4,81.76,5,83.89,5.9,86q3.75,8.49,7.36,17Q21.89,123.35,30.26,143.75ZM4.11,52a.86.86,0,0,0-.63.45c0-.95,0-1.91-.07-2.87,0-.37,0-.75,0-1.12A7.73,7.73,0,0,1,4.11,52ZM16.72,78.64c0,7.23-.43,14.46-.67,21.69,0,1.15-.11,2.31-.17,3.48-3.49-8.24-7-16.54-10.8-24.62a1.28,1.28,0,0,0,.07-.35c.12-8.59.36-17.24.07-25.83A.91.91,0,0,0,6,52.53c1.11-2.2,3.79-3,5.42-4.74a11.69,11.69,0,0,1,2.65-2.36c.6-.35,1.22-.65,1.84-1C15.34,55.89,16.79,67.24,16.72,78.64ZM10,46.29c-1.19,1.26-2.8,2.08-4.1,3.21-.49-1.62-1.36-3.16-1.54-4.84,2.76-.16,5.51-.57,8.26-.76A15.18,15.18,0,0,0,10,46.29Zm6.12,87.09v-.48c1,2.17,1.95,4.33,2.92,6.5q4.34,9.72,8.53,19.5l1.23,2.93q1.18,2.82,2.38,5.63,3.06,7.17,6.1,14.36c1.87,4.4,3.73,8.81,5.5,13.25.78,2,1.49,4,2.2,6,0,1-.11,1.95-.09,2.93s.25,2.06.29,3.1v.08a1.43,1.43,0,0,1-.08-.22q-3.9-9.91-7.77-19.85c-2-5.1-4-10.22-6.09-15.28-1.3-3.1-2.81-6.12-4.09-9.24-2.31-5.65-4.38-11.4-6.93-16.95-1.57-3.42-2.92-6.94-4.34-10.43a1.37,1.37,0,0,0,.29-.8C16.13,134.06,16.08,133.71,16.07,133.38ZM52.35,218a43.41,43.41,0,0,1-.42-5.73l.33-.1c1.08-.28,2.17-.5,3.26-.71,3.07-.61,6.15-1.14,9.23-1.65a21.3,21.3,0,0,1,.4,2.79c0,.57.08,1.15.1,1.72s0,1.08,0,1.6a1.9,1.9,0,0,0,.09.36c-3.51.61-7,1.14-10.58,1.5C54,217.89,53.17,218,52.35,218Zm14.75-3.68c0-.61-.06-1.22-.12-1.83a23.35,23.35,0,0,0-.41-3c9.33-1.54,18.68-3,28-4.44,10.09-1.58,20.1-3.41,30.12-5.33q24.74-4.74,49.46-9.43c13.74-2.6,27.48-5.33,41.27-7.65,6.58-1.11,13.19-2,19.78-3.07,8.66-1.42,17.28-3.16,25.87-5,1.92-.4,3.82-.86,5.74-1.25a52,52,0,0,1,6.93-.74,108.41,108.41,0,0,0,12.28-1.9c5.33-1,10.7-1.65,16.08-2.25a20.36,20.36,0,0,0,.36,2.7,9.53,9.53,0,0,1,.23,2.74v0l-22.82,4.19q-15.11,2.78-30.2,5.55c-5.8,1.07-11.6,2.13-17.38,3.28q-15.24,3-30.52,5.79c-12.24,2.26-24.5,4.48-36.78,6.56-8.13,1.38-16.3,2.9-24.52,3.66-11.19,1-22.31,3.34-33.34,5.4-8.39,1.56-16.81,3-25.19,4.66-5,1-9.89,2-14.86,2.93,0,0,0,0,0,0A12.23,12.23,0,0,0,67.1,214.35Zm256.1-53.63c.05,1.07.1,2.14.09,3.21h0c-8.29.94-16.61,1.61-24.89,2.61-4.17.5-8.34,1.09-12.48,1.82a117.58,117.58,0,0,1-12.68,1.94c-2,.13-4,.26-6,.59-2.28.38-4.52,1-6.78,1.44-4.19.88-8.4,1.67-12.6,2.5-8.65,1.72-17.35,3.09-26.07,4.41-14,2.12-27.9,4.9-41.81,7.52q-25.89,4.89-51.77,9.86c-9.46,1.81-18.89,3.67-28.4,5.19s-19.17,3-28.75,4.53c-4.12.67-8.25,1.34-12.36,2.08A74.32,74.32,0,0,0,51.14,210L51,210c0-.57-.09-1.15-.12-1.67-.07-1.19-.14-2.38-.23-3.56q-.3-4.25-.65-8.49c-.36-4.59-.89-9.21-1-13.82,1.76-.13,3.53-.49,5.25-.77,3.47-.55,6.93-1.16,10.39-1.76,6.75-1.17,13.52-2.47,20.33-3.31a31.91,31.91,0,0,1,4.79-.12,40.65,40.65,0,0,0,5.62-.32,1.36,1.36,0,0,0,.53,0l.22-.08,3-.37c3.22-.4,6.35-1.21,9.52-1.86,2.34-.49,4.72-.81,7.09-1.16l6-.89a1,1,0,0,0,.59-.28h.12c1-.17,2.1-.35,3.14-.54h.23a67.34,67.34,0,0,0,10.14-1.81c.62-.14,1.23-.29,1.83-.48l.57-.11c4-.74,8-1.25,12.07-1.83,7.52-1.08,15-2.32,22.51-3.55,10.66-1.76,21.32-3.59,32-5.23,15.69-2.41,31.54-3.82,47.15-6.73,11.66-2.18,23.24-4.76,34.83-7.26,4.09-.88,8.28-1.38,12.41-2,6.61-1,13.23-2.08,19.87-2.84.66-.07,1.32-.14,2-.19.29,1.7.48,3.42.68,5.13C322.44,149.63,322.94,155.18,323.2,160.72Zm-2.57-24h-.19c0-.08,0-.15,0-.23a1,1,0,0,0,.08.11Zm-8.45-57.95c2,2.47,3.86,5,5.79,7.5-5.12,1-10.4.87-15.57,1.57C305.5,84.64,309.12,82,312.18,78.75Zm-13.06,32c-.05.79-.09,1.58-.14,2.37a15.94,15.94,0,0,0-5.47-4.29,22.64,22.64,0,0,0-10.06-2.3c-.15-.71-.31-1.42-.5-2.13l1.62.28c1.74.3,3.49.57,5.24.86s3.33.54,5,.86c.58.11,1.16.23,1.74.38l.34.08c.73,1.28,1.45,2.57,2.19,3.84C299.09,110.69,299.11,110.7,299.12,110.72ZM269.4,38.88a37.19,37.19,0,0,1,11,6.86,37.73,37.73,0,0,1,9,10.73,22.41,22.41,0,0,1,2.37,7.58c.22,1.46.43,2.93.7,4.38a50.17,50.17,0,0,0-4.16-4.91,9.84,9.84,0,0,0-3.91-2.58,16,16,0,0,0-6,0,17.37,17.37,0,0,1-6.43-.17,18.61,18.61,0,0,1-5.34-2.3c-3.26-2.11-5-5.35-6-9a9.48,9.48,0,0,0-1.82-4,4.7,4.7,0,0,0-1-.83,22.18,22.18,0,0,1,10.91,2.53.43.43,0,0,1,0,0,8.87,8.87,0,0,0,2.17,5.91,12.52,12.52,0,0,0,5,4.14,1,1,0,0,0,1.13-.56,1,1,0,0,0-.4-1.19A13.58,13.58,0,0,1,272.36,52a9.25,9.25,0,0,1-1.84-3.61,14.87,14.87,0,0,1,3.67,3.75c.78,1.17,2.67.1,1.91-1.12-4-6.46-12.41-9.13-19.87-8.43.65-.65,1.33-1.27,2-1.86a.89.89,0,0,0,.88-.72A9,9,0,0,1,263.19,38,12.35,12.35,0,0,1,269.4,38.88ZM249.59,50h-.07l-.09,0-.16,0-.13-.08-.11-.06a2.72,2.72,0,0,1-.24-.24l-.11-.13,0,0,0,0a3.21,3.21,0,0,1-.19-.31,2.75,2.75,0,0,1-.2-.38.83.83,0,0,0-.07-.13v0a7.35,7.35,0,0,1-.27-.79h.21l.16,0,.33.11,0,0,.12,0a1.39,1.39,0,0,0,.6.13,1,1,0,0,0,.09.85.87.87,0,0,0,0,.87l.08.12h0Zm-.84,2.33h0Zm0,0,0,0h-.1l.2-.05-.06,0Zm.06,0Zm1.4-5.66a1.82,1.82,0,0,0-.8-.56c0-.19.08-.38.13-.57s.16-.48.25-.72.07-.18.11-.27.05-.12,0,0l.08-.18c.4-.88.86-1.72,1.22-2.62l0,.06a1.12,1.12,0,0,0,.05-.13.3.3,0,0,0,0-.08l.21,0,.12.05.09,0,.27.14c.24.13.47.27.7.42s.35.23.52.36c-.17.19-.33.39-.5.59h0a.92.92,0,0,0-.73.94A29.36,29.36,0,0,0,250.25,46.59Zm3.56-44.43H254l.05,0a3.39,3.39,0,0,1,.67.51A8.44,8.44,0,0,1,257,6.37c-1.34-.19-2.69-.36-4-.57-1.71-.28-3.32-.81-5-1.21-1.34-.31-3-.39-4.59-.74,2.95-.28,5.9-.83,8.75-1.34C252.66,2.42,253.39,2.21,253.81,2.16Zm-6.88,4.25c1.69.34,3.3.93,5,1.22,2,.33,4,.48,6,.74l.11.06a.87.87,0,0,0-.3.6c-.29,2.57-.15,5.24-.2,7.82l-.12,7.58c-.07,4.51-.13,9-.11,13.55-1.6-2.31-4-3.9-6.16-5.63a18.15,18.15,0,0,0-3.34-2.63c-1.62-.75-3.31-1.35-5-2.06a19.57,19.57,0,0,0-2.12-.78.29.29,0,0,0,0-.1c.32-3.72,1.05-7.34.59-11.09A37.18,37.18,0,0,1,241,9.45c.07-1.44.15-2.86.15-4.29A33.46,33.46,0,0,0,246.93,6.41ZM213.12,33.34a26.44,26.44,0,0,1,12.6-5.12,38.4,38.4,0,0,1,7.34-.37,30.8,30.8,0,0,1,7.29.94,46.62,46.62,0,0,1,4.42,1.81,17.89,17.89,0,0,1,2.34,1,16.06,16.06,0,0,1,1.95,1.65c2.34,1.93,5.19,3.57,6.82,6.2a.85.85,0,0,0,.2.22c-.5.44-1,.89-1.45,1.37l-.74-.48a9.25,9.25,0,0,0-1.18-.68,2.57,2.57,0,0,0-2.41-.23,2,2,0,0,0-.69.79c-.09.19-.17.39-.26.59l0,.12,0,.1c0,.06,0,.11-.07.16-.37.82-.78,1.62-1.11,2.45a6.3,6.3,0,0,0-.43,1.85,3.36,3.36,0,0,0-1,.28,21,21,0,0,0-1.83-2.6,8.2,8.2,0,0,0-2.68-2.22.94.94,0,1,0-.95,1.62l.64.46.18.14h0l.3.25a9.78,9.78,0,0,1,1.11,1.12l.25.3.12.15,0,0,.45.61c.31.45.61.91.89,1.37a1.08,1.08,0,0,0,.56.43l.08.29a10.71,10.71,0,0,0-2.82.51,7.17,7.17,0,0,0-1.41.64,4.85,4.85,0,0,0-.69.5,1.52,1.52,0,0,0-.55,1.06c-.06.48.45.87.88.88a2.77,2.77,0,0,0,1.43-.61l.54-.3.3-.14h0l.12,0a8.54,8.54,0,0,1,1.22-.36c.21-.05.43-.08.64-.12h.13l.4,0a1.41,1.41,0,0,0,.45-.15,4.87,4.87,0,0,0,1.12,1.5,4.15,4.15,0,0,0-.52.59,10.37,10.37,0,0,0-1.09,2c-.61,1.39-1.1,2.82-1.61,4.25a1,1,0,1,0,1.88.52c.45-1.25.84-2.52,1.32-3.76.06-.17.13-.35.2-.52l.09-.22.08-.2.09-.2.07-.16,0-.11c.06-.14.13-.28.2-.42s.26-.48.4-.72h0l0,0,0,0h0l0,0,0,0h0a.84.84,0,0,0,.36-.22,2.77,2.77,0,0,0,.76,0,4.18,4.18,0,0,0,.88-.2c.44.64.88,1.27,1.33,1.89a1.06,1.06,0,0,0,.55.43,1,1,0,0,0,.72-.1.94.94,0,0,0,.33-1.26c-.48-.79-1-1.57-1.49-2.34a4.69,4.69,0,0,0,.09-.64,3.49,3.49,0,0,0-.48-1.88,22.86,22.86,0,0,1,1.45-2.13,1,1,0,0,0,.41.11c1.42.06,2.86.28,3.64,1.59a17.18,17.18,0,0,1,1.27,3.74,17.83,17.83,0,0,0,3,5.78c1.93,9.5-4.62,17.13-11.42,22.86a38.58,38.58,0,0,0-12.07,4.83l-.27,0s-.27,0-.12,0l-.46-.09-.58-.1s-.46-.06-.13,0l-.17,0a13,13,0,0,1-1.51-.3,11.91,11.91,0,0,1-1.42-.49h0l-.18-.08-.45-.21-.64-.31a25.17,25.17,0,0,0-8.78-13.62,33.14,33.14,0,0,0-14.56-6.31,24.83,24.83,0,0,1-3.09-16.93A22,22,0,0,1,213.12,33.34Zm-54.51,7a22.36,22.36,0,0,1,10.86-10,24.11,24.11,0,0,1,15.12-1.05,39,39,0,0,1,12,4.82c4,2.55,7.33,6.38,7.23,11.37a1.16,1.16,0,0,0,.06.35,24.79,24.79,0,0,0-.27,7.24.88.88,0,0,0-.23.41c-.38,1.61-.67,3.25-1.19,4.81a10.39,10.39,0,0,1-.88,2,8.68,8.68,0,0,1-.7,1.08c-.28.37-.62.68-.87,1.07h0a42,42,0,0,0-8.12,1.18,37.33,37.33,0,0,0-10.13,4.17c.59-.8,1.17-1.61,1.73-2.42,1.35-2,2.61-4,3.83-6s2.79-4.28,3.21-6.72c.86-5-4.32-7-8.37-7.33a36.22,36.22,0,0,0-13.31,1.75,32.78,32.78,0,0,0-11.48,6.42C155.67,49.42,156.7,44.16,158.61,40.39Zm-4.58,8a10.57,10.57,0,0,0,1,6.33,1.19,1.19,0,0,0,.37.37,29,29,0,0,0-6.52,11.29,33.19,33.19,0,0,0-1.37,5.11c-.52-2-1-4-1.37-6a1,1,0,0,0-.71-.72,4.13,4.13,0,0,0-3.73,1,15.19,15.19,0,0,0-2.89-5.19A38.87,38.87,0,0,0,134,56.43a25.14,25.14,0,0,0-6-4.1c-.28-.12-.58-.22-.87-.32Q140.56,50.17,154,48.39Zm-26.71,6.3a28.1,28.1,0,0,1,5.58,4,29.34,29.34,0,0,1,4.41,3.84,15.45,15.45,0,0,1,3,8.6c.07,1,.07,2,.06,2.95-6.47-1.63-13.35-2.23-19.48.39a19.53,19.53,0,0,0-9.82,9.93,51.92,51.92,0,0,0-4.4,17.27,56.77,56.77,0,0,0-.19,6.26,17.14,17.14,0,0,1-7.61-4.71c-2.22-2.62-3.95-5.75-5.92-8.57-2.21-3.17-4.55-6.48-5.76-10.18A29.83,29.83,0,0,1,86,75.69a28.16,28.16,0,0,1,.93-9A35.51,35.51,0,0,0,97.5,64.6c.45-.17.89-.37,1.34-.57a16.08,16.08,0,0,0-.33,1.68c-.1.67-.18,1.34-.29,2a17.43,17.43,0,0,0-.38,2c0,1.14,1.38,1.29,2,.53.73-1,.7-2.66.87-3.83a9.8,9.8,0,0,1,1.11-3.82,7.31,7.31,0,0,1,.61-.85c.21-.2.44-.37.63-.58s.28-.35.41-.52a30,30,0,0,0,3-3,15.13,15.13,0,0,0,3,2.89,15.6,15.6,0,0,1,2.24,2.06,6.06,6.06,0,0,1,.71,1.12,7.23,7.23,0,0,0,.68,1.59c.52.63,1.46.2,1.69-.45a3,3,0,0,0-.36-2,6.39,6.39,0,0,0-.75-1.29,13.18,13.18,0,0,0-2.31-2.29c-.78-.63-1.6-1.24-2.33-1.94a6.86,6.86,0,0,1-.89-1,1.27,1.27,0,0,0,.29-.18c.18-.16.38-.28.57-.42a1,1,0,0,0,.47-.31.85.85,0,0,0,.81-.45,20.13,20.13,0,0,1,7.41-1.59C120.8,53.25,124.4,53.32,127.32,54.69Zm-21.45-5.88c0-.16,0-.31,0-.47h0l0-.19c0-.28.13-.54.2-.81v0l0-.06.13-.22h0c-.07.14,0,.07,0,0l.12,0,.13,0c.28,0,.55,0,.83,0,.63,0,1.27.09,1.9.16s1.2.17,1.82.26a21.77,21.77,0,0,0-1.74,2.56,13.49,13.49,0,0,0-1.54,3.73,4.81,4.81,0,0,0-1.78.92c0-.59-.13-1.18-.16-1.75A27,27,0,0,1,105.87,48.81Zm-24.6,2a34.65,34.65,0,0,1,6.71-1,25.42,25.42,0,0,1,6.75.28,16.94,16.94,0,0,1,5.7,2.76,32.17,32.17,0,0,1,2.86,2.09,1,1,0,0,0-.32,0c-2.86,1.05-6.17-.35-9.11-.48-2-.09-4.1-.06-6.15,0-2.61.05-5.22.15-7.82.39A17.32,17.32,0,0,0,74.14,56c-1,.5-.3,2.31.8,1.9A22.2,22.2,0,0,1,80.61,57c2.61-.23,5.23-.33,7.84-.37h.06c-.56.16-1.12.31-1.67.48-1.5.45-3,1-4.45,1.55a16.24,16.24,0,0,0-3.9,2c-.72.56-.36,2,.69,1.64,1.32-.49,2.58-1.14,3.88-1.66,1.46-.59,3-1.1,4.45-1.58a65.77,65.77,0,0,1,8.73-2.14h0c2.15.32,4.35.8,6.43.29-.15.25-.3.5-.45.73a9.77,9.77,0,0,1-3.62,3.4c-3.64,2-7.94,2.65-12,2.91-3.28.21-6.53.39-9.8.79a48.61,48.61,0,0,1-9.1.5,11.36,11.36,0,0,1-7.61-3.06C66.61,57.62,73.31,52.82,81.27,50.8ZM23.38,65.93c3.49-6.22,11-9.62,17.72-10.88a40.82,40.82,0,0,1,11.3-.64c2.91.27,6.6,1,7.93,4a1.22,1.22,0,0,0,.46.53l-3.11,2.21a1.26,1.26,0,0,0-.45,1.69,11.85,11.85,0,0,0,7.13,4.64,14.74,14.74,0,0,1,2.09,4.93A26,26,0,0,1,67,75.28c.1.6.1,1.22.17,1.83a.79.79,0,0,0-.26.74,16.51,16.51,0,0,1-3.49,12.06,19.75,19.75,0,0,1-4.65,4.24A30,30,0,0,1,52.56,97c-2.48.9-5,2-7.7,2A25.82,25.82,0,0,1,37,97.27c-4.36-1.51-8.67-3.94-11.32-7.82a24.48,24.48,0,0,1-3.7-11.25C21.48,74,21.23,69.75,23.38,65.93Zm-3.92,3.68a23.61,23.61,0,0,0-.3,6c.32,4.48,1,9,3.1,13.06a20.87,20.87,0,0,0,8.5,8.49,15.56,15.56,0,0,0-8,5.68,21.25,21.25,0,0,0-3,8.51c-.07.38-.15.76-.22,1.14-.55-1.3-1.09-2.6-1.64-3.89a1,1,0,0,0,0-.25c-.11-2.15.1-4.36.17-6.51.13-4,.28-8.06.41-12.08.11-3.42.23-6.83.27-10.25s-.12-6.54-.3-9.81A6.45,6.45,0,0,0,19.46,69.61Zm28,169.31c-1.44-3.26-2.85-6.52-4.27-9.79Q37.5,216,31.89,202.79q-5.75-13.42-11.46-26.88c-2.53-5.93-5-11.86-7.59-17.78-1.69-3.91-3.16-7.91-4.72-11.87a111.18,111.18,0,0,0-5.5-12.79c-.14-.26-.28-.51-.44-.75a.82.82,0,0,0,.07-.28c.22-2.87.14-5.8.22-8.69,0-2.18.12-4.37.15-6.55,0-1.22,0-2.44,0-3.66,2,4,3.9,8,6.14,11.84,3.15,5.41,5.09,11.38,7.54,17.12,1.23,2.89,2.62,5.7,3.82,8.6s2.29,5.74,3.42,8.62c1.61,4.1,3.45,8.07,5.21,12.1,1.87,4.29,3.77,9.35,5.57,13.94q3.9,10,7.78,19.94c1.82,4.66,3.53,9.42,5.6,14a.88.88,0,0,0-.07.33c0,5.08-.06,10.16.06,15.23,0,1.47,0,3,.09,4.49Zm270.74-38.2c-4.39.86-8.79,1.67-13.19,2.48-8.63,1.57-17.26,3.09-25.89,4.65-8,1.46-16.17,2.36-24.27,3.32-10.07,1.19-20.2,2-30.21,3.59-7.94,1.29-15.86,2.75-23.79,4.09s-15.66,2.74-23.44,4.35c-8,1.64-15.9,3.2-23.91,4.54-7.39,1.23-14.75,2.52-22.06,4.15-5.21,1.17-10.5,2.05-15.75,3q-12.59,2.24-25.19,4.29c-8.35,1.37-16.71,2.7-25.08,3.91A150.18,150.18,0,0,1,50.33,245a24.52,24.52,0,0,1-.33-3.17c-.17-2.29-.25-4.58-.31-6.87-.13-4.8-.14-9.61-.12-14.41a1.29,1.29,0,0,0,.28-.33c4.13.45,8.54-.48,12.58-1.11,5.27-.82,10.5-1.82,15.73-2.87,6.65-1.35,13.34-2.51,20-3.78,11.95-2.26,23.9-4.6,35.95-6.34,3.5-.5,7-.79,10.52-1.24,4.19-.54,8.37-1.2,12.54-1.88,11.92-1.93,23.8-4.06,35.68-6.22q17-3.09,33.95-6.35c5.85-1.13,11.71-2.29,17.57-3.38l28.05-5.16Q288,179,303.56,176.11c6.17-1.14,12.34-2.26,18.48-3.49h0a1,1,0,0,0,1.41,0c.1.77.17,1.54.26,2.28.3,2.26.54,4.53.76,6.8.46,4.82.91,9.64,1.09,14.48,0,.87.07,1.74,0,2.61,0,.12,0,.24,0,.37C323.17,199.81,320.66,200.24,318.2,200.72Z"/><path class="e01d8a09-2c0f-4db5-85e3-c72a4e5e79c5" d="M194.56,87.3c.89-.11,1.73-.43,2.63-.52a17.2,17.2,0,0,1,2.87,0,20.94,20.94,0,0,1,4.09.69h0c0,.11,0,.22,0,.32v0a2.26,2.26,0,0,0,.15.39.75.75,0,0,0,.07.12l.21.28.05,0a2.12,2.12,0,0,0,.34.27l.13.1.16.08.42.18h.06c-.29,1.32-.54,2.65-.72,4,0,.34-.08.68-.13,1s-.07.54-.13,1l-.21,1.33a3,3,0,0,0,0,2,1,1,0,0,0,1.58.21,2.45,2.45,0,0,0,.6-1.64c.08-.46.15-.93.21-1.39.11-.79.21-1.59.31-2.38l.06-.5v0h0a2.7,2.7,0,0,1,0-.28c.05-.36.11-.72.17-1.08.13-.72.28-1.43.45-2.14.11,0,.23,0,.34-.06l.39-.12a3.1,3.1,0,0,0,.58-.28c.13-.08.24-.17.36-.26l.12-.12,0-.06a16.49,16.49,0,0,0,2.9,1.19l.93.32.09,0,.22.1a4.5,4.5,0,0,1,.43.23l.42.26,0,0h0l.19.17a7,7,0,0,1,.83.89,1.1,1.1,0,0,0,1.73-1.34,6.71,6.71,0,0,0-3.87-2.75c-.65-.22-1.31-.4-2-.64l-.48-.19-.12,0-.1,0c.59-.27,1.16-.56,1.72-.88,1.73-1,3.56-2.61,3.33-4.83A6.84,6.84,0,0,0,214,77.13a1.05,1.05,0,0,0-1.62.21,40.77,40.77,0,0,1-5.72,6,59.63,59.63,0,0,1-.7-6.26,1,1,0,0,0-.08-.4c.1.19,0,0,0-.17l0-.25c0,.35,0-.08,0-.14l-.21-1.6a5.15,5.15,0,0,0-.68-2.74,1.07,1.07,0,0,0-1.3-.17,1.13,1.13,0,0,0-.5,1.22c-.08-.5-.06-.17-.06,0a5.8,5.8,0,0,0,.06.6c.06.53.14,1,.21,1.58a17.24,17.24,0,0,0,.29,2.23c0,2.76.81,5.39.84,8.13a21.43,21.43,0,0,0-4.44-.8,17.22,17.22,0,0,0-3,0,7.67,7.67,0,0,0-3.07.71C193.18,85.81,193.47,87.43,194.56,87.3Zm18.77-7.8a4,4,0,0,1,.34.47,3,3,0,0,1,.44,1.1.31.31,0,0,0,0,.07s0,0,0,0,0,.2,0,.3v0c0,.1,0,.2-.07.31S214,82,214,82l-.06.1a2,2,0,0,1-.14.25l-.07.11s0,0,0,0h0a5.91,5.91,0,0,1-1.94,1.53,19,19,0,0,1-2.29,1.09,6,6,0,0,0-.66-.67l-.2-.16A45.68,45.68,0,0,0,213.33,79.5Zm-9.51-3h0l0,0Z"/><path class="e01d8a09-2c0f-4db5-85e3-c72a4e5e79c5" d="M156.47,100.09a4.09,4.09,0,0,1,.37.64,3,3,0,0,1,.17.65,4.5,4.5,0,0,1,0,1,1,1,0,0,0,.28.68,1,1,0,0,0,.55.27,1,1,0,0,0,1.06-.69,4.19,4.19,0,0,0,0-2.08,4.64,4.64,0,0,0-1-1.81,1,1,0,0,0-.73-.31,1.08,1.08,0,0,0-.74.31,1,1,0,0,0-.3.73,1.13,1.13,0,0,0,.29.72Z"/><path class="e01d8a09-2c0f-4db5-85e3-c72a4e5e79c5" d="M153.65,114.82a1,1,0,0,0,1.17-.39,2.75,2.75,0,0,0,.19-.28,3,3,0,0,0,.15-.31l.27-.63c.18-.43.37-.85.55-1.27a1.09,1.09,0,0,0,.11-.79,1,1,0,0,0-.47-.61,1,1,0,0,0-.79-.11,1,1,0,0,0-.61.47l-.57,1.3c-.11.28-.23.55-.35.83,0,.11-.09.21-.12.32a2.29,2.29,0,0,0-.07.36,1,1,0,0,0,.09.72A1,1,0,0,0,153.65,114.82Z"/><path class="e01d8a09-2c0f-4db5-85e3-c72a4e5e79c5" d="M148,104.43l.1.24a.7.7,0,0,0,.26.28.45.45,0,0,0,.22.13.85.85,0,0,0,.38.09l.27,0,.24-.1a1.15,1.15,0,0,0,.46-.6c0-.09,0-.17,0-.26a1.94,1.94,0,0,0,0-.4v-.69a.68.68,0,0,0-.09-.4.69.69,0,0,0-.22-.34.74.74,0,0,0-.33-.22,1,1,0,0,0-.41-.09l-.27,0a1.06,1.06,0,0,0-.47.27,1.12,1.12,0,0,0-.3.74v.68a2,2,0,0,0,0,.41C147.94,104.26,148,104.34,148,104.43Z"/><path class="e01d8a09-2c0f-4db5-85e3-c72a4e5e79c5" d="M162.83,109.55a5.89,5.89,0,0,1,.35,1.31c0,.07,0,.13,0,.2a1,1,0,0,0,.28.68,1,1,0,0,0,1.65-.68,5.55,5.55,0,0,0-.82-3,1,1,0,0,0-.6-.47,1.06,1.06,0,0,0-.78.11,1,1,0,0,0-.36,1.38A5,5,0,0,1,162.83,109.55Z"/><path class="e01d8a09-2c0f-4db5-85e3-c72a4e5e79c5" d="M152.16,125.43a.46.46,0,0,0,.17.17.77.77,0,0,0,.33.18l.26,0a.92.92,0,0,0,.49-.13,4.08,4.08,0,0,0,.33-.25.57.57,0,0,0,.11-.11,2,2,0,0,0,.25-.32l0,0c0-.09.08-.18.11-.27l0-.07a2.11,2.11,0,0,0,.09-.56.86.86,0,0,0,0-.16,3.18,3.18,0,0,0-.06-.43.75.75,0,0,0-.19-.35.84.84,0,0,0-.29-.27.81.81,0,0,0-.38-.12.82.82,0,0,0-.41,0,1,1,0,0,0-.61.47l-.1.25a.93.93,0,0,0,0,.37.75.75,0,0,1,0,.15.19.19,0,0,1,0,.08,1.55,1.55,0,0,1-.12.22l.09-.13h0a.91.91,0,0,0-.19.29.81.81,0,0,0-.08.38l0,.26A.75.75,0,0,0,152.16,125.43Zm.13-1.43Zm0,0h0l.05-.11Z"/><path class="e01d8a09-2c0f-4db5-85e3-c72a4e5e79c5" d="M143.64,120l.1.23a.66.66,0,0,0,.25.27.93.93,0,0,0,.59.21,1,1,0,0,0,.49-.13,1,1,0,0,0,.45-.58c0-.14.07-.29.1-.44a4.23,4.23,0,0,0,0-.71V118a1.09,1.09,0,0,0-1.08-1.08,1.08,1.08,0,0,0-1.07,1.08v.92a3.39,3.39,0,0,0,0,.71Z"/><path class="e01d8a09-2c0f-4db5-85e3-c72a4e5e79c5" d="M149.33,118.31v1.09a.9.9,0,0,0,.09.4.87.87,0,0,0,.22.34.83.83,0,0,0,.34.22.93.93,0,0,0,.4.09l.28,0a1.06,1.06,0,0,0,.47-.27,1.08,1.08,0,0,0,.31-.74v-1.09a.9.9,0,0,0-.09-.4.87.87,0,0,0-.22-.34.74.74,0,0,0-.34-.22.73.73,0,0,0-.41-.09l-.27,0a1.06,1.06,0,0,0-.47.27A1.08,1.08,0,0,0,149.33,118.31Z"/><path class="e01d8a09-2c0f-4db5-85e3-c72a4e5e79c5" d="M183,103.89a1.54,1.54,0,0,0-.21-.45,2.09,2.09,0,0,0-.55-.56,2.17,2.17,0,0,0-.54-.24.94.94,0,0,0-.72.09,1,1,0,0,0-.39.45,1,1,0,0,0,.39,1.17h0a.86.86,0,0,1-.13.14,1.15,1.15,0,0,0-.36.8,1,1,0,0,0,.47.86,1.07,1.07,0,0,0,.94.06,1.47,1.47,0,0,0,.46-.32,4,4,0,0,0,.37-.47,2.63,2.63,0,0,0,.24-.51l0-.14a1.67,1.67,0,0,0,.05-.39.49.49,0,0,0,0-.12A1.59,1.59,0,0,0,183,103.89Z"/><path class="e01d8a09-2c0f-4db5-85e3-c72a4e5e79c5" d="M191,109.86a3.71,3.71,0,0,1,.21.81c0,.18,0,.36.07.55l0-.28c0,.07,0,.14,0,.22a1.07,1.07,0,0,0,.29.71,1.09,1.09,0,0,0,.58.28,1,1,0,0,0,1.11-.73,2.93,2.93,0,0,0,.11-.93,5.77,5.77,0,0,0-.16-.94,4.39,4.39,0,0,0-.7-1.48,1.2,1.2,0,0,0-.66-.51,1.09,1.09,0,0,0-1.34.77,1.07,1.07,0,0,0,.11.84A3.6,3.6,0,0,1,191,109.86Z"/><path class="e01d8a09-2c0f-4db5-85e3-c72a4e5e79c5" d="M201.54,109.68a.69.69,0,0,0-.21-.32,1,1,0,0,0-1.42,0,1,1,0,0,0-.3.71,3.84,3.84,0,0,1,0,.83,4.81,4.81,0,0,1-.29,1l.09-.2a.6.6,0,0,0-.12.36.78.78,0,0,0,0,.4,1,1,0,0,0,.45.58,1,1,0,0,0,.76.1,1,1,0,0,0,.59-.45,4.41,4.41,0,0,0,.46-1.29,5.31,5.31,0,0,0,.06-1.38A.86.86,0,0,0,201.54,109.68Z"/><path class="e01d8a09-2c0f-4db5-85e3-c72a4e5e79c5" d="M208.75,110.28a1.14,1.14,0,0,0-.61-.47,1.06,1.06,0,0,0-.78.11,1,1,0,0,0-.47.6,1,1,0,0,0,.1.79,1.16,1.16,0,0,1,.14.24.75.75,0,0,1,0,.16v.08s0,0,0,.08l-.11.18a2.39,2.39,0,0,1-.22.23.94.94,0,0,0-.29.69,1,1,0,0,0,.21.59,1,1,0,0,0,1.26.26,2.84,2.84,0,0,0,.83-.79,2.69,2.69,0,0,0,.24-.48,1.71,1.71,0,0,0,.09-.3,2.56,2.56,0,0,0-.41-2Z"/><path class="e01d8a09-2c0f-4db5-85e3-c72a4e5e79c5" d="M193.67,99.92a.42.42,0,0,1,0-.1s0,0,0,0Z"/><path class="e01d8a09-2c0f-4db5-85e3-c72a4e5e79c5" d="M193.38,99.18l.07.07v0l0,.1a1.29,1.29,0,0,0,0,.19s0,0,0,.07a1.08,1.08,0,0,0,.08.19.82.82,0,0,0,.2.35.87.87,0,0,0,1.24,0,.12.12,0,0,0,.05,0l.09-.12a.47.47,0,0,0,.09-.12c0-.12.11-.24.15-.36a.77.77,0,0,0,0-.15.39.39,0,0,0,0-.15v0c0-.11,0-.22-.05-.33l0-.16a2.27,2.27,0,0,0-.23-.5,2.72,2.72,0,0,0-.25-.32l-.13-.13a1,1,0,0,0-1.42,0,1,1,0,0,0-.3.71l0,.27A1,1,0,0,0,193.38,99.18Z"/><path class="e01d8a09-2c0f-4db5-85e3-c72a4e5e79c5" d="M193.61,99.78s0,0,0,0l-.05-.1Z"/><path class="e01d8a09-2c0f-4db5-85e3-c72a4e5e79c5" d="M185.39,110.89a1,1,0,0,0,0,2A1,1,0,0,0,185.39,110.89Z"/><path class="e01d8a09-2c0f-4db5-85e3-c72a4e5e79c5" d="M132.81,65.17a.63.63,0,0,0,.24.16.72.72,0,0,0,.29.06l.2,0a.69.69,0,0,0,.33-.19L134,65a.75.75,0,0,0,.1-.38l0-.37A.42.42,0,0,0,134,64a.61.61,0,0,0-.15-.24.51.51,0,0,0-.23-.15.67.67,0,0,0-.28-.06l-.19,0a.68.68,0,0,0-.32.18l-.11.15a.65.65,0,0,0-.1.36l0,.37a.49.49,0,0,0,.06.29A.54.54,0,0,0,132.81,65.17Z"/><path class="e01d8a09-2c0f-4db5-85e3-c72a4e5e79c5" d="M135.88,70.51a.8.8,0,0,0,0-1.59A.8.8,0,0,0,135.88,70.51Z"/><path class="e01d8a09-2c0f-4db5-85e3-c72a4e5e79c5" d="M126.68,69a2.6,2.6,0,0,0,.06.56l.09.2A.66.66,0,0,0,127,70a.83.83,0,0,0,.5.18,1,1,0,0,0,.41-.12.81.81,0,0,0,.38-.49,2.6,2.6,0,0,0,.07-.56V67.9a.93.93,0,0,0-.25-.61.88.88,0,0,0-.61-.25.85.85,0,0,0-.61.25.89.89,0,0,0-.26.61c0,.25,0,.49,0,.74Z"/><path class="e01d8a09-2c0f-4db5-85e3-c72a4e5e79c5" d="M125.36,61.64a1,1,0,0,0,0-2A1,1,0,0,0,125.36,61.64Z"/><path class="e01d8a09-2c0f-4db5-85e3-c72a4e5e79c5" d="M116.43,72.84l.17.13.2.09a.62.62,0,0,0,.33,0,.5.5,0,0,0,.31-.1l.22-.13.18-.14h0l0,0,0,0,.1-.09.37-.36a.7.7,0,0,0,.19-.29.72.72,0,0,0,.08-.35,1.06,1.06,0,0,0-.27-.65l-.18-.14a1,1,0,0,0-.46-.13l-.25,0a.9.9,0,0,0-.4.23l-.36.38-.09.09a1.43,1.43,0,0,0-.15.18,1.27,1.27,0,0,0-.13.19l-.07.11-.09.2a.62.62,0,0,0,0,.33.37.37,0,0,0,.06.21A.55.55,0,0,0,116.43,72.84Z"/><path class="e01d8a09-2c0f-4db5-85e3-c72a4e5e79c5" d="M121.41,66.13l.12.16a.6.6,0,0,0,.26.16.36.36,0,0,0,.2.06.58.58,0,0,0,.32,0,.94.94,0,0,0,.35-.2.81.81,0,0,0,.23-.57s0-.08,0-.13l0,.22a2.4,2.4,0,0,0,0-.28v-.06s0-.06,0-.09l0,0,.09-.1a.68.68,0,0,0,.18-.27.71.71,0,0,0,.07-.32.72.72,0,0,0-.07-.33.68.68,0,0,0-.18-.27.87.87,0,0,0-.59-.24l-.22,0a.8.8,0,0,0-.37.21,2,2,0,0,0-.35.41l-.07.13a2.33,2.33,0,0,0-.14.33,2.26,2.26,0,0,0-.08.51,1.14,1.14,0,0,0,0,.37C121.31,65.9,121.36,66,121.41,66.13Z"/><path class="e01d8a09-2c0f-4db5-85e3-c72a4e5e79c5" d="M131.53,62.37a1,1,0,0,0,0-2A1,1,0,0,0,131.53,62.37Z"/><path class="e01d8a09-2c0f-4db5-85e3-c72a4e5e79c5" d="M96.68,111.46l-.87-.07-.38,0h0l-.16,0a1.11,1.11,0,0,0-1,.31,3.6,3.6,0,0,0-.28-.4,1,1,0,0,0-.88-.27l-.11-.11a1,1,0,0,0-.63-.23,1.76,1.76,0,0,0-.87.28,2.72,2.72,0,0,0-.54.47,3.51,3.51,0,0,0-.5.73,17.45,17.45,0,0,0-5,.16,12.45,12.45,0,0,0-2.56.56c-.74.26-1.67.68-1.85,1.54a1,1,0,0,0,1.77.84c.06,0,.45-.31.1-.09L83,115l.32-.16.12-.05.25-.09a15.09,15.09,0,0,1,2.4-.52h.16l.29,0,.67-.06c.43,0,.85-.07,1.28-.09s.72,0,1.09,0l.44,0h0a2.4,2.4,0,0,0,1.86,2l.13,0a11,11,0,0,0,.06,2.29c.08.72.19,1.45.28,2.17.05.36.08.72.1,1.08a6,6,0,0,0,.12,1.27,1,1,0,0,0,1.86,0,5.72,5.72,0,0,0-.07-2.4c-.1-.68-.23-1.34-.35-2a12.71,12.71,0,0,1-.2-2.95,3,3,0,0,0,.82-1.5,4.4,4.4,0,0,0,.07-.8h0a16.48,16.48,0,0,0,1.72.21l.76.08h0l.18,0,.4.08a6.36,6.36,0,0,1,.71.21.61.61,0,0,1,.14.07l.27.18,0,0,.11.1a.57.57,0,0,0,.08.13.91.91,0,0,0,.07.14v0a1.89,1.89,0,0,1,.1.41,1,1,0,0,0,1.11.72,1,1,0,0,0,.88-1,3,3,0,0,0-.93-2,4.24,4.24,0,0,0-1.77-.89A12.63,12.63,0,0,0,96.68,111.46Zm-13.86,3.7s0,0,0,0h0l0,0ZM92.45,113l.1-.1.06.22v.31c0,.11,0,.22-.09.33l-.11.19-.07.06-.1-.06,0,0,0,0s0,0,0-.06v-.16c0-.1,0-.19.08-.29A3.35,3.35,0,0,1,92.45,113Z"/><path class="e01d8a09-2c0f-4db5-85e3-c72a4e5e79c5" d="M105.07,120.39a1,1,0,0,0,0-2A1,1,0,0,0,105.07,120.39Z"/><path class="e01d8a09-2c0f-4db5-85e3-c72a4e5e79c5" d="M87.07,137.18a1,1,0,0,0,0,2A1,1,0,0,0,87.07,137.18Z"/><path class="e01d8a09-2c0f-4db5-85e3-c72a4e5e79c5" d="M88.88,130.65a1,1,0,0,0,0,1.94A1,1,0,0,0,88.88,130.65Z"/><path class="e01d8a09-2c0f-4db5-85e3-c72a4e5e79c5" d="M69.08,93.51l1.5-.28.88-.16L72.3,93a16.12,16.12,0,0,1,1.83-.15,8,8,0,0,1,.85,0v0a1.75,1.75,0,0,0,.08.41s0,0,0,0c0,.38,0,.5-.1.83s-.13.79-.2,1.18c-.14.83-.28,1.66-.39,2.49a11.49,11.49,0,0,0,0,4.85,1,1,0,0,0,1.9-.52,7.42,7.42,0,0,1-.13-1.93c0-.76.11-1.52.21-2.27.2-1.34.46-2.68.63-4l.1,0a2.87,2.87,0,0,0,.59-.39,1.52,1.52,0,0,0,.22-.22.87.87,0,0,0,.29.34L80,94.79a.79.79,0,0,0,1.08-.28.82.82,0,0,0-.28-1.09L79,92.26a.74.74,0,0,0-.49-.09,1.25,1.25,0,0,0,0-.19.17.17,0,0,0,0-.1,2.21,2.21,0,0,0,0-.35c0-.11-.09-.21-.13-.32l-.06-.08a1.42,1.42,0,0,0-.22-.28,2,2,0,0,0-.4-.3l-.28-.11A11.59,11.59,0,0,0,76.58,88a8.53,8.53,0,0,0-1.46-2.28.95.95,0,0,0-1.48,1.15c.42.69.9,1.34,1.25,2.07a2.39,2.39,0,0,1,.13.28s.17.34.06.11c.08.18.14.38.21.57s.13.47.19.71l0,0a.72.72,0,0,0-.11.34.49.49,0,0,0,0,.24s0,0,0,.06a12.48,12.48,0,0,0-3-.09,21.08,21.08,0,0,0-3.71.5.92.92,0,1,0,.49,1.77Z"/><path class="e01d8a09-2c0f-4db5-85e3-c72a4e5e79c5" d="M47.83,105.15a1,1,0,0,0-.25,1.29,32.54,32.54,0,0,1,1.87,3.44c.17.35.36.69.53,1a1.08,1.08,0,0,0-.55.1l-.27.13h0l-.09,0-.5.17a9,9,0,0,1-1.12.25h-.12l-.23,0-.61,0a3.29,3.29,0,0,0-1.5.18,1,1,0,0,0,0,1.73,2.82,2.82,0,0,0,1.58.14,13.63,13.63,0,0,0,1.41-.19,8.18,8.18,0,0,0,2.44-.87,4.18,4.18,0,0,0-.16.7,10.69,10.69,0,0,0-.1,2,19.09,19.09,0,0,0,.21,2,8.21,8.21,0,0,0,.4,1.78,1,1,0,1,0,1.88-.52c-.22-1.09-.58-2.19-.69-3.26a13.93,13.93,0,0,1-.08-1.82,7.56,7.56,0,0,1,0-.83.84.84,0,0,0,.58-.38,23.9,23.9,0,0,1,2.44.9c.79.34,1.6.73,2.43,1a.92.92,0,0,0,.3.18c.5.17,1.25.32,1.65-.13a1,1,0,0,0-.45-1.7c-1.09-.42-2.19-.81-3.27-1.25a21.54,21.54,0,0,0-3.12-1,.66.66,0,0,0,.06-.31.6.6,0,0,0-.07-.32.65.65,0,0,0-.17-.27l-.17-.13a.88.88,0,0,0-.42-.11l-.22,0s0,0-.06,0l-.29-.6c-.3-.64-.6-1.29-.93-1.91a5.56,5.56,0,0,0-1-1.56A1,1,0,0,0,47.83,105.15Z"/><path class="e01d8a09-2c0f-4db5-85e3-c72a4e5e79c5" d="M75.75,149.22h0Z"/><path class="e01d8a09-2c0f-4db5-85e3-c72a4e5e79c5" d="M77.27,147.74a3.93,3.93,0,0,0-3.79-.22l-.06-.18a1.18,1.18,0,0,0-.5-.64,1.07,1.07,0,0,0-.82-.11,1.15,1.15,0,0,0-.45.27l-.15,0a2.12,2.12,0,0,0-1,.27,2.86,2.86,0,0,0-.42.24,4.48,4.48,0,0,0-.91.77,3.42,3.42,0,0,0-.86,2.42,1.24,1.24,0,0,0,.24.67,1.11,1.11,0,0,0,.58.4,4,4,0,0,0,2,0,28.9,28.9,0,0,0,2.43,7.77.92.92,0,1,0,1.59-.93A37.4,37.4,0,0,1,73,150.61a.66.66,0,0,0-.09-.19,4,4,0,0,0,.32-.48l.07-.06h0l.26-.17.27-.16.18-.09,0,0,.16-.06.3-.09.27-.06h.1a4,4,0,0,1,.6,0l.22,0s0,0,0,0h0l.26,0h0l.14,0,.33.07a.89.89,0,0,0,1-.51A.91.91,0,0,0,77.27,147.74Z"/><path class="e01d8a09-2c0f-4db5-85e3-c72a4e5e79c5" d="M86.91,157.63a1,1,0,0,0-.67,1.19,5.22,5.22,0,0,1,.18.56,2,2,0,0,1,0,.26v.1a4.86,4.86,0,0,1,0,.54v.08l-.06.25a1.55,1.55,0,0,1-.07.23.14.14,0,0,0,0,.06,3.35,3.35,0,0,1-.27.45l-.07.09a1.8,1.8,0,0,1-.19.2,4.57,4.57,0,0,1-.45.43.87.87,0,0,0-.07,1.16.89.89,0,0,0,1.14.23,3.66,3.66,0,0,0,1.85-2.32,4.61,4.61,0,0,0-.19-2.84A1,1,0,0,0,86.91,157.63Z"/><path class="e01d8a09-2c0f-4db5-85e3-c72a4e5e79c5" d="M80.77,165.55a1,1,0,0,0-.7-.3,1,1,0,0,0-1,1,5.2,5.2,0,0,1,0,.68,4.77,4.77,0,0,1-.17.62,4.2,4.2,0,0,1-.47.76l.16-.2a2.34,2.34,0,0,0-.29.41l-.14.25a.86.86,0,0,0,.07.95.81.81,0,0,0,.89.3,2.94,2.94,0,0,0,.57-.26,2.33,2.33,0,0,0,.51-.53,4,4,0,0,0,.57-1,4.49,4.49,0,0,0,.3-1.95A1,1,0,0,0,80.77,165.55Z"/><path class="e01d8a09-2c0f-4db5-85e3-c72a4e5e79c5" d="M72.15,168.07a.64.64,0,0,0-.36-.08.62.62,0,0,0-.35.08.6.6,0,0,0-.3.19.91.91,0,0,0-.27.65,1,1,0,0,0,.24.6h0l-.06.07.06-.07h0a.84.84,0,0,0-.22.58.69.69,0,0,0,.07.35.7.7,0,0,0,.19.29.91.91,0,0,0,.64.27l.24,0a.84.84,0,0,0,.4-.23,1.39,1.39,0,0,0,.27-.32,1.3,1.3,0,0,0,.1-.15,2.79,2.79,0,0,0,.14-.37,1.48,1.48,0,0,0,0-.19,1.36,1.36,0,0,0,0-.2,1.8,1.8,0,0,0-.55-1.24A.61.61,0,0,0,72.15,168.07Zm-1,1.34h0l.07-.08Z"/><path class="e01d8a09-2c0f-4db5-85e3-c72a4e5e79c5" d="M70,163.87a.62.62,0,0,0-.28-.17.6.6,0,0,0-.32-.07l-.23,0a.85.85,0,0,0-.37.21l-.13.18a.79.79,0,0,0-.12.42v.23a2.06,2.06,0,0,0,0,.26.69.69,0,0,0,.15.28l.07.09h0a.95.95,0,0,0,.57.23l.21,0a.72.72,0,0,0,.36-.2h0a.81.81,0,0,0,.21-.37,1.09,1.09,0,0,0,0-.26v-.23a.6.6,0,0,0-.07-.32A.62.62,0,0,0,70,163.87Z"/><path class="e01d8a09-2c0f-4db5-85e3-c72a4e5e79c5" d="M260.89,137.65s.05,0,0,0Z"/><path class="e01d8a09-2c0f-4db5-85e3-c72a4e5e79c5" d="M260.89,137.65h0Z"/><path class="e01d8a09-2c0f-4db5-85e3-c72a4e5e79c5" d="M32.73,129.25c.09.39.16.79.28,1.19a1,1,0,0,0,1.92-.26,11.18,11.18,0,0,0-.61-2.63,1,1,0,0,0-.46-.6,1,1,0,0,0-.77-.1,1.06,1.06,0,0,0-.6.46,1,1,0,0,0-.1.77C32.52,128.46,32.63,128.85,32.73,129.25Z"/><path class="e01d8a09-2c0f-4db5-85e3-c72a4e5e79c5" d="M29.59,124.27a1,1,0,0,0-.36,1.39c.1.18.19.36.28.54s.07.19.1.29l.06.22a1.39,1.39,0,0,0,.12.28,1.63,1.63,0,0,0,.17.22l.07.09a.93.93,0,0,0,.42.24.85.85,0,0,0,.5,0,1,1,0,0,0,.66-.66s0-.06,0-.09a1.14,1.14,0,0,0,0-.58c0-.07,0-.14-.05-.21s-.09-.26-.14-.39a5.43,5.43,0,0,0-.47-1,1,1,0,0,0-.6-.47.82.82,0,0,0-.41,0A.85.85,0,0,0,29.59,124.27Z"/><path class="e01d8a09-2c0f-4db5-85e3-c72a4e5e79c5" d="M31.82,135.4v0l.1.23a1.56,1.56,0,0,0,.16.2.62.62,0,0,0,.31.2.71.71,0,0,0,.38.09l.25,0a.89.89,0,0,0,.43-.25.25.25,0,0,0,.08-.1.75.75,0,0,0,.16-.29l0,.12a1.54,1.54,0,0,1,.08-.19l.06,0-.05,0,0-.05s.08,0,.1-.09a.73.73,0,0,0,.18-.35.68.68,0,0,0,0-.4.64.64,0,0,0-.12-.38l-.16-.21a.93.93,0,0,0-.45-.26l-.27,0a1,1,0,0,0-.51.14,2.3,2.3,0,0,0-.34.28l-.21.27,0,.07a3.05,3.05,0,0,0-.13.32l0,0s0,.11,0,.15a.89.89,0,0,0,0,.15s0,.06,0,.09S31.8,135.3,31.82,135.4Zm1.87,0-.11.09a.66.66,0,0,0,.15-.14Z"/><path class="e01d8a09-2c0f-4db5-85e3-c72a4e5e79c5" d="M32.29,88.33a4.7,4.7,0,0,0,.52.39,3.23,3.23,0,0,0,.94.39,3.16,3.16,0,0,0,1,.08,4.37,4.37,0,0,0,.63-.11,3.35,3.35,0,0,0,.62-.25,1,1,0,0,0,.5-.64,1.12,1.12,0,0,0-.11-.84,1.07,1.07,0,0,0-.65-.49l-.28,0a1.17,1.17,0,0,0-.38.07,2,2,0,0,1-.42.12h-.25l-.27-.07c-.29-.15-.56-.34-.83-.51a1,1,0,0,0-1.39,1.39A2.5,2.5,0,0,0,32.29,88.33Z"/><path class="e01d8a09-2c0f-4db5-85e3-c72a4e5e79c5" d="M27.55,81.64a.66.66,0,0,0,.36.11.7.7,0,0,0,.38,0,.67.67,0,0,0,.33-.18.65.65,0,0,0,.25-.27A1,1,0,0,0,28.52,80l-.6-.41c-.13-.11-.26-.21-.38-.33a1,1,0,0,0-.69-.28.69.69,0,0,0-.37.08.79.79,0,0,0-.31.2,1,1,0,0,0-.29.69,1,1,0,0,0,.29.68A8.32,8.32,0,0,0,27.55,81.64Z"/><path class="e01d8a09-2c0f-4db5-85e3-c72a4e5e79c5" d="M39.06,79.43a.5.5,0,0,0,0,.13l.06.12.15.2h0l0,0,.08.08.31.31a.79.79,0,0,0,.31.2.73.73,0,0,0,.38.08.71.71,0,0,0,.38-.08.83.83,0,0,0,.32-.2l.15-.2a1,1,0,0,0,.14-.5l0-.26a1,1,0,0,0-.25-.44l-.31-.3-.07-.08,0,0a1.16,1.16,0,0,0-.21-.16h0l-.24-.1-.09,0-.14,0a.35.35,0,0,0-.14,0h0a.64.64,0,0,0-.33.07.68.68,0,0,0-.27.18l-.13.17A.82.82,0,0,0,39,79v.06l0,.24h0A.29.29,0,0,1,39.06,79.43Z"/><path class="e01d8a09-2c0f-4db5-85e3-c72a4e5e79c5" d="M45.48,89.7a.92.92,0,0,0,0-1.83A.92.92,0,0,0,45.48,89.7Z"/><path class="e01d8a09-2c0f-4db5-85e3-c72a4e5e79c5" d="M41,91.17a1,1,0,0,0-.77-.1l-.35.06a5.23,5.23,0,0,1-1.31,0h.06a1,1,0,0,0-.69.1,1,1,0,0,0-.44.57,1,1,0,0,0,.1.74l.15.19a.91.91,0,0,0,.42.25,4.24,4.24,0,0,0,2.59.05,1,1,0,0,0,.6-.46,1,1,0,0,0,.1-.78A1,1,0,0,0,41,91.17Z"/><path class="e01d8a09-2c0f-4db5-85e3-c72a4e5e79c5" d="M50.69,83.58a.92.92,0,0,0,.44.25l.26,0a1,1,0,0,0,.5-.14l.6-.29a.87.87,0,0,0,.28-.26.84.84,0,0,0,.17-.34.68.68,0,0,0,0-.4.65.65,0,0,0-.12-.37l-.15-.2a1,1,0,0,0-.44-.25l-.27,0a1,1,0,0,0-.5.14l-.59.29a.7.7,0,0,0-.28.26.75.75,0,0,0-.18.34.74.74,0,0,0,0,.39.85.85,0,0,0,.12.38Z"/><path class="e01d8a09-2c0f-4db5-85e3-c72a4e5e79c5" d="M40.08,62.39c-.15,0-.07,0,0,0Z"/><path class="e01d8a09-2c0f-4db5-85e3-c72a4e5e79c5" d="M38.25,62.46h0a.1.1,0,0,0,0,0l0,0S38.33,62.51,38.25,62.46Z"/><path class="e01d8a09-2c0f-4db5-85e3-c72a4e5e79c5" d="M38.13,64.56a5.26,5.26,0,0,0,4.35-1.37c.64-.56.35-1.7-.19-2.25a4.61,4.61,0,0,0-1.22-.7,1,1,0,0,0-.55-.11.79.79,0,0,0-.55-.42,20.61,20.61,0,0,0-2.83.11,1,1,0,0,0-1,.74,4,4,0,0,0,.21,2.72A2.62,2.62,0,0,0,38.13,64.56Zm1.61-3h-.1l-.2,0A1.51,1.51,0,0,0,39.74,61.61Zm-.41.08.32,0h.1a.89.89,0,0,0,.32.32c.14.08.29.14.44.21-.13.07-.25.15-.38.21l-.05,0,.06,0-.13.05-.36.12-.31.07-.11,0h-.56l-.09,0-.12,0H38.4l-.07,0,0,0h0l-.08,0h0l0,0-.06-.06-.09-.17v0c0-.05,0-.11-.05-.17v0a.57.57,0,0,1,0-.13v-.09l.57,0Z"/><path class="e01d8a09-2c0f-4db5-85e3-c72a4e5e79c5" d="M130.24,127.78h.06C130.36,127.78,130.37,127.77,130.24,127.78Z"/><path class="e01d8a09-2c0f-4db5-85e3-c72a4e5e79c5" d="M129,126.84h0a.41.41,0,0,1,.05.09.18.18,0,0,0-.06-.1Z"/><path class="e01d8a09-2c0f-4db5-85e3-c72a4e5e79c5" d="M139.54,159.45a1.57,1.57,0,0,0,.26-.92,2.74,2.74,0,0,0-.78-1.71,1,1,0,0,0-1.71.71l0,.26a1.07,1.07,0,0,0,.24.43,2.68,2.68,0,0,1,.18.28l-.07.07.07-.06h0a.89.89,0,0,0-.37.5,1.06,1.06,0,0,0,0,.61,1,1,0,0,0,.39.45.91.91,0,0,0,.72.09A2.91,2.91,0,0,0,139,160,1.52,1.52,0,0,0,139.54,159.45Zm-1.71-1Zm-.06.06h0l-.05.06Z"/><path class="e01d8a09-2c0f-4db5-85e3-c72a4e5e79c5" d="M134.22,158.14a.79.79,0,0,0-.31-.2.71.71,0,0,0-.38-.08.67.67,0,0,0-.37.08.83.83,0,0,0-.32.2l-.15.2a1,1,0,0,0-.13.49l0,.26a1.22,1.22,0,0,0,.12.19l-.07.17,0,.25,0,.25a.62.62,0,0,0,.16.31,1,1,0,0,0,.37.29.53.53,0,0,0,.24.06.67.67,0,0,0,.37,0,1.15,1.15,0,0,0,.54-.32l.05-.06.19-.24a1.47,1.47,0,0,0,.15-.34s0,0,0-.06a2.23,2.23,0,0,0,0-.27v0a1.38,1.38,0,0,0-.19-.71A1.65,1.65,0,0,0,134.22,158.14Z"/><path class="e01d8a09-2c0f-4db5-85e3-c72a4e5e79c5" d="M138.11,153.61a1.79,1.79,0,0,0,.32-.13,1,1,0,0,0,.32-.3c.07-.1.15-.19.21-.29a2.77,2.77,0,0,0,.27-.67,3,3,0,0,0,0-1.46,1,1,0,0,0-.44-.57.94.94,0,0,0-1.3.34,1.05,1.05,0,0,0-.1.74.06.06,0,0,1,0,0,1.71,1.71,0,0,1,0,.32,1.6,1.6,0,0,1-.05.21,1.53,1.53,0,0,1-.17.27l0,0-.06.14-.08.21a.92.92,0,0,0,.23.87A.88.88,0,0,0,138.11,153.61Z"/><path class="e01d8a09-2c0f-4db5-85e3-c72a4e5e79c5" d="M141.5,145.08v.12a1.64,1.64,0,0,1-.1.38l0,.22a.68.68,0,0,0,.07.32.45.45,0,0,0,.11.19.61.61,0,0,0,.24.21,1,1,0,0,0,.42.12.68.68,0,0,0,.32-.07.56.56,0,0,0,.27-.18,2.25,2.25,0,0,0,.34-.47,1.24,1.24,0,0,0,.14-.38,2.57,2.57,0,0,0,.05-.4,1.41,1.41,0,0,0,0-.28,1.37,1.37,0,0,0-.05-.28,1.94,1.94,0,0,0-.15-.36.77.77,0,0,0-.1-.18,1,1,0,0,0-.55-.43.73.73,0,0,0-.36,0,.6.6,0,0,0-.34.11.87.87,0,0,0-.42.54.92.92,0,0,0,.09.71A.75.75,0,0,1,141.5,145.08Zm0,.14v0l0,.18Z"/><path class="e01d8a09-2c0f-4db5-85e3-c72a4e5e79c5" d="M132.64,151.59a2.51,2.51,0,0,0,0-.27v-.1l0-.25a.64.64,0,0,1,0-.07,1.51,1.51,0,0,0-.12-.26l-.15-.19h0l-.21-.16,0,0h0l-.23-.1-.07,0a1.88,1.88,0,0,0-.33,0h-.11a.64.64,0,0,0-.36.08.61.61,0,0,0-.29.19.69.69,0,0,0-.2.3.82.82,0,0,0-.08.35l0,.25a.86.86,0,0,0,.24.41l.18.14a.77.77,0,0,0,.19.08.46.46,0,0,0,.11.16l.17.14a.63.63,0,0,0,.32.1.45.45,0,0,0,.23,0,.63.63,0,0,0,.32-.1l.17-.14a.78.78,0,0,0,.22-.37A.29.29,0,0,0,132.64,151.59Zm-1.7-.11s0,.05,0,.07v-.07Z"/><path class="e01d8a09-2c0f-4db5-85e3-c72a4e5e79c5" d="M125,157.16a.78.78,0,0,0-.35-.18,1.11,1.11,0,0,0-.78.1,1,1,0,0,0-.25.25l-.05,0,.07-.1a.68.68,0,0,1-.12.12.09.09,0,0,1,0,0l-.23.1.24-.1-.22.06-.23.1a.72.72,0,0,0-.27.25.45.45,0,0,0-.12.21.78.78,0,0,0-.09.37l0,.25.1.23a.78.78,0,0,0,.24.27.74.74,0,0,0,.33.17,2.32,2.32,0,0,0,.38.05h.13a1.86,1.86,0,0,0,.73-.21,1.91,1.91,0,0,0,.41-.29.91.91,0,0,0,.19-.2.85.85,0,0,0,.26-.45l0-.27a1,1,0,0,0-.14-.51A.73.73,0,0,0,125,157.16Zm-1.43.22h0l0,0S123.61,157.36,123.6,157.38Zm0,0h0s0,0-.06.07Z"/><path class="e01d8a09-2c0f-4db5-85e3-c72a4e5e79c5" d="M178.94,142.81a13.1,13.1,0,0,0,2.36,2.46.88.88,0,0,0,1.08-.14.94.94,0,0,0,.15-1.09,9.09,9.09,0,0,0-1-1.45l-1.07-1.26a23.8,23.8,0,0,0-1.83-1.92,2.39,2.39,0,0,0,.45-.9,3.59,3.59,0,0,0-.34-2.34,1,1,0,0,0-.6-.47,1.11,1.11,0,0,0-.78.1,1.09,1.09,0,0,0-.44.55.35.35,0,0,0,0-.11l0-.08s0,0,0-.06-.07-.19-.1-.28-.08-.33-.11-.49v-.05s0,0,0-.07a2.53,2.53,0,0,1,0-.28,2.43,2.43,0,0,1,0-.47.5.5,0,0,1,0-.12c0-.07,0-.14,0-.2a4,4,0,0,1,.17-.52l0-.07c0-.09.08-.17.13-.26s.21-.35.32-.51a.89.89,0,0,0-.32-1.21.91.91,0,0,0-1.21.32,5,5,0,0,0-1,2.56,4.36,4.36,0,0,0,.07,1.25,1.74,1.74,0,0,0-.19.26,3.76,3.76,0,0,0-.2.46,5.4,5.4,0,0,0-.18.57,4.42,4.42,0,0,0-.12,1.31c0,.15,0,.31.06.46h-.14c-.66.09-1.31.2-2,.34a14.58,14.58,0,0,0-1.94.51,1.1,1.1,0,0,0-.6.46,1,1,0,0,0-.1.77,1,1,0,0,0,1.23.7c.65-.15,1.29-.35,1.95-.5s1.3-.28,2-.38a1,1,0,0,0,.57-.44l.28.06c.23,0,.45.06.67.07h.44s0,.07.08.1A21.93,21.93,0,0,1,178.94,142.81Zm-2.05-5.8v0a3.78,3.78,0,0,1,.19.63,2.72,2.72,0,0,1,0,.28.65.65,0,0,1,0,.13.08.08,0,0,0,0,0l-.06.06-.11.07-.33.08a1.58,1.58,0,0,1-.31,0,4.28,4.28,0,0,1,0-.62,1.16,1.16,0,0,1,0-.18.63.63,0,0,0,.27-.1A.88.88,0,0,0,176.89,137Z"/><path class="e01d8a09-2c0f-4db5-85e3-c72a4e5e79c5" d="M193.75,136.54a4.75,4.75,0,0,1,.53.93l-.1-.22c.06.15.12.29.19.43s.07.16.11.23l-.06-.14a.57.57,0,0,0,.14.28.61.61,0,0,0,.24.21.81.81,0,0,0,.53.1.83.83,0,0,0,.72-.81,3.36,3.36,0,0,0-.08-.71,3.91,3.91,0,0,0-.27-.67,4.74,4.74,0,0,0-.7-1,.93.93,0,0,0-.65-.27.92.92,0,0,0-.93.93,1,1,0,0,0,.27.66Z"/><path class="e01d8a09-2c0f-4db5-85e3-c72a4e5e79c5" d="M195.42,143.68l-.2.08a.81.81,0,0,0-.3.31l-.06.07a4.88,4.88,0,0,1-.52.59l-.29.26-.15.12a1,1,0,0,0-.15.19l0,0,0,.08-.08.18,0,.21a.82.82,0,0,0,.17.47.38.38,0,0,0,.14.14.48.48,0,0,0,.17.1.41.41,0,0,0,.19.05.65.65,0,0,0,.31,0,.93.93,0,0,0,.39-.15c.11-.07.22-.16.33-.24l.36-.32a6,6,0,0,0,.75-.92.57.57,0,0,0,.1-.31.65.65,0,0,0,0-.34.91.91,0,0,0-.39-.51A.89.89,0,0,0,195.42,143.68Z"/><path class="e01d8a09-2c0f-4db5-85e3-c72a4e5e79c5" d="M189.21,142.32a.54.54,0,0,0,.06.31.65.65,0,0,0,.17.26.54.54,0,0,0,.26.16.51.51,0,0,0,.3.07.84.84,0,0,0,.41-.11,2,2,0,0,0,.45-.3l.1-.09a1.49,1.49,0,0,0,.15-.2,1.6,1.6,0,0,0,.1-.23.06.06,0,0,0,0,0,.83.83,0,0,0,0-.22v-.05l0-.23,0,0a1.18,1.18,0,0,0-.24-.42,1.22,1.22,0,0,0-.25-.2l-.15-.09c-.12-.05-.24-.11-.37-.15a.58.58,0,0,0-.29,0,.71.71,0,0,0-.28.09l-.15.12a.51.51,0,0,0-.15.23.41.41,0,0,0-.05.19.57.57,0,0,0,0,.29,1.62,1.62,0,0,0,.1.18l-.08.09A.82.82,0,0,0,189.21,142.32Z"/><path class="e01d8a09-2c0f-4db5-85e3-c72a4e5e79c5" d="M189.44,150.71l.16.12a.71.71,0,0,0,.4.11,1.83,1.83,0,0,0,.47,0l.13,0a1.94,1.94,0,0,0,.3-.13,1.78,1.78,0,0,0,.37-.26,2.17,2.17,0,0,0,.31-.36.53.53,0,0,0,.09-.3.62.62,0,0,0,0-.33.64.64,0,0,0-.15-.28.67.67,0,0,0-.23-.21.82.82,0,0,0-.63-.08l-.19.08a.75.75,0,0,0-.23.24h0l.09-.11a.93.93,0,0,1-.14.14l-.05,0-.17.05a.76.76,0,0,0-.49.22.59.59,0,0,0-.17.25.67.67,0,0,0-.07.31l0,.22A.84.84,0,0,0,189.44,150.71Zm.73-1.41Zm0,0Zm0,0Zm0,0a.1.1,0,0,0-.05,0h0l0,0Z"/><path class="e01d8a09-2c0f-4db5-85e3-c72a4e5e79c5" d="M183.33,149a1.9,1.9,0,0,1,.2.34s0,0,0,0l-.13.12.07-.05a.81.81,0,0,0-.34.45.84.84,0,0,0,0,.52.72.72,0,0,0,.33.38.78.78,0,0,0,.61.09,2.62,2.62,0,0,0,.45-.21,1.61,1.61,0,0,0,.44-.46,1.53,1.53,0,0,0,.24-.84,2.67,2.67,0,0,0-.74-1.61.85.85,0,0,0-1.45.61,1,1,0,0,0,.25.6Zm.21.42Zm-.06.07.05-.07h0A.18.18,0,0,1,183.48,149.51Z"/><path class="e01d8a09-2c0f-4db5-85e3-c72a4e5e79c5" d="M176.25,150.87a.59.59,0,0,0-.27-.17.55.55,0,0,0-.31-.07l-.22,0a.67.67,0,0,0-.36.21.8.8,0,0,0-.24.58v0l0,.08,0,0-.14.14a.73.73,0,0,0-.17.26.58.58,0,0,0-.06.32l0,.21a.69.69,0,0,0,.15.28.38.38,0,0,0,.14.14.69.69,0,0,0,.28.15l.21,0a.72.72,0,0,0,.41-.11,1.74,1.74,0,0,0,.36-.3,1.37,1.37,0,0,0,.26-.37,1.84,1.84,0,0,0,.23-.89.68.68,0,0,0-.07-.32A.65.65,0,0,0,176.25,150.87Z"/><path class="e01d8a09-2c0f-4db5-85e3-c72a4e5e79c5" d="M178,35.65v.08a.53.53,0,0,0,0-.08Z"/><path class="e01d8a09-2c0f-4db5-85e3-c72a4e5e79c5" d="M172.86,37.9l-.05,0Z"/><path class="e01d8a09-2c0f-4db5-85e3-c72a4e5e79c5" d="M172.19,38.17a1.13,1.13,0,0,0,.69-.29c.07-.05,0,0,0,0l0,0,.36-.27,0,0,.16-.12a7,7,0,0,1,.83-.5l.21-.1.09,0,.14,0,.24-.09c.31-.1.63-.18,1-.25a.58.58,0,0,0,.24-.11,2,2,0,0,0,.64,1.16,2.87,2.87,0,0,0,1.85.68,4.5,4.5,0,0,0,1.1,2.35,1,1,0,0,0,1.52-1.17,5.21,5.21,0,0,1-.47-.83,4.07,4.07,0,0,1-.2-.68,3.94,3.94,0,0,0,.55-.26.88.88,0,0,0,.59.21,1,1,0,0,0,.68-1.71h.18l.51,0a1.23,1.23,0,0,1,.27,0c-.23-.06,0,0,.06,0,.36.07.74.14,1.1.23a.89.89,0,0,0,.69-1.62,4.24,4.24,0,0,0-1.28-.49,5.81,5.81,0,0,0-1.31-.12,7.3,7.3,0,0,0-2.45.47,1.15,1.15,0,0,0-.5.37,3.16,3.16,0,0,0-.56-.78,3.2,3.2,0,0,0-.69-.52,2.71,2.71,0,0,0-.49-.22.86.86,0,0,0-.27,0l-.28,0-.23,0a.51.51,0,0,0-.28.15.74.74,0,0,0-.3.43,1,1,0,0,0,0,.24,2.88,2.88,0,0,0-.27.59,1,1,0,0,0-.92-.25,7.84,7.84,0,0,0-2.11.71,6,6,0,0,0-1.79,1.29,1,1,0,0,0,.68,1.65Zm5.92-2,0,0h0Zm0,0h0Zm.1,0-.16-.09h0a.08.08,0,0,0,0,0l0,0,0-.12v-.19a.34.34,0,0,1,0,.09.36.36,0,0,1,0-.11v0h0a.31.31,0,0,0,0-.08,1.81,1.81,0,0,1,.2.33c0,.07.05.15.08.23a.67.67,0,0,0,.06.12h0Z"/><path class="e01d8a09-2c0f-4db5-85e3-c72a4e5e79c5" d="M197,49.06a1,1,0,0,0,0-2A1,1,0,0,0,197,49.06Z"/><path class="e01d8a09-2c0f-4db5-85e3-c72a4e5e79c5" d="M195.83,57.67a1,1,0,0,0,.74-.09,3.74,3.74,0,0,0,.63-.48,5.69,5.69,0,0,0,.49-.61,4.49,4.49,0,0,0,.57-1,.63.63,0,0,0,.12-.37.72.72,0,0,0,0-.41,1,1,0,0,0-.46-.6,1,1,0,0,0-1.39.36,5,5,0,0,1-.52.9l-.24.29c-.12.12-.23.26-.34.38a1,1,0,0,0-.08,1.26A.91.91,0,0,0,195.83,57.67Z"/><path class="e01d8a09-2c0f-4db5-85e3-c72a4e5e79c5" d="M192.89,51.69l.17.13a.79.79,0,0,0,.42.12h.43a.62.62,0,0,0,.33-.07.55.55,0,0,0,.27-.17.57.57,0,0,0,.18-.28.62.62,0,0,0,.07-.33l0-.22a.81.81,0,0,0-.22-.38l-.17-.13a.8.8,0,0,0-.43-.12h-.32l-.11,0a.58.58,0,0,0-.32.07.55.55,0,0,0-.27.17.8.8,0,0,0-.18.27.71.71,0,0,0-.07.32l0,.23A.75.75,0,0,0,192.89,51.69Z"/><path class="e01d8a09-2c0f-4db5-85e3-c72a4e5e79c5" d="M191.74,59.92a1,1,0,0,0,0-2A1,1,0,0,0,191.74,59.92Z"/><path class="e01d8a09-2c0f-4db5-85e3-c72a4e5e79c5" d="M270.8,123.77a1,1,0,0,0,0-2A1,1,0,0,0,270.8,123.77Z"/><path class="e01d8a09-2c0f-4db5-85e3-c72a4e5e79c5" d="M265.59,126.19a.5.5,0,0,0,0,1A.5.5,0,0,0,265.59,126.19Z"/><path class="e01d8a09-2c0f-4db5-85e3-c72a4e5e79c5" d="M256.9,122.22a1,1,0,0,0,0,2A1,1,0,0,0,256.9,122.22Z"/><path class="e01d8a09-2c0f-4db5-85e3-c72a4e5e79c5" d="M266,121.6a1,1,0,0,0,0-2A1,1,0,0,0,266,121.6Z"/><path class="e01d8a09-2c0f-4db5-85e3-c72a4e5e79c5" d="M270.8,114.65a1,1,0,0,0,0-2A1,1,0,0,0,270.8,114.65Z"/><path class="e01d8a09-2c0f-4db5-85e3-c72a4e5e79c5" d="M261.52,127a1.06,1.06,0,0,0-.8.1,3.27,3.27,0,0,0-1,.94,2.62,2.62,0,0,0-.27.59,3.06,3.06,0,0,0-.12.66.86.86,0,0,0,.09.39.79.79,0,0,0,.2.31l.2.16a.85.85,0,0,0,.37.12.61.61,0,0,0,.27,0,.77.77,0,0,0,.36-.12,1,1,0,0,0,.46-.59,1.72,1.72,0,0,1,.07-.21,2.15,2.15,0,0,1,.14-.26l.21-.21h0a1.12,1.12,0,0,0,.47-.62.71.71,0,0,0,0-.41.77.77,0,0,0-.12-.38A1,1,0,0,0,261.52,127Z"/><path class="e01d8a09-2c0f-4db5-85e3-c72a4e5e79c5" d="M233.68,134.39l0,.05-.09-.07a.63.63,0,0,1,.11.12h0s0,0,0,.06a.07.07,0,0,1,0,.05.34.34,0,0,0,.06.12.5.5,0,0,0,0,.13v0l.06.09a.94.94,0,0,0,.8.46.92.92,0,0,0,.79-.46.37.37,0,0,0,.05-.11l.1-.23a.39.39,0,0,0,0-.15.32.32,0,0,0,0-.16.13.13,0,0,0,0-.06,1.67,1.67,0,0,0-.06-.38,3.65,3.65,0,0,0-.14-.35,2,2,0,0,0-.29-.41,1.26,1.26,0,0,0-.2-.2,1.13,1.13,0,0,0-.45-.26l-.27,0a1.15,1.15,0,0,0-.51.14,1.12,1.12,0,0,0-.46.61.68.68,0,0,0,0,.4.66.66,0,0,0,.12.38A1.09,1.09,0,0,0,233.68,134.39Zm.06.08v0s0,.05.07.07Zm0,0,0,0,0,0Z"/><path class="e01d8a09-2c0f-4db5-85e3-c72a4e5e79c5" d="M228.94,133.36a.87.87,0,0,0,.59.24.85.85,0,0,0,.59-.24l.13-.17a.79.79,0,0,0,.12-.42c0-.11,0-.22,0-.33s0-.22,0-.32v-.66a.9.9,0,0,0-.25-.59.85.85,0,0,0-.59-.24.87.87,0,0,0-.59.24.89.89,0,0,0-.24.59l0,.66v.31c0,.11,0,.23,0,.34A.87.87,0,0,0,228.94,133.36Z"/><path class="e01d8a09-2c0f-4db5-85e3-c72a4e5e79c5" d="M231.24,141.27l.09.22a.67.67,0,0,0,.24.26.45.45,0,0,0,.21.12.64.64,0,0,0,.36.08l.25,0,.22-.09a.67.67,0,0,0,.26-.24.76.76,0,0,0,.17-.32.56.56,0,0,1,0-.12l0-.07,0-.06a.74.74,0,0,1,.13-.12l-.1.07,0-.05a.85.85,0,0,0,.25-.25l.1-.24a1,1,0,0,0,0-.55.78.78,0,0,0-.18-.35.73.73,0,0,0-.29-.26.75.75,0,0,0-.38-.13.82.82,0,0,0-.41,0,1,1,0,0,0-.45.27.9.9,0,0,0-.2.19,2.34,2.34,0,0,0-.29.41,1.14,1.14,0,0,0-.13.35,2.32,2.32,0,0,0,0,.38.57.57,0,0,0,0,.13A2.47,2.47,0,0,0,231.24,141.27Zm1.91-.28-.06,0a.47.47,0,0,0,.1-.1Z"/><path class="e01d8a09-2c0f-4db5-85e3-c72a4e5e79c5" d="M225.37,140.68a.59.59,0,0,0,.25.22l.21.09a.9.9,0,0,0,.46,0,.91.91,0,0,0,.52-.4c.08-.14.16-.28.23-.43l.2-.44a.75.75,0,0,0,.1-.32.6.6,0,0,0,0-.35.54.54,0,0,0-.15-.29.64.64,0,0,0-.24-.22l-.21-.09a.9.9,0,0,0-.46,0,.88.88,0,0,0-.51.4l-.24.42a3.49,3.49,0,0,0-.2.44.65.65,0,0,0-.11.33.66.66,0,0,0,0,.34A.61.61,0,0,0,225.37,140.68Z"/><path class="e01d8a09-2c0f-4db5-85e3-c72a4e5e79c5" d="M291.9,133.64v.24a1,1,0,0,0,2.09,0v-.24A1.05,1.05,0,0,0,291.9,133.64Z"/><path class="e01d8a09-2c0f-4db5-85e3-c72a4e5e79c5" d="M286,134a1,1,0,0,0-.7.29,1,1,0,0,0-.29.7,3.64,3.64,0,0,1,0,.66,5.29,5.29,0,0,1-.15.57,3.3,3.3,0,0,1-.39.65l0,0a1.08,1.08,0,0,0-.29.7,1,1,0,0,0,1.68.69,4.46,4.46,0,0,0,1.16-3.3,1.08,1.08,0,0,0-.29-.7A1,1,0,0,0,286,134Z"/><path class="e01d8a09-2c0f-4db5-85e3-c72a4e5e79c5" d="M288.05,128.54a.62.62,0,0,0-.17-.26.65.65,0,0,0-.26-.17.67.67,0,0,0-.31-.07l-.22,0a.82.82,0,0,0-.36.21l-.13.17a.81.81,0,0,0-.11.41l0,.43a.66.66,0,0,0,.07.32.62.62,0,0,0,.17.27.68.68,0,0,0,.27.18.72.72,0,0,0,.33.07l.22,0a.83.83,0,0,0,.37-.22l.13-.17a.88.88,0,0,0,.11-.42l0-.43A.6.6,0,0,0,288.05,128.54Z"/><path class="e01d8a09-2c0f-4db5-85e3-c72a4e5e79c5" d="M292.41,120.39a2.52,2.52,0,0,0,.54-.9,3.55,3.55,0,0,0-.47-2.85,1,1,0,0,0-1.32-.34,1,1,0,0,0-.18.17l-.3-.11a2.39,2.39,0,0,0-1,0,1.82,1.82,0,0,0-.69.29,3.73,3.73,0,0,0-.43.36,2.1,2.1,0,0,0-.45.62,1.39,1.39,0,0,0,0,.88c0,.11.05.21.08.32a4.51,4.51,0,0,0,.29.72s.06.1.08.15a8.88,8.88,0,0,0-.82,1.27,7.22,7.22,0,0,0-.37.91,2,2,0,0,0-.07,1.17.88.88,0,0,0,1.46.39,2.94,2.94,0,0,0,.37-.5,2.86,2.86,0,0,0,.2-.48,9.2,9.2,0,0,1,.81-1.44,1.93,1.93,0,0,0,.47.08,1,1,0,0,0,.12.5,10,10,0,0,1,.57,1c.1.18.18.36.27.55a1.89,1.89,0,0,1,.09.21c-.09-.26,0,.06,0,.11.29.72.52,1.46.78,2.18a.92.92,0,0,0,1,.65.88.88,0,0,0,.78-.89,10.85,10.85,0,0,0-1.75-4.86Zm-1.45-1.9h.16a1.22,1.22,0,0,1,0,.27,1,1,0,0,1,0,.17.56.56,0,0,1-.05.08l0,.06-.06,0-.06,0h-.07l-.1,0-.11-.07a1.21,1.21,0,0,1-.16-.16,2.6,2.6,0,0,1-.21-.36c0-.07,0-.14-.07-.22l.3.08A4.37,4.37,0,0,0,291,118.49Z"/><path class="e01d8a09-2c0f-4db5-85e3-c72a4e5e79c5" d="M253.25,102.87a4.94,4.94,0,0,0,.83-.25c.32-.12.63-.26.95-.39.5-.22,1-.45,1.47-.7a.93.93,0,0,0,.36.4,6.55,6.55,0,0,0,1.38.45,5.4,5.4,0,0,1,.65.4h0l.14.12a3.45,3.45,0,0,1,.28.26,7.7,7.7,0,0,1,.54.6l0,0,.11.15c.08.11.15.23.23.35.58.91,1,1.91,1.61,2.82a.83.83,0,0,0,1,.33.8.8,0,0,0,.47-1,10.54,10.54,0,0,0-2.62-4.67,2.15,2.15,0,0,0,.58-.83,2.52,2.52,0,0,0,.08-1.28,4.72,4.72,0,0,0,1.77-1.1.84.84,0,0,0-1-1.32l-.48.33-.06,0-.13.1a8.1,8.1,0,0,1-.7.42l-.18.08-.05,0-.38.13-.38.13c-.05,0-.16.06-.2,0,.11,0,.13,0,.05,0h-.1a.79.79,0,0,0-.52.22l-.05.07a1,1,0,0,0-.26-.25,1.17,1.17,0,0,0-1.38.22,1.33,1.33,0,0,0-.42.64,2.72,2.72,0,0,1-.13.37l0,0a1,1,0,0,0-1.22-.17c-.47.24-1,.46-1.45.67l-.61.24c-.33.13-.64.27-1,.43a1,1,0,0,0,.76,1.79Z"/><path class="e01d8a09-2c0f-4db5-85e3-c72a4e5e79c5" d="M248.6,108.5l-.41.2c-1.1.53-.14,2.16,1,1.63a2.1,2.1,0,0,0,.26-.13l.14-.08a.82.82,0,0,0,.32-1.24.81.81,0,0,0-1-.47l-.13.06S248.64,108.48,248.6,108.5Z"/><path class="e01d8a09-2c0f-4db5-85e3-c72a4e5e79c5" d="M243.36,100.72a.78.78,0,0,0-.46-.46.65.65,0,0,0-.34-.07l-.23,0a.81.81,0,0,0-.38.22l-.14.18a1.17,1.17,0,0,1-.05.11.63.63,0,0,0-.24.16.59.59,0,0,0-.17.27.62.62,0,0,0-.08.33l0,.23a1.11,1.11,0,0,0,.22.38l.18.13a.82.82,0,0,0,.43.12,1,1,0,0,0,.17,0l.26,0h0l0,0a2,2,0,0,0,.22-.09h0a.91.91,0,0,0,.23-.17l0,0h0l.14-.18c.05-.08.09-.21.12-.26a.14.14,0,0,1,0-.07c0-.11,0-.21,0-.32v-.1A.81.81,0,0,0,243.36,100.72Z"/><path class="e01d8a09-2c0f-4db5-85e3-c72a4e5e79c5" d="M247.78,91.63a1,1,0,0,0,0-2A1,1,0,0,0,247.78,91.63Z"/><path class="e01d8a09-2c0f-4db5-85e3-c72a4e5e79c5" d="M248.71,49.45Z"/><path class="e01d8a09-2c0f-4db5-85e3-c72a4e5e79c5" d="M249.52,50h0l-.09,0Z"/><path class="e01d8a09-2c0f-4db5-85e3-c72a4e5e79c5" d="M248.81,52.28h0l0,0Z"/><path class="e01d8a09-2c0f-4db5-85e3-c72a4e5e79c5" d="M223.16,64.47a1.37,1.37,0,0,0,.49-.09,1,1,0,0,0,.28-.12l.24-.18.12-.1a3.36,3.36,0,0,0,.34-.41,1,1,0,0,0,.15-.24,2.06,2.06,0,0,0,.25-1,2.11,2.11,0,0,0-.31-1,1,1,0,0,0-.58-.44,1,1,0,0,0-.75.09,1,1,0,0,0-.45.59,1,1,0,0,0,.1.74v0h0l-.06.09a.69.69,0,0,1-.11.13l-.12.11a1,1,0,0,0-.19.22,2.27,2.27,0,0,0-.18.25.88.88,0,0,0,0,.9A.86.86,0,0,0,223.16,64.47Z"/><path class="e01d8a09-2c0f-4db5-85e3-c72a4e5e79c5" d="M222.51,63l.06-.07.09-.13Z"/><path class="e01d8a09-2c0f-4db5-85e3-c72a4e5e79c5" d="M227.34,63.55a1,1,0,0,0-.13.51v.48a.74.74,0,0,0,.08.39c0,.09.08.17.11.25a.92.92,0,0,0,.34.34.91.91,0,0,0,.48.13.85.85,0,0,0,.47-.13.8.8,0,0,0,.34-.34l.06-.13a1,1,0,0,0,.14-.51v-.48a1,1,0,0,0-.62-.92.86.86,0,0,0-.39-.09l-.27,0a1,1,0,0,0-.45.26Z"/><path class="e01d8a09-2c0f-4db5-85e3-c72a4e5e79c5" d="M231.91,67.42a1,1,0,0,0-.48-.14l-.25,0a1,1,0,0,0-.43.24l0,.06-.19.24a.75.75,0,0,0-.07.12l0,.07a2.36,2.36,0,0,0-.12.28.74.74,0,0,0,0,.14.7.7,0,0,0,0,.38.77.77,0,0,0,.12.36.72.72,0,0,0,.25.27.67.67,0,0,0,.32.17l.26,0a1.05,1.05,0,0,0,.49-.13l.19-.15a1,1,0,0,0,.25-.43.24.24,0,0,0,0-.08l.08-.13-.06.08v0a.66.66,0,0,0,.15-.22.77.77,0,0,0,.08-.37.8.8,0,0,0-.08-.37.79.79,0,0,0-.2-.31Zm.23,1.46,0,0s0,0,0,0Z"/><path class="e01d8a09-2c0f-4db5-85e3-c72a4e5e79c5" d="M236.4,67.29a.8.8,0,0,0,.3.19.86.86,0,0,0,.36.08l.24,0a.93.93,0,0,0,.41-.23l.14-.19a1,1,0,0,0,.13-.47v-.4a.72.72,0,0,0-.08-.35.67.67,0,0,0-.19-.3.8.8,0,0,0-.3-.19.72.72,0,0,0-.35-.08l-.25,0a1.06,1.06,0,0,0-.41.24l-.14.19a.94.94,0,0,0-.13.46v.4a.86.86,0,0,0,.08.36A.8.8,0,0,0,236.4,67.29Z"/><path class="e01d8a09-2c0f-4db5-85e3-c72a4e5e79c5" d="M234.06,62.82a.74.74,0,0,0,.33.17l.26,0a.91.91,0,0,0,.48-.13l.2-.15a1,1,0,0,0,.25-.43,5.15,5.15,0,0,0,.16-.56.74.74,0,0,0,0-.39.66.66,0,0,0-.11-.36.93.93,0,0,0-.25-.27.75.75,0,0,0-.34-.18l-.25,0a1,1,0,0,0-.5.13l-.19.15a1,1,0,0,0-.25.43c-.05.19-.1.38-.16.57a.7.7,0,0,0,0,.38.77.77,0,0,0,.12.36A.68.68,0,0,0,234.06,62.82Z"/><path class="e01d8a09-2c0f-4db5-85e3-c72a4e5e79c5" d="M230.51,59a.8.8,0,0,0,.34.18l.26,0a1.06,1.06,0,0,0,.5-.13l.2-.16a1,1,0,0,0,.26-.44l.08-.24a.74.74,0,0,0,0-.39.67.67,0,0,0-.11-.37.78.78,0,0,0-.26-.28.7.7,0,0,0-.34-.18l-.26,0a1,1,0,0,0-.5.13l-.2.16a1.06,1.06,0,0,0-.26.43l-.08.24a.78.78,0,0,0,0,.4.7.7,0,0,0,.11.37A.87.87,0,0,0,230.51,59Z"/><path class="e01d8a09-2c0f-4db5-85e3-c72a4e5e79c5" d="M225.41,56.9a.75.75,0,0,0,.26.24l.22.09a.79.79,0,0,0,.48,0l.22-.09a.87.87,0,0,0,.33-.33l.15-.24a.62.62,0,0,0,.11-.34.76.76,0,0,0-.18-.67.72.72,0,0,0-.25-.24l-.22-.09a1,1,0,0,0-.48,0l-.22.09a.87.87,0,0,0-.33.33l-.16.24a.68.68,0,0,0-.11.34.63.63,0,0,0,0,.36A.66.66,0,0,0,225.41,56.9Z"/><path class="e01d8a09-2c0f-4db5-85e3-c72a4e5e79c5" d="M219.62,55.72l-.07.09a2.78,2.78,0,0,0-.22.52l0,.26a.81.81,0,0,0,.08.38.57.57,0,0,0,.13.21.72.72,0,0,0,.27.25l.23.1.26,0a.71.71,0,0,0,.38-.08.79.79,0,0,0,.31-.2l.16-.16a1.68,1.68,0,0,0,.27-.37l.24-.37a.85.85,0,0,0,.12-.38.78.78,0,0,0,0-.4.7.7,0,0,0-.18-.34.9.9,0,0,0-.28-.27l-.25-.1a1,1,0,0,0-.53,0l-.25.1a1.06,1.06,0,0,0-.36.37Z"/><path class="e01d8a09-2c0f-4db5-85e3-c72a4e5e79c5" d="M225.66,51.37l.09.22.14.18.18.14a.72.72,0,0,0,.34.11.49.49,0,0,0,.24,0,.46.46,0,0,0,.23-.06.51.51,0,0,0,.2-.12.61.61,0,0,0,.23-.25l.11-.2c0-.09.07-.17.1-.26a2.7,2.7,0,0,0,0-.28v-.06a.49.49,0,0,1,0-.12l0-.51a.85.85,0,0,0-.09-.38.75.75,0,0,0-.21-.32,1,1,0,0,0-.7-.29l-.26,0a1,1,0,0,0-.44.26l-.16.2a1,1,0,0,0-.14.5,4.19,4.19,0,0,1,0,.5v.18a1.1,1.1,0,0,0,0,.31A.9.9,0,0,0,225.66,51.37Z"/><path class="e01d8a09-2c0f-4db5-85e3-c72a4e5e79c5" d="M218.22,51a.65.65,0,0,0,.27.17.43.43,0,0,0,.22.06.62.62,0,0,0,.33,0l.2-.08a.72.72,0,0,0,.3-.3l.08-.11,0,0,0-.06.12-.25a.62.62,0,0,0,.11-.32.7.7,0,0,0,0-.35.85.85,0,0,0-.15-.3.75.75,0,0,0-.25-.22l-.21-.09a.9.9,0,0,0-.46,0l-.21.09a.87.87,0,0,0-.32.31l-.12.25a.77.77,0,0,0-.07.16.52.52,0,0,0-.06.16l0,.13a.65.65,0,0,0,0,.34.71.71,0,0,0,.1.31Z"/><path class="e01d8a09-2c0f-4db5-85e3-c72a4e5e79c5" d="M213.87,50.13a.69.69,0,0,0,.31.2.82.82,0,0,0,.38.09l.26,0a.94.94,0,0,0,.43-.25l.15-.2a.77.77,0,0,0,.11-.3.78.78,0,0,1,.07-.25l-.05.13v-.06a.8.8,0,0,0,.07-.2.9.9,0,0,0-.19-.72.68.68,0,0,0-.28-.25l-.23-.1a.92.92,0,0,0-.52,0l-.23.1a.84.84,0,0,0-.35.35,2.27,2.27,0,0,0-.16.39s0,0,0,.08,0,.23,0,.34a.82.82,0,0,0,.09.38A.69.69,0,0,0,213.87,50.13Zm1.65-.62,0,.1a.88.88,0,0,0,.05-.15Z"/></svg>