<svg width="2500" height="2500" viewBox="0 0 2500 2500" fill="none" xmlns="http://www.w3.org/2000/svg">
<g clip-path="url(#clip0_31_523)">
<rect width="2500" height="2500" fill="black"/>
<rect x="62.5" y="62.5" width="2375" height="2375" stroke="black" stroke-width="125"/>
<rect x="250" y="250" width="2000" height="2000" stroke="white" stroke-width="250"/>
<rect x="562.5" y="1119.5" width="75" height="75" stroke="black" stroke-width="5"/>
<rect x="562.5" y="1439.5" width="75" height="75" fill="#F6F6F6" stroke="black" stroke-width="5"/>
<rect x="562.5" y="1199.5" width="75" height="75" stroke="black" stroke-width="5"/>
<rect x="562.5" y="1519.5" width="75" height="75" fill="#F6F6F6" stroke="black" stroke-width="5"/>
<rect x="562.5" y="1279.5" width="75" height="75" fill="#F6F6F6" stroke="black" stroke-width="5"/>
<rect x="562.5" y="1599.5" width="75" height="75" fill="#F6F6F6" stroke="black" stroke-width="5"/>
<rect x="562.5" y="1359.5" width="75" height="75" fill="#F6F6F6" stroke="black" stroke-width="5"/>
<rect x="562.5" y="1679.5" width="75" height="75" fill="#F6F6F6" stroke="black" stroke-width="5"/>
<rect x="725.5" y="1119.5" width="75" height="75" stroke="black" stroke-width="5"/>
<rect x="725.5" y="1439.5" width="75" height="75" stroke="black" stroke-width="5"/>
<rect x="725.5" y="1199.5" width="75" height="75" stroke="black" stroke-width="5"/>
<rect x="725.5" y="1519.5" width="75" height="75" fill="#00EEFF" stroke="black" stroke-width="5"/>
<rect x="725.5" y="1279.5" width="75" height="75" stroke="black" stroke-width="5"/>
<rect x="725.5" y="1599.5" width="75" height="75" fill="#00EEFF" stroke="black" stroke-width="5"/>
<rect x="725.5" y="1359.5" width="75" height="75" stroke="black" stroke-width="5"/>
<rect x="725.5" y="1679.5" width="75" height="75" fill="#00EEFF" stroke="black" stroke-width="5"/>
<rect x="888.5" y="1119.5" width="75" height="75" stroke="black" stroke-width="5"/>
<rect x="888.5" y="1439.5" width="75" height="75" stroke="black" stroke-width="5"/>
<rect x="888.5" y="1199.5" width="75" height="75" stroke="black" stroke-width="5"/>
<rect x="888.5" y="1519.5" width="75" height="75" stroke="black" stroke-width="5"/>
<rect x="888.5" y="1279.5" width="75" height="75" stroke="black" stroke-width="5"/>
<rect x="888.5" y="1599.5" width="75" height="75" fill="#FFF700" stroke="black" stroke-width="5"/>
<rect x="888.5" y="1359.5" width="75" height="75" stroke="black" stroke-width="5"/>
<rect x="888.5" y="1679.5" width="75" height="75" fill="#FFF700" stroke="black" stroke-width="5"/>
<rect x="1849.5" y="960.5" width="75" height="75" transform="rotate(90 1849.5 960.5)" fill="#FFA200" fill-opacity="0.25" stroke="black" stroke-width="5"/>
<rect x="1529.5" y="960.5" width="75" height="75" transform="rotate(90 1529.5 960.5)" fill="#FFA200" stroke="black" stroke-width="5"/>
<rect x="1769.5" y="960.5" width="75" height="75" transform="rotate(90 1769.5 960.5)" fill="#FFA200" fill-opacity="0.5" stroke="black" stroke-width="5"/>
<rect x="1449.5" y="960.5" width="75" height="75" transform="rotate(90 1449.5 960.5)" fill="#FFA200" fill-opacity="0.75" stroke="black" stroke-width="5"/>
<rect x="1689.5" y="960.5" width="75" height="75" transform="rotate(90 1689.5 960.5)" fill="#FFA200" fill-opacity="0.75" stroke="black" stroke-width="5"/>
<rect x="1369.5" y="960.5" width="75" height="75" transform="rotate(90 1369.5 960.5)" fill="#FFA200" fill-opacity="0.5" stroke="black" stroke-width="5"/>
<rect x="1609.5" y="960.5" width="75" height="75" transform="rotate(90 1609.5 960.5)" fill="#FFA200" stroke="black" stroke-width="5"/>
<rect x="1289.5" y="960.5" width="75" height="75" transform="rotate(90 1289.5 960.5)" fill="#FFA200" fill-opacity="0.25" stroke="black" stroke-width="5"/>
<rect x="1051.5" y="1119.5" width="75" height="75" stroke="black" stroke-width="5"/>
<rect x="1051.5" y="1439.5" width="75" height="75" fill="#FF0000" stroke="black" stroke-width="5"/>
<rect x="1051.5" y="1199.5" width="75" height="75" stroke="black" stroke-width="5"/>
<rect x="1051.5" y="1519.5" width="75" height="75" fill="#FF0000" stroke="black" stroke-width="5"/>
<rect x="1051.5" y="1279.5" width="75" height="75" stroke="black" stroke-width="5"/>
<rect x="1051.5" y="1599.5" width="75" height="75" fill="#FF0000" stroke="black" stroke-width="5"/>
<rect x="1051.5" y="1359.5" width="75" height="75" stroke="black" stroke-width="5"/>
<rect x="1051.5" y="1679.5" width="75" height="75" fill="#FF0000" stroke="black" stroke-width="5"/>
<rect x="1214.5" y="1119.5" width="75" height="75" stroke="black" stroke-width="5"/>
<rect x="1214.5" y="1439.5" width="75" height="75" stroke="black" stroke-width="5"/>
<rect x="1214.5" y="1199.5" width="75" height="75" stroke="black" stroke-width="5"/>
<rect x="1214.5" y="1519.5" width="75" height="75" stroke="black" stroke-width="5"/>
<rect x="1214.5" y="1279.5" width="75" height="75" stroke="black" stroke-width="5"/>
<rect x="1214.5" y="1599.5" width="75" height="75" stroke="black" stroke-width="5"/>
<rect x="1214.5" y="1359.5" width="75" height="75" stroke="black" stroke-width="5"/>
<rect x="1214.5" y="1679.5" width="75" height="75" fill="#33A713" stroke="black" stroke-width="5"/>
<rect x="1294.5" y="1119.5" width="75" height="75" stroke="black" stroke-width="5"/>
<rect x="1294.5" y="1439.5" width="75" height="75" stroke="black" stroke-width="5"/>
<rect x="1294.5" y="1199.5" width="75" height="75" fill="#FFAF97" stroke="black" stroke-width="5"/>
<rect x="1294.5" y="1519.5" width="75" height="75" stroke="black" stroke-width="5"/>
<rect x="1294.5" y="1279.5" width="75" height="75" stroke="black" stroke-width="5"/>
<rect x="1294.5" y="1599.5" width="75" height="75" fill="#33A713" stroke="black" stroke-width="5"/>
<rect x="1294.5" y="1359.5" width="75" height="75" fill="#33A713" stroke="black" stroke-width="5"/>
<rect x="1294.5" y="1679.5" width="75" height="75" stroke="black" stroke-width="5"/>
<rect x="1374.5" y="1119.5" width="75" height="75" stroke="black" stroke-width="5"/>
<rect x="1374.5" y="1439.5" width="75" height="75" fill="#33A713" stroke="black" stroke-width="5"/>
<rect x="1374.5" y="1199.5" width="75" height="75" fill="#FF00EA" stroke="black" stroke-width="5"/>
<rect x="1374.5" y="1519.5" width="75" height="75" stroke="black" stroke-width="5"/>
<rect x="1374.5" y="1279.5" width="75" height="75" stroke="black" stroke-width="5"/>
<rect x="1374.5" y="1599.5" width="75" height="75" fill="#33A713" stroke="black" stroke-width="5"/>
<rect x="1374.5" y="1359.5" width="75" height="75" stroke="black" stroke-width="5"/>
<rect x="1374.5" y="1679.5" width="75" height="75" fill="#37FF00" stroke="black" stroke-width="5"/>
<rect x="1454.5" y="1119.5" width="75" height="75" stroke="black" stroke-width="5"/>
<rect x="1454.5" y="1439.5" width="75" height="75" stroke="black" stroke-width="5"/>
<rect x="1454.5" y="1199.5" width="75" height="75" stroke="black" stroke-width="5"/>
<rect x="1454.5" y="1519.5" width="75" height="75" fill="#33A713" stroke="black" stroke-width="5"/>
<rect x="1454.5" y="1279.5" width="75" height="75" fill="#FF00EA" stroke="black" stroke-width="5"/>
<rect x="1454.5" y="1599.5" width="75" height="75" fill="#37FF00" stroke="black" stroke-width="5"/>
<rect x="1454.5" y="1359.5" width="75" height="75" stroke="black" stroke-width="5"/>
<rect x="1454.5" y="1679.5" width="75" height="75" stroke="black" stroke-width="5"/>
<rect x="1534.5" y="1119.5" width="75" height="75" fill="#FF00EA" stroke="black" stroke-width="5"/>
<rect x="1534.5" y="1439.5" width="75" height="75" stroke="black" stroke-width="5"/>
<rect x="1534.5" y="1199.5" width="75" height="75" stroke="black" stroke-width="5"/>
<rect x="1534.5" y="1519.5" width="75" height="75" stroke="black" stroke-width="5"/>
<rect x="1534.5" y="1279.5" width="75" height="75" stroke="black" stroke-width="5"/>
<rect x="1534.5" y="1599.5" width="75" height="75" fill="#33A713" stroke="black" stroke-width="5"/>
<rect x="1534.5" y="1359.5" width="75" height="75" stroke="black" stroke-width="5"/>
<rect x="1534.5" y="1679.5" width="75" height="75" fill="#33A713" stroke="black" stroke-width="5"/>
<rect x="1614.5" y="1119.5" width="75" height="75" fill="#FF00EA" stroke="black" stroke-width="5"/>
<rect x="1614.5" y="1439.5" width="75" height="75" fill="#33A713" stroke="black" stroke-width="5"/>
<rect x="1614.5" y="1199.5" width="75" height="75" fill="#FFAF97" stroke="black" stroke-width="5"/>
<rect x="1614.5" y="1519.5" width="75" height="75" stroke="black" stroke-width="5"/>
<rect x="1614.5" y="1279.5" width="75" height="75" stroke="black" stroke-width="5"/>
<rect x="1614.5" y="1599.5" width="75" height="75" stroke="black" stroke-width="5"/>
<rect x="1614.5" y="1359.5" width="75" height="75" stroke="black" stroke-width="5"/>
<rect x="1614.5" y="1679.5" width="75" height="75" stroke="black" stroke-width="5"/>
<rect x="1694.5" y="1119.5" width="75" height="75" fill="#FFAF97" stroke="black" stroke-width="5"/>
<rect x="1694.5" y="1439.5" width="75" height="75" fill="#37FF00" stroke="black" stroke-width="5"/>
<rect x="1694.5" y="1199.5" width="75" height="75" fill="#FF00EA" stroke="black" stroke-width="5"/>
<rect x="1694.5" y="1519.5" width="75" height="75" stroke="black" stroke-width="5"/>
<rect x="1694.5" y="1279.5" width="75" height="75" stroke="black" stroke-width="5"/>
<rect x="1694.5" y="1599.5" width="75" height="75" fill="#33A713" stroke="black" stroke-width="5"/>
<rect x="1694.5" y="1359.5" width="75" height="75" stroke="black" stroke-width="5"/>
<rect x="1694.5" y="1679.5" width="75" height="75" fill="#37FF00" stroke="black" stroke-width="5"/>
<rect x="1774.5" y="1119.5" width="75" height="75" fill="#FF00EA" stroke="black" stroke-width="5"/>
<rect x="1774.5" y="1439.5" width="75" height="75" stroke="black" stroke-width="5"/>
<rect x="1774.5" y="1199.5" width="75" height="75" stroke="black" stroke-width="5"/>
<rect x="1774.5" y="1519.5" width="75" height="75" fill="#37FF00" stroke="black" stroke-width="5"/>
<rect x="1774.5" y="1279.5" width="75" height="75" fill="#FFAF97" stroke="black" stroke-width="5"/>
<rect x="1774.5" y="1599.5" width="75" height="75" stroke="black" stroke-width="5"/>
<rect x="1774.5" y="1359.5" width="75" height="75" stroke="black" stroke-width="5"/>
<rect x="1774.5" y="1679.5" width="75" height="75" fill="#33A713" stroke="black" stroke-width="5"/>
<circle cx="853.035" cy="915.061" r="75" transform="rotate(14.9013 853.035 915.061)" stroke="black" stroke-width="50"/>
<circle cx="880.869" cy="846.549" r="20" transform="rotate(21.0899 880.869 846.549)" fill="#B9F0F2" fill-opacity="0.3"/>
<circle cx="922.282" cy="941.955" r="20" transform="rotate(21.0899 922.282 941.955)" fill="#4E48EF" fill-opacity="0.3"/>
<circle cx="921.016" cy="888.015" r="20" transform="rotate(21.0899 921.016 888.015)" fill="#B9F0F2" fill-opacity="0.3"/>
<circle cx="825.875" cy="844.348" r="20" transform="rotate(21.0899 825.875 844.348)" fill="#FFF700"/>
<circle cx="786.62" cy="946.132" r="20" transform="rotate(21.0899 786.62 946.132)" fill="#4E48EF" fill-opacity="0.3"/>
<circle cx="783.628" cy="886.517" r="20" transform="rotate(21.0899 783.628 886.517)" fill="#B9F0F2" fill-opacity="0.3"/>
<circle cx="828.788" cy="988.378" r="20" transform="rotate(21.0899 828.788 988.378)" fill="#4E48EF" fill-opacity="0.3"/>
<circle cx="884.624" cy="983.407" r="20" transform="rotate(21.0899 884.624 983.407)" fill="#4E48EF" fill-opacity="0.3"/>
<rect x="375" y="375" width="1750" height="1750" fill="#7F7F7F" fill-opacity="0.3"/>
</g>
<rect x="0.625" y="0.625" width="2498.75" height="2498.75" stroke="black" stroke-width="1.25"/>
<defs>
<clipPath id="clip0_31_523">
<rect width="2500" height="2500" fill="white"/>
</clipPath>
</defs>
</svg>
