<svg width="2500" height="2500" viewBox="0 0 2500 2500" fill="none" xmlns="http://www.w3.org/2000/svg">
<g clip-path="url(#clip0_31_517)">
<rect width="2500" height="2500" fill="black"/>
<rect x="62.5" y="62.5" width="2375" height="2375" stroke="black" stroke-width="125"/>
<rect x="250" y="250" width="2000" height="2000" stroke="white" stroke-width="250"/>
<rect x="452.5" y="452.5" width="95" height="95" fill="black" stroke="black" stroke-width="5"/>
<rect x="1252.5" y="452.5" width="95" height="95" fill="black" stroke="black" stroke-width="5"/>
<rect x="452.5" y="1252.5" width="95" height="95" fill="#E8EDB1" stroke="black" stroke-width="5"/>
<rect x="1252.5" y="1252.5" width="95" height="95" fill="black" stroke="black" stroke-width="5"/>
<rect x="452.5" y="852.5" width="95" height="95" fill="black" stroke="black" stroke-width="5"/>
<rect x="1252.5" y="852.5" width="95" height="95" fill="#E8EDB1" stroke="black" stroke-width="5"/>
<rect x="452.5" y="1652.5" width="95" height="95" fill="black" stroke="black" stroke-width="5"/>
<rect x="1252.5" y="1652.5" width="95" height="95" fill="#E8EDB1" stroke="black" stroke-width="5"/>
<rect x="452.5" y="552.5" width="95" height="95" fill="black" stroke="black" stroke-width="5"/>
<rect x="1252.5" y="552.5" width="95" height="95" fill="black" stroke="black" stroke-width="5"/>
<rect x="452.5" y="1352.5" width="95" height="95" fill="black" stroke="black" stroke-width="5"/>
<rect x="1252.5" y="1352.5" width="95" height="95" fill="#FFA200" stroke="black" stroke-width="5"/>
<rect x="452.5" y="952.5" width="95" height="95" fill="black" stroke="black" stroke-width="5"/>
<rect x="1252.5" y="952.5" width="95" height="95" fill="#FFF700" stroke="black" stroke-width="5"/>
<rect x="452.5" y="1752.5" width="95" height="95" fill="black" stroke="black" stroke-width="5"/>
<rect x="1252.5" y="1752.5" width="95" height="95" fill="black" stroke="black" stroke-width="5"/>
<rect x="452.5" y="652.5" width="95" height="95" fill="black" stroke="black" stroke-width="5"/>
<rect x="1252.5" y="652.5" width="95" height="95" fill="black" stroke="black" stroke-width="5"/>
<rect x="452.5" y="1452.5" width="95" height="95" fill="black" stroke="black" stroke-width="5"/>
<rect x="1252.5" y="1452.5" width="95" height="95" fill="#FFF700" stroke="black" stroke-width="5"/>
<rect x="452.5" y="1052.5" width="95" height="95" fill="black" stroke="black" stroke-width="5"/>
<rect x="1252.5" y="1052.5" width="95" height="95" fill="white" stroke="black" stroke-width="5"/>
<rect x="452.5" y="1852.5" width="95" height="95" fill="black" stroke="black" stroke-width="5"/>
<rect x="1252.5" y="1852.5" width="95" height="95" fill="black" stroke="black" stroke-width="5"/>
<rect x="452.5" y="752.5" width="95" height="95" fill="black" stroke="black" stroke-width="5"/>
<rect x="1252.5" y="752.5" width="95" height="95" fill="#E8EDB1" stroke="black" stroke-width="5"/>
<rect x="452.5" y="1552.5" width="95" height="95" fill="black" stroke="black" stroke-width="5"/>
<rect x="1252.5" y="1552.5" width="95" height="95" fill="#E8EDB1" stroke="black" stroke-width="5"/>
<rect x="452.5" y="1152.5" width="95" height="95" fill="#E8EDB1" stroke="black" stroke-width="5"/>
<rect x="1252.5" y="1152.5" width="95" height="95" fill="white" stroke="black" stroke-width="5"/>
<rect x="452.5" y="1952.5" width="95" height="95" fill="black" stroke="black" stroke-width="5"/>
<rect x="1252.5" y="1952.5" width="95" height="95" fill="black" stroke="black" stroke-width="5"/>
<rect x="852.5" y="452.5" width="95" height="95" fill="black" stroke="black" stroke-width="5"/>
<rect x="1652.5" y="452.5" width="95" height="95" fill="black" stroke="black" stroke-width="5"/>
<rect x="852.5" y="1252.5" width="95" height="95" fill="#E8EDB1" stroke="black" stroke-width="5"/>
<rect x="1652.5" y="1252.5" width="95" height="95" fill="#E8EDB1" stroke="black" stroke-width="5"/>
<rect x="852.5" y="852.5" width="95" height="95" fill="#E8EDB1" stroke="black" stroke-width="5"/>
<rect x="1652.5" y="852.5" width="95" height="95" fill="#E8EDB1" stroke="black" stroke-width="5"/>
<rect x="852.5" y="1652.5" width="95" height="95" fill="black" stroke="black" stroke-width="5"/>
<rect x="1652.5" y="1652.5" width="95" height="95" fill="black" stroke="black" stroke-width="5"/>
<rect x="852.5" y="552.5" width="95" height="95" fill="black" stroke="black" stroke-width="5"/>
<rect x="1652.5" y="552.5" width="95" height="95" fill="black" stroke="black" stroke-width="5"/>
<rect x="852.5" y="1352.5" width="95" height="95" fill="#E8EDB1" stroke="black" stroke-width="5"/>
<rect x="1652.5" y="1352.5" width="95" height="95" fill="#E8EDB1" stroke="black" stroke-width="5"/>
<rect x="852.5" y="952.5" width="95" height="95" fill="#E8EDB1" stroke="black" stroke-width="5"/>
<rect x="1652.5" y="952.5" width="95" height="95" fill="#E8EDB1" stroke="black" stroke-width="5"/>
<rect x="852.5" y="1752.5" width="95" height="95" fill="black" stroke="black" stroke-width="5"/>
<rect x="1652.5" y="1752.5" width="95" height="95" fill="black" stroke="black" stroke-width="5"/>
<rect x="852.5" y="652.5" width="95" height="95" fill="black" stroke="black" stroke-width="5"/>
<rect x="1652.5" y="652.5" width="95" height="95" fill="black" stroke="black" stroke-width="5"/>
<rect x="852.5" y="1452.5" width="95" height="95" fill="#E8EDB1" stroke="black" stroke-width="5"/>
<rect x="1652.5" y="1452.5" width="95" height="95" fill="#E8EDB1" stroke="black" stroke-width="5"/>
<rect x="852.5" y="1052.5" width="95" height="95" fill="#E8EDB1" stroke="black" stroke-width="5"/>
<rect x="1652.5" y="1052.5" width="95" height="95" fill="#E8EDB1" stroke="black" stroke-width="5"/>
<rect x="852.5" y="1852.5" width="95" height="95" fill="black" stroke="black" stroke-width="5"/>
<rect x="1652.5" y="1852.5" width="95" height="95" fill="black" stroke="black" stroke-width="5"/>
<rect x="852.5" y="752.5" width="95" height="95" fill="black" stroke="black" stroke-width="5"/>
<rect x="1652.5" y="752.5" width="95" height="95" fill="black" stroke="black" stroke-width="5"/>
<rect x="852.5" y="1552.5" width="95" height="95" fill="#E8EDB1" stroke="black" stroke-width="5"/>
<rect x="1652.5" y="1552.5" width="95" height="95" fill="#E8EDB1" stroke="black" stroke-width="5"/>
<rect x="852.5" y="1152.5" width="95" height="95" fill="#E8EDB1" stroke="black" stroke-width="5"/>
<rect x="1652.5" y="1152.5" width="95" height="95" fill="#E8EDB1" stroke="black" stroke-width="5"/>
<rect x="852.5" y="1952.5" width="95" height="95" fill="black" stroke="black" stroke-width="5"/>
<rect x="1652.5" y="1952.5" width="95" height="95" fill="black" stroke="black" stroke-width="5"/>
<rect x="952.5" y="452.5" width="95" height="95" fill="black" stroke="black" stroke-width="5"/>
<rect x="1752.5" y="452.5" width="95" height="95" fill="black" stroke="black" stroke-width="5"/>
<rect x="952.5" y="1252.5" width="95" height="95" fill="#FFF700" stroke="black" stroke-width="5"/>
<rect x="1752.5" y="1252.5" width="95" height="95" fill="#E8EDB1" stroke="black" stroke-width="5"/>
<rect x="952.5" y="852.5" width="95" height="95" fill="#E8EDB1" stroke="black" stroke-width="5"/>
<rect x="1752.5" y="852.5" width="95" height="95" fill="black" stroke="black" stroke-width="5"/>
<rect x="952.5" y="1652.5" width="95" height="95" fill="#E8EDB1" stroke="black" stroke-width="5"/>
<rect x="1752.5" y="1652.5" width="95" height="95" fill="black" stroke="black" stroke-width="5"/>
<rect x="952.5" y="552.5" width="95" height="95" fill="black" stroke="black" stroke-width="5"/>
<rect x="1752.5" y="552.5" width="95" height="95" fill="black" stroke="black" stroke-width="5"/>
<rect x="952.5" y="1352.5" width="95" height="95" fill="#FFF700" stroke="black" stroke-width="5"/>
<rect x="1752.5" y="1352.5" width="95" height="95" fill="#E8EDB1" stroke="black" stroke-width="5"/>
<rect x="952.5" y="952.5" width="95" height="95" fill="#E8EDB1" stroke="black" stroke-width="5"/>
<rect x="1752.5" y="952.5" width="95" height="95" fill="#E8EDB1" stroke="black" stroke-width="5"/>
<rect x="952.5" y="1752.5" width="95" height="95" fill="black" stroke="black" stroke-width="5"/>
<rect x="1752.5" y="1752.5" width="95" height="95" fill="black" stroke="black" stroke-width="5"/>
<rect x="952.5" y="652.5" width="95" height="95" fill="black" stroke="black" stroke-width="5"/>
<rect x="1752.5" y="652.5" width="95" height="95" fill="black" stroke="black" stroke-width="5"/>
<rect x="952.5" y="1452.5" width="95" height="95" fill="#E8EDB1" stroke="black" stroke-width="5"/>
<rect x="1752.5" y="1452.5" width="95" height="95" fill="#E8EDB1" stroke="black" stroke-width="5"/>
<rect x="952.5" y="1052.5" width="95" height="95" fill="#FFF700" stroke="black" stroke-width="5"/>
<rect x="1752.5" y="1052.5" width="95" height="95" fill="#E8EDB1" stroke="black" stroke-width="5"/>
<rect x="952.5" y="1852.5" width="95" height="95" fill="black" stroke="black" stroke-width="5"/>
<rect x="1752.5" y="1852.5" width="95" height="95" fill="black" stroke="black" stroke-width="5"/>
<rect x="952.5" y="752.5" width="95" height="95" fill="#E8EDB1" stroke="black" stroke-width="5"/>
<rect x="1752.5" y="752.5" width="95" height="95" fill="black" stroke="black" stroke-width="5"/>
<rect x="952.5" y="1552.5" width="95" height="95" fill="#E8EDB1" stroke="black" stroke-width="5"/>
<rect x="1752.5" y="1552.5" width="95" height="95" fill="black" stroke="black" stroke-width="5"/>
<rect x="952.5" y="1152.5" width="95" height="95" fill="#FFF700" stroke="black" stroke-width="5"/>
<rect x="1752.5" y="1152.5" width="95" height="95" fill="#E8EDB1" stroke="black" stroke-width="5"/>
<rect x="952.5" y="1952.5" width="95" height="95" fill="black" stroke="black" stroke-width="5"/>
<rect x="1752.5" y="1952.5" width="95" height="95" fill="black" stroke="black" stroke-width="5"/>
<rect x="1052.5" y="452.5" width="95" height="95" fill="black" stroke="black" stroke-width="5"/>
<rect x="1852.5" y="452.5" width="95" height="95" fill="black" stroke="black" stroke-width="5"/>
<rect x="1052.5" y="1252.5" width="95" height="95" fill="#FFA200" stroke="black" stroke-width="5"/>
<rect x="1852.5" y="1252.5" width="95" height="95" fill="#E8EDB1" stroke="black" stroke-width="5"/>
<rect x="1052.5" y="852.5" width="95" height="95" fill="#E8EDB1" stroke="black" stroke-width="5"/>
<rect x="1852.5" y="852.5" width="95" height="95" fill="black" stroke="black" stroke-width="5"/>
<rect x="1052.5" y="1652.5" width="95" height="95" fill="#E8EDB1" stroke="black" stroke-width="5"/>
<rect x="1852.5" y="1652.5" width="95" height="95" fill="black" stroke="black" stroke-width="5"/>
<rect x="1052.5" y="552.5" width="95" height="95" fill="black" stroke="black" stroke-width="5"/>
<rect x="1852.5" y="552.5" width="95" height="95" fill="black" stroke="black" stroke-width="5"/>
<rect x="1052.5" y="1352.5" width="95" height="95" fill="#FFF700" stroke="black" stroke-width="5"/>
<rect x="1852.5" y="1352.5" width="95" height="95" fill="#E8EDB1" stroke="black" stroke-width="5"/>
<rect x="1052.5" y="952.5" width="95" height="95" fill="#FFF700" stroke="black" stroke-width="5"/>
<rect x="1852.5" y="952.5" width="95" height="95" fill="black" stroke="black" stroke-width="5"/>
<rect x="1052.5" y="1752.5" width="95" height="95" fill="black" stroke="black" stroke-width="5"/>
<rect x="1852.5" y="1752.5" width="95" height="95" fill="black" stroke="black" stroke-width="5"/>
<rect x="1052.5" y="652.5" width="95" height="95" fill="black" stroke="black" stroke-width="5"/>
<rect x="1852.5" y="652.5" width="95" height="95" fill="black" stroke="black" stroke-width="5"/>
<rect x="1052.5" y="1452.5" width="95" height="95" fill="#FFF700" stroke="black" stroke-width="5"/>
<rect x="1852.5" y="1452.5" width="95" height="95" fill="black" stroke="black" stroke-width="5"/>
<rect x="1052.5" y="1052.5" width="95" height="95" fill="#FFF700" stroke="black" stroke-width="5"/>
<rect x="1852.5" y="1052.5" width="95" height="95" fill="#E8EDB1" stroke="black" stroke-width="5"/>
<rect x="1052.5" y="1852.5" width="95" height="95" fill="black" stroke="black" stroke-width="5"/>
<rect x="1852.5" y="1852.5" width="95" height="95" fill="black" stroke="black" stroke-width="5"/>
<rect x="1052.5" y="752.5" width="95" height="95" fill="#E8EDB1" stroke="black" stroke-width="5"/>
<rect x="1852.5" y="752.5" width="95" height="95" fill="black" stroke="black" stroke-width="5"/>
<rect x="1052.5" y="1552.5" width="95" height="95" fill="#E8EDB1" stroke="black" stroke-width="5"/>
<rect x="1852.5" y="1552.5" width="95" height="95" fill="black" stroke="black" stroke-width="5"/>
<rect x="1052.5" y="1152.5" width="95" height="95" fill="#FFA200" stroke="black" stroke-width="5"/>
<rect x="1852.5" y="1152.5" width="95" height="95" fill="#E8EDB1" stroke="black" stroke-width="5"/>
<rect x="1052.5" y="1952.5" width="95" height="95" fill="black" stroke="black" stroke-width="5"/>
<rect x="1852.5" y="1952.5" width="95" height="95" fill="black" stroke="black" stroke-width="5"/>
<rect x="1152.5" y="452.5" width="95" height="95" fill="black" stroke="black" stroke-width="5"/>
<rect x="1952.5" y="452.5" width="95" height="95" fill="black" stroke="black" stroke-width="5"/>
<rect x="1152.5" y="1252.5" width="95" height="95" fill="black" stroke="black" stroke-width="5"/>
<rect x="1952.5" y="1252.5" width="95" height="95" fill="#E8EDB1" stroke="black" stroke-width="5"/>
<rect x="1152.5" y="852.5" width="95" height="95" fill="#E8EDB1" stroke="black" stroke-width="5"/>
<rect x="1952.5" y="852.5" width="95" height="95" fill="black" stroke="black" stroke-width="5"/>
<rect x="1152.5" y="1652.5" width="95" height="95" fill="#E8EDB1" stroke="black" stroke-width="5"/>
<rect x="1952.5" y="1652.5" width="95" height="95" fill="black" stroke="black" stroke-width="5"/>
<rect x="1152.5" y="552.5" width="95" height="95" fill="black" stroke="black" stroke-width="5"/>
<rect x="1952.5" y="552.5" width="95" height="95" fill="black" stroke="black" stroke-width="5"/>
<rect x="1152.5" y="1352.5" width="95" height="95" fill="#FFA200" stroke="black" stroke-width="5"/>
<rect x="1952.5" y="1352.5" width="95" height="95" fill="black" stroke="black" stroke-width="5"/>
<rect x="1152.5" y="952.5" width="95" height="95" fill="#FFF700" stroke="black" stroke-width="5"/>
<rect x="1952.5" y="952.5" width="95" height="95" fill="black" stroke="black" stroke-width="5"/>
<rect x="1152.5" y="1752.5" width="95" height="95" fill="black" stroke="black" stroke-width="5"/>
<rect x="1952.5" y="1752.5" width="95" height="95" fill="black" stroke="black" stroke-width="5"/>
<rect x="1152.5" y="652.5" width="95" height="95" fill="black" stroke="black" stroke-width="5"/>
<rect x="1952.5" y="652.5" width="95" height="95" fill="black" stroke="black" stroke-width="5"/>
<rect x="1152.5" y="1452.5" width="95" height="95" fill="#FFF700" stroke="black" stroke-width="5"/>
<rect x="1952.5" y="1452.5" width="95" height="95" fill="black" stroke="black" stroke-width="5"/>
<rect x="1152.5" y="1052.5" width="95" height="95" fill="#FFA200" stroke="black" stroke-width="5"/>
<rect x="1952.5" y="1052.5" width="95" height="95" fill="black" stroke="black" stroke-width="5"/>
<rect x="1152.5" y="1852.5" width="95" height="95" fill="black" stroke="black" stroke-width="5"/>
<rect x="1952.5" y="1852.5" width="95" height="95" fill="black" stroke="black" stroke-width="5"/>
<rect x="1152.5" y="752.5" width="95" height="95" fill="#E8EDB1" stroke="black" stroke-width="5"/>
<rect x="1952.5" y="752.5" width="95" height="95" fill="black" stroke="black" stroke-width="5"/>
<rect x="1152.5" y="1552.5" width="95" height="95" fill="#E8EDB1" stroke="black" stroke-width="5"/>
<rect x="1952.5" y="1552.5" width="95" height="95" fill="black" stroke="black" stroke-width="5"/>
<rect x="1152.5" y="1152.5" width="95" height="95" fill="black" stroke="black" stroke-width="5"/>
<rect x="1952.5" y="1152.5" width="95" height="95" fill="#E8EDB1" stroke="black" stroke-width="5"/>
<rect x="1152.5" y="1952.5" width="95" height="95" fill="black" stroke="black" stroke-width="5"/>
<rect x="1952.5" y="1952.5" width="95" height="95" fill="black" stroke="black" stroke-width="5"/>
<rect x="552.5" y="452.5" width="95" height="95" fill="black" stroke="black" stroke-width="5"/>
<rect x="1352.5" y="452.5" width="95" height="95" fill="black" stroke="black" stroke-width="5"/>
<rect x="552.5" y="1252.5" width="95" height="95" fill="#E8EDB1" stroke="black" stroke-width="5"/>
<rect x="1352.5" y="1252.5" width="95" height="95" fill="#FFA200" stroke="black" stroke-width="5"/>
<rect x="552.5" y="852.5" width="95" height="95" fill="black" stroke="black" stroke-width="5"/>
<rect x="1352.5" y="852.5" width="95" height="95" fill="#E8EDB1" stroke="black" stroke-width="5"/>
<rect x="552.5" y="1652.5" width="95" height="95" fill="black" stroke="black" stroke-width="5"/>
<rect x="1352.5" y="1652.5" width="95" height="95" fill="#E8EDB1" stroke="black" stroke-width="5"/>
<rect x="552.5" y="552.5" width="95" height="95" fill="black" stroke="black" stroke-width="5"/>
<rect x="1352.5" y="552.5" width="95" height="95" fill="black" stroke="black" stroke-width="5"/>
<rect x="552.5" y="1352.5" width="95" height="95" fill="#E8EDB1" stroke="black" stroke-width="5"/>
<rect x="1352.5" y="1352.5" width="95" height="95" fill="#FFF700" stroke="black" stroke-width="5"/>
<rect x="552.5" y="952.5" width="95" height="95" fill="black" stroke="black" stroke-width="5"/>
<rect x="1352.5" y="952.5" width="95" height="95" fill="#FFF700" stroke="black" stroke-width="5"/>
<rect x="552.5" y="1752.5" width="95" height="95" fill="black" stroke="black" stroke-width="5"/>
<rect x="1352.5" y="1752.5" width="95" height="95" fill="black" stroke="black" stroke-width="5"/>
<rect x="552.5" y="652.5" width="95" height="95" fill="black" stroke="black" stroke-width="5"/>
<rect x="1352.5" y="652.5" width="95" height="95" fill="black" stroke="black" stroke-width="5"/>
<rect x="552.5" y="1452.5" width="95" height="95" fill="black" stroke="black" stroke-width="5"/>
<rect x="1352.5" y="1452.5" width="95" height="95" fill="#FFF700" stroke="black" stroke-width="5"/>
<rect x="552.5" y="1052.5" width="95" height="95" fill="#E8EDB1" stroke="black" stroke-width="5"/>
<rect x="1352.5" y="1052.5" width="95" height="95" fill="white" stroke="black" stroke-width="5"/>
<rect x="552.5" y="1852.5" width="95" height="95" fill="black" stroke="black" stroke-width="5"/>
<rect x="1352.5" y="1852.5" width="95" height="95" fill="black" stroke="black" stroke-width="5"/>
<rect x="552.5" y="752.5" width="95" height="95" fill="black" stroke="black" stroke-width="5"/>
<rect x="1352.5" y="752.5" width="95" height="95" fill="#E8EDB1" stroke="black" stroke-width="5"/>
<rect x="552.5" y="1552.5" width="95" height="95" fill="black" stroke="black" stroke-width="5"/>
<rect x="1352.5" y="1552.5" width="95" height="95" fill="#E8EDB1" stroke="black" stroke-width="5"/>
<rect x="552.5" y="1152.5" width="95" height="95" fill="#E8EDB1" stroke="black" stroke-width="5"/>
<rect x="1352.5" y="1152.5" width="95" height="95" fill="white" stroke="black" stroke-width="5"/>
<rect x="552.5" y="1952.5" width="95" height="95" fill="black" stroke="black" stroke-width="5"/>
<rect x="1352.5" y="1952.5" width="95" height="95" fill="black" stroke="black" stroke-width="5"/>
<rect x="652.5" y="452.5" width="95" height="95" fill="black" stroke="black" stroke-width="5"/>
<rect x="1452.5" y="452.5" width="95" height="95" fill="black" stroke="black" stroke-width="5"/>
<rect x="652.5" y="1252.5" width="95" height="95" fill="#E8EDB1" stroke="black" stroke-width="5"/>
<rect x="1452.5" y="1252.5" width="95" height="95" fill="#FFF700" stroke="black" stroke-width="5"/>
<rect x="652.5" y="852.5" width="95" height="95" fill="black" stroke="black" stroke-width="5"/>
<rect x="1452.5" y="852.5" width="95" height="95" fill="#E8EDB1" stroke="black" stroke-width="5"/>
<rect x="652.5" y="1652.5" width="95" height="95" fill="black" stroke="black" stroke-width="5"/>
<rect x="1452.5" y="1652.5" width="95" height="95" fill="#E8EDB1" stroke="black" stroke-width="5"/>
<rect x="652.5" y="552.5" width="95" height="95" fill="black" stroke="black" stroke-width="5"/>
<rect x="1452.5" y="552.5" width="95" height="95" fill="black" stroke="black" stroke-width="5"/>
<rect x="652.5" y="1352.5" width="95" height="95" fill="#E8EDB1" stroke="black" stroke-width="5"/>
<rect x="1452.5" y="1352.5" width="95" height="95" fill="#FFF700" stroke="black" stroke-width="5"/>
<rect x="652.5" y="952.5" width="95" height="95" fill="#E8EDB1" stroke="black" stroke-width="5"/>
<rect x="1452.5" y="952.5" width="95" height="95" fill="#E8EDB1" stroke="black" stroke-width="5"/>
<rect x="652.5" y="1752.5" width="95" height="95" fill="black" stroke="black" stroke-width="5"/>
<rect x="1452.5" y="1752.5" width="95" height="95" fill="black" stroke="black" stroke-width="5"/>
<rect x="652.5" y="652.5" width="95" height="95" fill="black" stroke="black" stroke-width="5"/>
<rect x="1452.5" y="652.5" width="95" height="95" fill="black" stroke="black" stroke-width="5"/>
<rect x="652.5" y="1452.5" width="95" height="95" fill="#E8EDB1" stroke="black" stroke-width="5"/>
<rect x="1452.5" y="1452.5" width="95" height="95" fill="#E8EDB1" stroke="black" stroke-width="5"/>
<rect x="652.5" y="1052.5" width="95" height="95" fill="#E8EDB1" stroke="black" stroke-width="5"/>
<rect x="1452.5" y="1052.5" width="95" height="95" fill="#FFF700" stroke="black" stroke-width="5"/>
<rect x="652.5" y="1852.5" width="95" height="95" fill="black" stroke="black" stroke-width="5"/>
<rect x="1452.5" y="1852.5" width="95" height="95" fill="black" stroke="black" stroke-width="5"/>
<rect x="652.5" y="752.5" width="95" height="95" fill="black" stroke="black" stroke-width="5"/>
<rect x="1452.5" y="752.5" width="95" height="95" fill="#E8EDB1" stroke="black" stroke-width="5"/>
<rect x="652.5" y="1552.5" width="95" height="95" fill="black" stroke="black" stroke-width="5"/>
<rect x="1452.5" y="1552.5" width="95" height="95" fill="#E8EDB1" stroke="black" stroke-width="5"/>
<rect x="652.5" y="1152.5" width="95" height="95" fill="#E8EDB1" stroke="black" stroke-width="5"/>
<rect x="1452.5" y="1152.5" width="95" height="95" fill="#FFF700" stroke="black" stroke-width="5"/>
<rect x="652.5" y="1952.5" width="95" height="95" fill="black" stroke="black" stroke-width="5"/>
<rect x="1452.5" y="1952.5" width="95" height="95" fill="black" stroke="black" stroke-width="5"/>
<rect x="752.5" y="452.5" width="95" height="95" fill="black" stroke="black" stroke-width="5"/>
<rect x="1552.5" y="452.5" width="95" height="95" fill="black" stroke="black" stroke-width="5"/>
<rect x="752.5" y="1252.5" width="95" height="95" fill="#E8EDB1" stroke="black" stroke-width="5"/>
<rect x="1552.5" y="1252.5" width="95" height="95" fill="#E8EDB1" stroke="black" stroke-width="5"/>
<rect x="752.5" y="852.5" width="95" height="95" fill="#E8EDB1" stroke="black" stroke-width="5"/>
<rect x="1552.5" y="852.5" width="95" height="95" fill="#E8EDB1" stroke="black" stroke-width="5"/>
<rect x="752.5" y="1652.5" width="95" height="95" fill="black" stroke="black" stroke-width="5"/>
<rect x="1552.5" y="1652.5" width="95" height="95" fill="black" stroke="black" stroke-width="5"/>
<rect x="752.5" y="552.5" width="95" height="95" fill="black" stroke="black" stroke-width="5"/>
<rect x="1552.5" y="552.5" width="95" height="95" fill="black" stroke="black" stroke-width="5"/>
<rect x="752.5" y="1352.5" width="95" height="95" fill="#E8EDB1" stroke="black" stroke-width="5"/>
<rect x="1552.5" y="1352.5" width="95" height="95" fill="#E8EDB1" stroke="black" stroke-width="5"/>
<rect x="752.5" y="952.5" width="95" height="95" fill="#E8EDB1" stroke="black" stroke-width="5"/>
<rect x="1552.5" y="952.5" width="95" height="95" fill="#E8EDB1" stroke="black" stroke-width="5"/>
<rect x="752.5" y="1752.5" width="95" height="95" fill="black" stroke="black" stroke-width="5"/>
<rect x="1552.5" y="1752.5" width="95" height="95" fill="black" stroke="black" stroke-width="5"/>
<rect x="752.5" y="652.5" width="95" height="95" fill="black" stroke="black" stroke-width="5"/>
<rect x="1552.5" y="652.5" width="95" height="95" fill="black" stroke="black" stroke-width="5"/>
<rect x="752.5" y="1452.5" width="95" height="95" fill="#E8EDB1" stroke="black" stroke-width="5"/>
<rect x="1552.5" y="1452.5" width="95" height="95" fill="#E8EDB1" stroke="black" stroke-width="5"/>
<rect x="752.5" y="1052.5" width="95" height="95" fill="#E8EDB1" stroke="black" stroke-width="5"/>
<rect x="1552.5" y="1052.5" width="95" height="95" fill="#E8EDB1" stroke="black" stroke-width="5"/>
<rect x="752.5" y="1852.5" width="95" height="95" fill="black" stroke="black" stroke-width="5"/>
<rect x="1552.5" y="1852.5" width="95" height="95" fill="black" stroke="black" stroke-width="5"/>
<rect x="752.5" y="752.5" width="95" height="95" fill="black" stroke="black" stroke-width="5"/>
<rect x="1552.5" y="752.5" width="95" height="95" fill="black" stroke="black" stroke-width="5"/>
<rect x="752.5" y="1552.5" width="95" height="95" fill="#E8EDB1" stroke="black" stroke-width="5"/>
<rect x="1552.5" y="1552.5" width="95" height="95" fill="#E8EDB1" stroke="black" stroke-width="5"/>
<rect x="752.5" y="1152.5" width="95" height="95" fill="#E8EDB1" stroke="black" stroke-width="5"/>
<rect x="1552.5" y="1152.5" width="95" height="95" fill="#E8EDB1" stroke="black" stroke-width="5"/>
<rect x="752.5" y="1952.5" width="95" height="95" fill="black" stroke="black" stroke-width="5"/>
<rect x="1552.5" y="1952.5" width="95" height="95" fill="black" stroke="black" stroke-width="5"/>
<rect x="898" y="606" width="1" height="1" fill="black"/>
<rect x="1699" y="606" width="1" height="1" fill="black"/>
<rect x="898" y="1406" width="1" height="1" fill="black"/>
<rect x="1699" y="1406" width="1" height="1" fill="black"/>
<rect x="898" y="1006" width="1" height="1" fill="black"/>
<rect x="1699" y="1006" width="1" height="1" fill="black"/>
<rect x="898" y="1806" width="1" height="1" fill="black"/>
<rect x="1699" y="1806" width="1" height="1" fill="black"/>
<rect x="898" y="706" width="1" height="1" fill="black"/>
<rect x="1699" y="706" width="1" height="1" fill="black"/>
<rect x="898" y="1506" width="1" height="1" fill="black"/>
<rect x="1699" y="1506" width="1" height="1" fill="black"/>
<rect x="898" y="1106" width="1" height="1" fill="black"/>
<rect x="1699" y="1106" width="1" height="1" fill="black"/>
<rect x="898" y="1906" width="1" height="1" fill="black"/>
<rect x="1699" y="1906" width="1" height="1" fill="black"/>
<rect x="898" y="806" width="1" height="1" fill="black"/>
<rect x="1699" y="806" width="1" height="1" fill="black"/>
<rect x="898" y="1606" width="1" height="1" fill="black"/>
<rect x="1699" y="1606" width="1" height="1" fill="black"/>
<rect x="898" y="1206" width="1" height="1" fill="black"/>
<rect x="1699" y="1206" width="1" height="1" fill="black"/>
<rect x="898" y="2006" width="1" height="1" fill="black"/>
<rect x="1699" y="2006" width="1" height="1" fill="black"/>
<rect x="375" y="375" width="1750" height="1750" fill="#6F6F6F" fill-opacity="0.3"/>
<circle cx="258.75" cy="2232.5" r="91.875" fill="#C4C4C4" stroke="#969696" stroke-width="3.75"/>
<circle cx="2231.25" cy="2232.5" r="91.875" fill="#C4C4C4" stroke="#969696" stroke-width="3.75"/>
</g>
<rect x="0.625" y="0.625" width="2498.75" height="2498.75" stroke="black" stroke-width="1.25"/>
<defs>
<clipPath id="clip0_31_517">
<rect width="2500" height="2500" fill="white"/>
</clipPath>
</defs>
</svg>
