<svg width="1800" height="3500" viewBox="0 0 1800 3500" fill="none" xmlns="http://www.w3.org/2000/svg">
<g clip-path="url(#clip0_29_499)">
<rect width="1800" height="3500" fill="#BCAA61"/>
<rect width="1800" height="3500" fill="black"/>
<rect x="502.5" y="1552.5" width="95" height="95" stroke="black" stroke-width="5"/>
<rect x="502.5" y="752.5" width="95" height="95" stroke="black" stroke-width="5"/>
<rect x="502.5" y="2352.5" width="95" height="95" stroke="black" stroke-width="5"/>
<rect x="502.5" y="352.5" width="95" height="95" stroke="black" stroke-width="5"/>
<rect x="502.5" y="1952.5" width="95" height="95" stroke="black" stroke-width="5"/>
<rect x="502.5" y="1152.5" width="95" height="95" stroke="black" stroke-width="5"/>
<rect x="502.5" y="2752.5" width="95" height="95" stroke="black" stroke-width="5"/>
<rect x="502.5" y="1652.5" width="95" height="95" stroke="black" stroke-width="5"/>
<rect x="502.5" y="852.5" width="95" height="95" stroke="black" stroke-width="5"/>
<rect x="502.5" y="2452.5" width="95" height="95" stroke="black" stroke-width="5"/>
<rect x="502.5" y="452.5" width="95" height="95" stroke="black" stroke-width="5"/>
<rect x="502.5" y="2052.5" width="95" height="95" stroke="black" stroke-width="5"/>
<rect x="502.5" y="1252.5" width="95" height="95" stroke="black" stroke-width="5"/>
<rect x="502.5" y="2852.5" width="95" height="95" stroke="black" stroke-width="5"/>
<rect x="502.5" y="1752.5" width="95" height="95" stroke="black" stroke-width="5"/>
<rect x="502.5" y="952.5" width="95" height="95" stroke="black" stroke-width="5"/>
<rect x="502.5" y="2552.5" width="95" height="95" stroke="black" stroke-width="5"/>
<rect x="502.5" y="552.5" width="95" height="95" stroke="black" stroke-width="5"/>
<rect x="502.5" y="2152.5" width="95" height="95" stroke="black" stroke-width="5"/>
<rect x="502.5" y="1352.5" width="95" height="95" stroke="black" stroke-width="5"/>
<rect x="502.5" y="2952.5" width="95" height="95" fill="#FFF700" stroke="black" stroke-width="5"/>
<rect x="502.5" y="1852.5" width="95" height="95" stroke="black" stroke-width="5"/>
<rect x="502.5" y="1052.5" width="95" height="95" stroke="black" stroke-width="5"/>
<rect x="502.5" y="2652.5" width="95" height="95" stroke="black" stroke-width="5"/>
<rect x="502.5" y="652.5" width="95" height="95" stroke="black" stroke-width="5"/>
<rect x="502.5" y="2252.5" width="95" height="95" stroke="black" stroke-width="5"/>
<rect x="502.5" y="1452.5" width="95" height="95" stroke="black" stroke-width="5"/>
<rect x="502.5" y="3052.5" width="95" height="95" fill="#FFF700" stroke="black" stroke-width="5"/>
<rect x="902.5" y="1552.5" width="95" height="95" stroke="black" stroke-width="5"/>
<rect x="902.5" y="752.5" width="95" height="95" stroke="black" stroke-width="5"/>
<rect x="902.5" y="2352.5" width="95" height="95" stroke="black" stroke-width="5"/>
<rect x="902.5" y="352.5" width="95" height="95" stroke="black" stroke-width="5"/>
<rect x="902.5" y="1952.5" width="95" height="95" stroke="black" stroke-width="5"/>
<rect x="902.5" y="1152.5" width="95" height="95" stroke="black" stroke-width="5"/>
<rect x="902.5" y="2752.5" width="95" height="95" stroke="black" stroke-width="5"/>
<rect x="902.5" y="1652.5" width="95" height="95" stroke="black" stroke-width="5"/>
<rect x="902.5" y="852.5" width="95" height="95" stroke="black" stroke-width="5"/>
<rect x="902.5" y="2452.5" width="95" height="95" stroke="black" stroke-width="5"/>
<rect x="902.5" y="452.5" width="95" height="95" stroke="black" stroke-width="5"/>
<rect x="902.5" y="2052.5" width="95" height="95" stroke="black" stroke-width="5"/>
<rect x="902.5" y="1252.5" width="95" height="95" stroke="black" stroke-width="5"/>
<rect x="902.5" y="2852.5" width="95" height="95" stroke="black" stroke-width="5"/>
<rect x="902.5" y="1752.5" width="95" height="95" stroke="black" stroke-width="5"/>
<rect x="902.5" y="952.5" width="95" height="95" stroke="black" stroke-width="5"/>
<rect x="902.5" y="2552.5" width="95" height="95" stroke="black" stroke-width="5"/>
<rect x="902.5" y="552.5" width="95" height="95" stroke="black" stroke-width="5"/>
<rect x="902.5" y="2152.5" width="95" height="95" stroke="black" stroke-width="5"/>
<rect x="902.5" y="1352.5" width="95" height="95" stroke="black" stroke-width="5"/>
<rect x="902.5" y="2952.5" width="95" height="95" fill="#FF0000" stroke="black" stroke-width="5"/>
<rect x="902.5" y="1852.5" width="95" height="95" stroke="black" stroke-width="5"/>
<rect x="902.5" y="1052.5" width="95" height="95" stroke="black" stroke-width="5"/>
<rect x="902.5" y="2652.5" width="95" height="95" stroke="black" stroke-width="5"/>
<rect x="902.5" y="652.5" width="95" height="95" stroke="black" stroke-width="5"/>
<rect x="902.5" y="2252.5" width="95" height="95" stroke="black" stroke-width="5"/>
<rect x="902.5" y="1452.5" width="95" height="95" stroke="black" stroke-width="5"/>
<rect x="902.5" y="3052.5" width="95" height="95" fill="#FF0000" stroke="black" stroke-width="5"/>
<rect x="1002.5" y="1552.5" width="95" height="95" stroke="black" stroke-width="5"/>
<rect x="1002.5" y="752.5" width="95" height="95" stroke="black" stroke-width="5"/>
<rect x="1002.5" y="2352.5" width="95" height="95" stroke="black" stroke-width="5"/>
<rect x="1002.5" y="352.5" width="95" height="95" stroke="black" stroke-width="5"/>
<rect x="1002.5" y="1952.5" width="95" height="95" stroke="black" stroke-width="5"/>
<rect x="1002.5" y="1152.5" width="95" height="95" stroke="black" stroke-width="5"/>
<rect x="1002.5" y="2752.5" width="95" height="95" stroke="black" stroke-width="5"/>
<rect x="1002.5" y="1652.5" width="95" height="95" stroke="black" stroke-width="5"/>
<rect x="1002.5" y="852.5" width="95" height="95" stroke="black" stroke-width="5"/>
<rect x="1002.5" y="2452.5" width="95" height="95" stroke="black" stroke-width="5"/>
<rect x="1002.5" y="452.5" width="95" height="95" stroke="black" stroke-width="5"/>
<rect x="1002.5" y="2052.5" width="95" height="95" stroke="black" stroke-width="5"/>
<rect x="1002.5" y="1252.5" width="95" height="95" stroke="black" stroke-width="5"/>
<rect x="1002.5" y="2852.5" width="95" height="95" fill="#FF0000" stroke="black" stroke-width="5"/>
<rect x="1002.5" y="1752.5" width="95" height="95" stroke="black" stroke-width="5"/>
<rect x="1002.5" y="952.5" width="95" height="95" stroke="black" stroke-width="5"/>
<rect x="1002.5" y="2552.5" width="95" height="95" stroke="black" stroke-width="5"/>
<rect x="1002.5" y="552.5" width="95" height="95" stroke="black" stroke-width="5"/>
<rect x="1002.5" y="2152.5" width="95" height="95" stroke="black" stroke-width="5"/>
<rect x="1002.5" y="1352.5" width="95" height="95" stroke="black" stroke-width="5"/>
<rect x="1002.5" y="2952.5" width="95" height="95" fill="#FF0000" stroke="black" stroke-width="5"/>
<rect x="1002.5" y="1852.5" width="95" height="95" stroke="black" stroke-width="5"/>
<rect x="1002.5" y="1052.5" width="95" height="95" stroke="black" stroke-width="5"/>
<rect x="1002.5" y="2652.5" width="95" height="95" stroke="black" stroke-width="5"/>
<rect x="1002.5" y="652.5" width="95" height="95" stroke="black" stroke-width="5"/>
<rect x="1002.5" y="2252.5" width="95" height="95" stroke="black" stroke-width="5"/>
<rect x="1002.5" y="1452.5" width="95" height="95" stroke="black" stroke-width="5"/>
<rect x="1002.5" y="3052.5" width="95" height="95" fill="#FFA200" stroke="black" stroke-width="5"/>
<rect x="1102.5" y="1552.5" width="95" height="95" stroke="black" stroke-width="5"/>
<rect x="1102.5" y="752.5" width="95" height="95" stroke="black" stroke-width="5"/>
<rect x="1102.5" y="2352.5" width="95" height="95" stroke="black" stroke-width="5"/>
<rect x="1102.5" y="352.5" width="95" height="95" stroke="black" stroke-width="5"/>
<rect x="1102.5" y="1952.5" width="95" height="95" stroke="black" stroke-width="5"/>
<rect x="1102.5" y="1152.5" width="95" height="95" stroke="black" stroke-width="5"/>
<rect x="1102.5" y="2752.5" width="95" height="95" fill="#FF00EA" stroke="black" stroke-width="5"/>
<rect x="1102.5" y="1652.5" width="95" height="95" stroke="black" stroke-width="5"/>
<rect x="1102.5" y="852.5" width="95" height="95" stroke="black" stroke-width="5"/>
<rect x="1102.5" y="2452.5" width="95" height="95" stroke="black" stroke-width="5"/>
<rect x="1102.5" y="452.5" width="95" height="95" stroke="black" stroke-width="5"/>
<rect x="1102.5" y="2052.5" width="95" height="95" stroke="black" stroke-width="5"/>
<rect x="1102.5" y="1252.5" width="95" height="95" stroke="black" stroke-width="5"/>
<rect x="1102.5" y="2852.5" width="95" height="95" fill="#FF00EA" stroke="black" stroke-width="5"/>
<rect x="1102.5" y="1752.5" width="95" height="95" stroke="black" stroke-width="5"/>
<rect x="1102.5" y="952.5" width="95" height="95" stroke="black" stroke-width="5"/>
<rect x="1102.5" y="2552.5" width="95" height="95" stroke="black" stroke-width="5"/>
<rect x="1102.5" y="552.5" width="95" height="95" stroke="black" stroke-width="5"/>
<rect x="1102.5" y="2152.5" width="95" height="95" stroke="black" stroke-width="5"/>
<rect x="1102.5" y="1352.5" width="95" height="95" stroke="black" stroke-width="5"/>
<rect x="1102.5" y="2952.5" width="95" height="95" fill="#FF00EA" stroke="black" stroke-width="5"/>
<rect x="1102.5" y="1852.5" width="95" height="95" stroke="black" stroke-width="5"/>
<rect x="1102.5" y="1052.5" width="95" height="95" stroke="black" stroke-width="5"/>
<rect x="1102.5" y="2652.5" width="95" height="95" stroke="black" stroke-width="5"/>
<rect x="1102.5" y="652.5" width="95" height="95" stroke="black" stroke-width="5"/>
<rect x="1102.5" y="2252.5" width="95" height="95" stroke="black" stroke-width="5"/>
<rect x="1102.5" y="1452.5" width="95" height="95" stroke="black" stroke-width="5"/>
<rect x="1102.5" y="3052.5" width="95" height="95" fill="#FFA200" stroke="black" stroke-width="5"/>
<rect x="1202.5" y="1552.5" width="95" height="95" stroke="black" stroke-width="5"/>
<rect x="1202.5" y="752.5" width="95" height="95" stroke="black" stroke-width="5"/>
<rect x="1202.5" y="2352.5" width="95" height="95" stroke="black" stroke-width="5"/>
<rect x="1202.5" y="352.5" width="95" height="95" stroke="black" stroke-width="5"/>
<rect x="1202.5" y="1952.5" width="95" height="95" stroke="black" stroke-width="5"/>
<rect x="1202.5" y="1152.5" width="95" height="95" stroke="black" stroke-width="5"/>
<rect x="1202.5" y="2752.5" width="95" height="95" stroke="black" stroke-width="5"/>
<rect x="1202.5" y="1652.5" width="95" height="95" stroke="black" stroke-width="5"/>
<rect x="1202.5" y="852.5" width="95" height="95" stroke="black" stroke-width="5"/>
<rect x="1202.5" y="2452.5" width="95" height="95" stroke="black" stroke-width="5"/>
<rect x="1202.5" y="452.5" width="95" height="95" stroke="black" stroke-width="5"/>
<rect x="1202.5" y="2052.5" width="95" height="95" stroke="black" stroke-width="5"/>
<rect x="1202.5" y="1252.5" width="95" height="95" stroke="black" stroke-width="5"/>
<rect x="1202.5" y="2852.5" width="95" height="95" fill="#FF00EA" stroke="black" stroke-width="5"/>
<rect x="1202.5" y="1752.5" width="95" height="95" stroke="black" stroke-width="5"/>
<rect x="1202.5" y="952.5" width="95" height="95" stroke="black" stroke-width="5"/>
<rect x="1202.5" y="2552.5" width="95" height="95" stroke="black" stroke-width="5"/>
<rect x="1202.5" y="552.5" width="95" height="95" stroke="black" stroke-width="5"/>
<rect x="1202.5" y="2152.5" width="95" height="95" stroke="black" stroke-width="5"/>
<rect x="1202.5" y="1352.5" width="95" height="95" stroke="black" stroke-width="5"/>
<rect x="1202.5" y="2952.5" width="95" height="95" fill="#FFA200" stroke="black" stroke-width="5"/>
<rect x="1202.5" y="1852.5" width="95" height="95" stroke="black" stroke-width="5"/>
<rect x="1202.5" y="1052.5" width="95" height="95" stroke="black" stroke-width="5"/>
<rect x="1202.5" y="2652.5" width="95" height="95" stroke="black" stroke-width="5"/>
<rect x="1202.5" y="652.5" width="95" height="95" stroke="black" stroke-width="5"/>
<rect x="1202.5" y="2252.5" width="95" height="95" stroke="black" stroke-width="5"/>
<rect x="1202.5" y="1452.5" width="95" height="95" stroke="black" stroke-width="5"/>
<rect x="1202.5" y="3052.5" width="95" height="95" fill="#FFA200" stroke="black" stroke-width="5"/>
<rect x="602.5" y="1552.5" width="95" height="95" stroke="black" stroke-width="5"/>
<rect x="602.5" y="752.5" width="95" height="95" stroke="black" stroke-width="5"/>
<rect x="602.5" y="2352.5" width="95" height="95" stroke="black" stroke-width="5"/>
<rect x="602.5" y="352.5" width="95" height="95" stroke="black" stroke-width="5"/>
<rect x="602.5" y="1952.5" width="95" height="95" stroke="black" stroke-width="5"/>
<rect x="602.5" y="1152.5" width="95" height="95" stroke="black" stroke-width="5"/>
<rect x="602.5" y="2752.5" width="95" height="95" stroke="black" stroke-width="5"/>
<rect x="602.5" y="1652.5" width="95" height="95" stroke="black" stroke-width="5"/>
<rect x="602.5" y="852.5" width="95" height="95" stroke="black" stroke-width="5"/>
<rect x="602.5" y="2452.5" width="95" height="95" stroke="black" stroke-width="5"/>
<rect x="602.5" y="452.5" width="95" height="95" stroke="black" stroke-width="5"/>
<rect x="602.5" y="2052.5" width="95" height="95" stroke="black" stroke-width="5"/>
<rect x="602.5" y="1252.5" width="95" height="95" stroke="black" stroke-width="5"/>
<rect x="602.5" y="2852.5" width="95" height="95" fill="#37FF00" stroke="black" stroke-width="5"/>
<rect x="602.5" y="1752.5" width="95" height="95" stroke="black" stroke-width="5"/>
<rect x="602.5" y="952.5" width="95" height="95" stroke="black" stroke-width="5"/>
<rect x="602.5" y="2552.5" width="95" height="95" stroke="black" stroke-width="5"/>
<rect x="602.5" y="552.5" width="95" height="95" stroke="black" stroke-width="5"/>
<rect x="602.5" y="2152.5" width="95" height="95" stroke="black" stroke-width="5"/>
<rect x="602.5" y="1352.5" width="95" height="95" stroke="black" stroke-width="5"/>
<rect x="602.5" y="2952.5" width="95" height="95" fill="#FFF700" stroke="black" stroke-width="5"/>
<rect x="602.5" y="1852.5" width="95" height="95" stroke="black" stroke-width="5"/>
<rect x="602.5" y="1052.5" width="95" height="95" stroke="black" stroke-width="5"/>
<rect x="602.5" y="2652.5" width="95" height="95" stroke="black" stroke-width="5"/>
<rect x="602.5" y="652.5" width="95" height="95" stroke="black" stroke-width="5"/>
<rect x="602.5" y="2252.5" width="95" height="95" stroke="black" stroke-width="5"/>
<rect x="602.5" y="1452.5" width="95" height="95" stroke="black" stroke-width="5"/>
<rect x="602.5" y="3052.5" width="95" height="95" fill="#FFF700" stroke="black" stroke-width="5"/>
<rect x="702.5" y="1552.5" width="95" height="95" fill="#00EEFF" stroke="black" stroke-width="5"/>
<rect x="702.5" y="752.5" width="95" height="95" stroke="black" stroke-width="5"/>
<rect x="702.5" y="2352.5" width="95" height="95" stroke="black" stroke-width="5"/>
<rect x="702.5" y="352.5" width="95" height="95" stroke="black" stroke-width="5"/>
<rect x="702.5" y="1952.5" width="95" height="95" stroke="black" stroke-width="5"/>
<rect x="702.5" y="1152.5" width="95" height="95" stroke="black" stroke-width="5"/>
<rect x="702.5" y="2752.5" width="95" height="95" fill="#37FF00" stroke="black" stroke-width="5"/>
<rect x="702.5" y="1652.5" width="95" height="95" fill="#00EEFF" stroke="black" stroke-width="5"/>
<rect x="702.5" y="852.5" width="95" height="95" stroke="black" stroke-width="5"/>
<rect x="702.5" y="2452.5" width="95" height="95" stroke="black" stroke-width="5"/>
<rect x="702.5" y="452.5" width="95" height="95" stroke="black" stroke-width="5"/>
<rect x="702.5" y="2052.5" width="95" height="95" stroke="black" stroke-width="5"/>
<rect x="702.5" y="1252.5" width="95" height="95" stroke="black" stroke-width="5"/>
<rect x="702.5" y="2852.5" width="95" height="95" fill="#37FF00" stroke="black" stroke-width="5"/>
<rect x="702.5" y="1752.5" width="95" height="95" fill="#00EEFF" stroke="black" stroke-width="5"/>
<rect x="702.5" y="952.5" width="95" height="95" stroke="black" stroke-width="5"/>
<rect x="702.5" y="2552.5" width="95" height="95" stroke="black" stroke-width="5"/>
<rect x="702.5" y="552.5" width="95" height="95" stroke="black" stroke-width="5"/>
<rect x="702.5" y="2152.5" width="95" height="95" stroke="black" stroke-width="5"/>
<rect x="702.5" y="1352.5" width="95" height="95" stroke="black" stroke-width="5"/>
<rect x="702.5" y="2952.5" width="95" height="95" stroke="black" stroke-width="5"/>
<rect x="702.5" y="1852.5" width="95" height="95" stroke="black" stroke-width="5"/>
<rect x="702.5" y="1052.5" width="95" height="95" stroke="black" stroke-width="5"/>
<rect x="702.5" y="2652.5" width="95" height="95" stroke="black" stroke-width="5"/>
<rect x="702.5" y="652.5" width="95" height="95" stroke="black" stroke-width="5"/>
<rect x="702.5" y="2252.5" width="95" height="95" stroke="black" stroke-width="5"/>
<rect x="702.5" y="1452.5" width="95" height="95" fill="#00EEFF" stroke="black" stroke-width="5"/>
<rect x="702.5" y="3052.5" width="95" height="95" fill="#2200FF" stroke="black" stroke-width="5"/>
<rect x="802.5" y="1552.5" width="95" height="95" stroke="black" stroke-width="5"/>
<rect x="802.5" y="752.5" width="95" height="95" stroke="black" stroke-width="5"/>
<rect x="802.5" y="2352.5" width="95" height="95" stroke="black" stroke-width="5"/>
<rect x="802.5" y="352.5" width="95" height="95" stroke="black" stroke-width="5"/>
<rect x="802.5" y="1952.5" width="95" height="95" stroke="black" stroke-width="5"/>
<rect x="802.5" y="1152.5" width="95" height="95" stroke="black" stroke-width="5"/>
<rect x="802.5" y="2752.5" width="95" height="95" fill="#37FF00" stroke="black" stroke-width="5"/>
<rect x="802.5" y="1652.5" width="95" height="95" stroke="black" stroke-width="5"/>
<rect x="802.5" y="852.5" width="95" height="95" stroke="black" stroke-width="5"/>
<rect x="802.5" y="2452.5" width="95" height="95" stroke="black" stroke-width="5"/>
<rect x="802.5" y="452.5" width="95" height="95" stroke="black" stroke-width="5"/>
<rect x="802.5" y="2052.5" width="95" height="95" stroke="black" stroke-width="5"/>
<rect x="802.5" y="1252.5" width="95" height="95" stroke="black" stroke-width="5"/>
<rect x="802.5" y="2852.5" width="95" height="95" fill="#2200FF" stroke="black" stroke-width="5"/>
<rect x="802.5" y="1752.5" width="95" height="95" stroke="black" stroke-width="5"/>
<rect x="802.5" y="952.5" width="95" height="95" stroke="black" stroke-width="5"/>
<rect x="802.5" y="2552.5" width="95" height="95" stroke="black" stroke-width="5"/>
<rect x="802.5" y="552.5" width="95" height="95" stroke="black" stroke-width="5"/>
<rect x="802.5" y="2152.5" width="95" height="95" stroke="black" stroke-width="5"/>
<rect x="802.5" y="1352.5" width="95" height="95" stroke="black" stroke-width="5"/>
<rect x="802.5" y="2952.5" width="95" height="95" fill="#2200FF" stroke="black" stroke-width="5"/>
<rect x="802.5" y="1852.5" width="95" height="95" stroke="black" stroke-width="5"/>
<rect x="802.5" y="1052.5" width="95" height="95" stroke="black" stroke-width="5"/>
<rect x="802.5" y="2652.5" width="95" height="95" stroke="black" stroke-width="5"/>
<rect x="802.5" y="652.5" width="95" height="95" stroke="black" stroke-width="5"/>
<rect x="802.5" y="2252.5" width="95" height="95" stroke="black" stroke-width="5"/>
<rect x="802.5" y="1452.5" width="95" height="95" stroke="black" stroke-width="5"/>
<rect x="802.5" y="3052.5" width="95" height="95" fill="#2200FF" stroke="black" stroke-width="5"/>
<rect x="220" y="220" width="1360" height="3060" fill="#8A8A8A" fill-opacity="0.3"/>
<rect x="50" y="50" width="1700" height="3400" stroke="black" stroke-width="100"/>
<rect x="160" y="160" width="1480" height="3180" stroke="white" stroke-width="120"/>
</g>
<rect x="0.5" y="0.5" width="1799" height="3499" stroke="black"/>
<defs>
<clipPath id="clip0_29_499">
<rect width="1800" height="3500" fill="white"/>
</clipPath>
</defs>
</svg>
